<svg xmlns="http://www.w3.org/2000/svg" xmlns:xlink="http://www.w3.org/1999/xlink" viewBox="0 0 2311.96 1789.59"><defs><style>.cls-1{fill:none;}.cls-2{fill:#c7e6ff;}.cls-3{fill:#215e4b;}.cls-4{fill:#3c8f7c;}.cls-5{fill:#9bc1f9;}.cls-6{fill:#86b1f2;}.cls-7{fill:#f7a491;}.cls-8{fill:#f7cc7f;}.cls-49,.cls-9{fill:#f47458;}.cls-10{fill:#b75742;}.cls-11{fill:#13375b;}.cls-12{fill:#f48c7f;}.cls-13{fill:#96d9c9;}.cls-14{fill:#50bfa5;}.cls-15{fill:#fff;}.cls-16{fill:#355389;}.cls-17{fill:#327f6b;}.cls-18{clip-path:url(#clip-path);}.cls-19{clip-path:url(#clip-path-2);}.cls-20{fill:#f29383;}.cls-21{fill:#c24c32;}.cls-22{clip-path:url(#clip-path-3);}.cls-23{fill:#bf7154;}.cls-24{fill:#a85d42;}.cls-25{clip-path:url(#clip-path-4);}.cls-26{fill:#c5dbfc;}.cls-27{fill:#f5866e;}.cls-28{clip-path:url(#clip-path-5);}.cls-29{clip-path:url(#clip-path-6);}.cls-30{fill:#466eb6;}.cls-31{fill:#184655;}.cls-32{clip-path:url(#clip-path-7);}.cls-33{fill:#a3573c;}.cls-34{clip-path:url(#clip-path-8);}.cls-35{clip-path:url(#clip-path-9);}.cls-36{clip-path:url(#clip-path-10);}.cls-37{clip-path:url(#clip-path-11);}.cls-38{fill:#47637f;}.cls-39{clip-path:url(#clip-path-12);}.cls-40{clip-path:url(#clip-path-13);}.cls-41{fill:#8ca5d2;}.cls-42{fill:#0e2e35;}.cls-43{clip-path:url(#clip-path-14);}.cls-44{fill:#fadfae;}.cls-45{fill:#96482a;}.cls-46{clip-path:url(#clip-path-15);}.cls-47{fill:#f8a492;}.cls-48{clip-path:url(#clip-path-16);}.cls-49{opacity:0.5;}.cls-50{clip-path:url(#clip-path-17);}</style><clipPath id="clip-path"><circle class="cls-1" cx="1482.78" cy="245.34" r="86.11" transform="translate(1198.55 1721.17) rotate(-88.49)"/></clipPath><clipPath id="clip-path-2"><circle class="cls-1" cx="1054.77" cy="487.61" r="89.91" transform="translate(404.5 1450.65) rotate(-80.78)"/></clipPath><clipPath id="clip-path-3"><path class="cls-1" d="M1185.9,301.05a48.52,48.52,0,1,0,48.52-48.52A48.51,48.51,0,0,0,1185.9,301.05Z"/></clipPath><clipPath id="clip-path-4"><circle class="cls-1" cx="1748.67" cy="518.72" r="97.03" transform="translate(-73.12 608.07) rotate(-19.33)"/></clipPath><clipPath id="clip-path-5"><circle class="cls-1" cx="2016.5" cy="800.26" r="67.28"/></clipPath><clipPath id="clip-path-6"><circle class="cls-1" cx="1368.53" cy="524.14" r="56.21" transform="translate(618.51 1783.13) rotate(-80.17)"/></clipPath><clipPath id="clip-path-7"><circle class="cls-1" cx="296.61" cy="593.97" r="84.74" transform="translate(-142.52 96.03) rotate(-14.87)"/></clipPath><clipPath id="clip-path-8"><path class="cls-1" d="M715.58,254.37a69.95,69.95,0,1,0,69.95-70A69.94,69.94,0,0,0,715.58,254.37Z"/></clipPath><clipPath id="clip-path-9"><circle class="cls-1" cx="1122.97" cy="727.85" r="41.06" transform="translate(-193.05 485.14) rotate(-22.5)"/></clipPath><clipPath id="clip-path-10"><path class="cls-1" d="M1590,798.37a49.54,49.54,0,1,0,49.54-49.53A49.53,49.53,0,0,0,1590,798.37Z"/></clipPath><clipPath id="clip-path-11"><circle class="cls-1" cx="1368.53" cy="800.7" r="100.81" transform="translate(105.06 1758.64) rotate(-67.5)"/></clipPath><clipPath id="clip-path-12"><path class="cls-1" d="M344.23,308.57a59.4,59.4,0,1,0,59.4-59.4A59.4,59.4,0,0,0,344.23,308.57Z"/></clipPath><clipPath id="clip-path-13"><circle class="cls-1" cx="653.34" cy="518.65" r="95.1" transform="translate(-35.12 47.62) rotate(-4.07)"/></clipPath><clipPath id="clip-path-14"><circle class="cls-1" cx="882.98" cy="781.8" r="49.43" transform="translate(-294.2 853.35) rotate(-45)"/></clipPath><clipPath id="clip-path-15"><circle class="cls-1" cx="1827.81" cy="272.7" r="67.17" transform="translate(1037.13 1943.06) rotate(-73.15)"/></clipPath><clipPath id="clip-path-16"><path class="cls-1" d="M2139.38,537.33a57.63,57.63,0,1,1-57.63-57.63A57.63,57.63,0,0,1,2139.38,537.33Z"/></clipPath><clipPath id="clip-path-17"><path class="cls-1" d="M542.18,831.26a67.73,67.73,0,1,1-67.73-67.73A67.72,67.72,0,0,1,542.18,831.26Z"/></clipPath></defs><title>Asset 2</title><g id="Layer_2" data-name="Layer 2"><g id="Layer_1-2" data-name="Layer 1"><path class="cls-2" d="M2057.72,1786.09C2216.78,1577,2312,1311.38,2312,1022.3,2312,348.18,1881.5,0,1156,0,462.45,0,0,348.18,0,1022.3,0,1311.38,95.18,1577,254.24,1786.09Z"/><path class="cls-3" d="M367.18,1655.15h4.55a267.82,267.82,0,0,1,9.68-49.9c19.82-66.88,11.15-75.54,44.59-117.35s35.93-128.52,35.93-128.52,16.1-98.48,0-141.83-17.35-86.71-56.36-132.54c0,0-7.44,61.32-16.73,89.19s-18.11,54.5-11.22,121.39,11.17,72.46,12.74,89.8-.9,90.44,2.82,102.51-21.68,95.68-23.54,131.6C369.09,1630.29,368.08,1642.6,367.18,1655.15Z"/><path class="cls-4" d="M381.43,1655.15c6.45-14.88,17.81-29.68,37.7-38.56,52-23.22,87.12-22.7,111.27-78.44s24.15-131.92,32.52-147.72c0,0-22.3-3.71-44.6,36.24s-37.42,69.67-50.29,92.9-31.46,16.72-47.25,34.37c-13.24,14.79-25.46,49.21-30.1,66.67a68.46,68.46,0,0,1-6.6,16.24c-2.63,4.65-5.73,10.3-7.58,14.32a22,22,0,0,0-1.23,4Z"/><path class="cls-3" d="M234.63,1391c-3.72,47.69,26.63,44,27.87,74.33s40.88,81.75,59.24,118.29c9.55,19,13.08,48.06,14.26,71.57h14.76c-5.71-59.51-29.86-100.93-44.29-134.12-18.58-42.74-21.37-62.25-5.57-95.69S293.47,1305.5,316,1267s11-99,5.79-122.2.53-39,5.17-63.5-5.17-60.06-5.17-60.06c-.84,30.35-23.94,71.84-40.66,98.48s-48.31,99.09-44.59,131.92,1.86,35.3,1.86,35.3C226.58,1330.89,238.35,1343.28,234.63,1391Z"/><path class="cls-4" d="M323.15,1616.4c1.9,5.69,8,20.23,13.55,38.75h9.05c-4.12-23.58-11.22-50.94-23.22-66.62-24.15-31.59-72.46-45.21-78-68.13s.62-91.66-34.69-130.06c0,0,5,42.75,0,54.2s-47.06,64.71-22.29,109.31,80.51,39,97.85,48.92S320.06,1607.11,323.15,1616.4Z"/><path class="cls-4" d="M300.86,1410.74c-.62,45.83,35.3,63.18,34.68,88.57s7.43,52.64,14.25,73.08c4.31,12.94,1.92,49,1.16,82.76h10c2.51-24.84,5.27-60.68,4.36-76.57-1.24-21.67,8.67-39,9.91-76.79s9.29-71.85-7.43-119.54-13.63-104.67-83.61-157.31c0,0-12.39,55.74-3.1,86.09S301.48,1364.91,300.86,1410.74Z"/><path class="cls-5" d="M371.76,1616H275.83a10.17,10.17,0,0,0-9.88,12.53l35,147.46a10.16,10.16,0,0,0,9.88,7.82H426a10.15,10.15,0,0,0,9.88-7.82l35-147.46A10.17,10.17,0,0,0,461,1616Z"/><rect class="cls-6" x="813.37" y="1529.21" width="15.76" height="230.52"/><path class="cls-7" d="M1052.92,1700.78s3.45,36,1.18,47.71a43.43,43.43,0,0,1-1.75,5.76c-2.34,6.57,4.06,26.66,4.06,26.66l85.78.3c4.67,0,1.55-2.81-2.26-5.41-6.22-4.25-11.23-7-31-15.91-1.29-.57-6-3.35-7.71-4.32a59,59,0,0,1-12.4-10.19c-6.24-6.47-7.19-38.18-7.19-38.18Z"/><path class="cls-8" d="M1101.17,1755.57c-22.61,5.82-39.42,2.24-48.85-1.26-2.33,6.57-6.72,28.78-4.1,28.78,21.51,0,39.71,3.89,101.34,3,2.21,0,1.94-7.28.5-8.87C1146.09,1772.76,1102.88,1756.53,1101.17,1755.57Z"/><path class="cls-7" d="M1150,1641.12s18.76,31.36,21.79,42.94a43.57,43.57,0,0,1,.91,5.93c.73,6.91,15.27,22.64,15.27,22.64l78.17-33.76c4.26-1.83.19-3.17-4.4-4-7.51-1.4-13.28-1.95-35.15-2.15-1.43,0-6.92-.67-8.89-.87a61.27,61.27,0,0,1-15.71-4.36c-8.48-3.4-23.12-31.88-23.12-31.88Z"/><path class="cls-8" d="M1217.7,1671.82c-18,14.26-34.89,17.68-45,18.24.73,6.9,6.38,28.85,8.76,27.81,19.57-8.54,37.83-12.22,93.49-37.52,2-.9-1.4-7.39-3.4-8.27C1266,1669.64,1219.67,1672,1217.7,1671.82Z"/><path class="cls-9" d="M883.21,1373.25v18.49l181.85,36.56,45.13,129.6L1085,1541.49l5.81,199.57-38.25.25s-66.28-167.44-44.54-251.65L806.8,1492.6s-91.22-33.66-44.15-135.19Z"/><path class="cls-10" d="M883.21,1391.74s188.64,1.21,202,11.07,113.92,254.94,113.92,254.94l-43.84,15.66s-87.23-139-91.85-149-38.4-82.42-51.3-89.82S883.21,1391.74,883.21,1391.74Z"/><path class="cls-6" d="M737.78,1770H894.41a13.06,13.06,0,0,1,13.06,13.06h0a2.28,2.28,0,0,1-2.28,2.28H727a2.28,2.28,0,0,1-2.28-2.28h0A13.06,13.06,0,0,1,737.78,1770Z"/><path class="cls-6" d="M808.34,1759.74h19.18A10.28,10.28,0,0,1,837.8,1770h0a10.28,10.28,0,0,1-10.28,10.28H808.34A10.28,10.28,0,0,1,798.06,1770h0A10.28,10.28,0,0,1,808.34,1759.74Z"/><path class="cls-11" d="M896.56,1064c.85-20.53-2.17-40.79-11.35-59.9-7.9-16.44-27.45-25.77-45.28-25.79-56.6-.08-63.8,74.71-99.84,103.56-11,8.82-23.31,16-33.73,25.5-38.47,35.11-21.14,100.09,14.18,130.86,24.52,21.35,63,33.49,93.25,16.79,15.77-8.71,27.75-23.2,36.28-39.07,12.1-22.52,19.9-48.51,28.51-72.52C887.75,1117.87,895.43,1091.27,896.56,1064Z"/><path class="cls-12" d="M1052.72,1279l-123.18-34.34s-25.95-34.86-59.34-81.63c-10.91,10.81-17,27.41-28,38.11l81.53,90.19a15.61,15.61,0,0,0,11.5,5.13l113.2.37,38.73,3.09v-24.79Z"/><path class="cls-13" d="M875.39,1252.89s-42.28-43.35-53.15-62.18,7.4-6.58,26.08-11.53c7.08-1.88,5.29-43.33,18.66-29.86,21.94,22.11,49.52,60.76,49.52,60.76Z"/><path class="cls-14" d="M815.28,1130.31s-37.94-7.49-55.25,7,3.71,143.07,3.69,164.39-11.88,81.55-11.88,81.55,115,20.13,133.25-11.88c0,0,5.2-121.93,4.42-137.26s-17.82-78-22.53-84.76S815.28,1130.31,815.28,1130.31Z"/><path class="cls-7" d="M815.05,1071.62s-.2,1.14-.56,3.07c-1.72,9.26-8.35,40-12.83,48.42-5.41,10.21,18.52,42.76,41.56,38.78,6.85-1.18-5.8-29.9-5.19-33l4.36-21.91c.91-4.6,1.83-9.26,2.7-13.64l4.47-22.63Z"/><path class="cls-9" d="M814.49,1074.69c.36-1.93.56-3.07.56-3.07l34.51-.86-4.47,22.63c-.87,4.36-1.78,9-2.69,13.56-5.33-.78-10.9-3.37-16.48-8.24a43.56,43.56,0,0,1-12.48-18.53C813.87,1078,814.22,1076.12,814.49,1074.69Z"/><path class="cls-7" d="M838.27,993.33s-16.26-1.87-26.46,11.29-21.19,53.86,4.14,76,50.36-2.92,54.07-29.48S875.18,992.37,838.27,993.33Z"/><path class="cls-7" d="M877.52,1050.74c-3,5.87-8.1,9.11-11.34,7.26s-3.41-8.13-.38-14,8.09-9.12,11.33-7.26S880.54,1044.87,877.52,1050.74Z"/><path class="cls-11" d="M840.09,989s-21.73,38.71-37.28,40.49-17.58,22.36-17.58,22.36,5.55-47.39,20.95-56.53S840.09,989,840.09,989Z"/><path class="cls-7" d="M806.89,1039.2c1.27,6.87-1.28,13.18-5.68,14.08s-9-3.94-10.26-10.81,1.28-13.18,5.68-14.08S805.63,1032.33,806.89,1039.2Z"/><path class="cls-7" d="M984.55,1274.9l-106.8-23.63s-38.63-49.62-75.72-92.34c-10.92,10.81-17,27.41-28,38.11l81.54,90.19a15.61,15.61,0,0,0,11.5,5.13l113.19.37,38.74,3.09V1271Z"/><path class="cls-13" d="M807.22,1248.76s-42.28-43.35-53.16-62.18-2.81-50.39,15.87-55.34S848.32,1206,848.32,1206Z"/><path class="cls-10" d="M1204,1153.33H1027.82a11.5,11.5,0,0,0-10.63,7.13L963,1292.73H865.85a4.92,4.92,0,0,0-4.92,4.92h0a4.91,4.91,0,0,0,4.92,4.91h276.37a19.29,19.29,0,0,0,17.6-11.39l54.61-121.65A11.49,11.49,0,0,0,1204,1153.33Z"/><path class="cls-15" d="M1109.12,1230.35c-1.19,6-6.37,9.92-11.57,8.88s-8.46-6.7-7.27-12.64,6.37-9.92,11.57-8.88S1110.31,1224.41,1109.12,1230.35Z"/><path class="cls-15" d="M848.06,1066l-23.86-1.24s.08,9.09,10.56,9.94C847.54,1075.72,848.06,1066,848.06,1066Z"/><path class="cls-16" d="M922.72,1502.68,912,1457.82a72.78,72.78,0,0,0-67.57-55.51l-136.5-5.52-4.21-13.89,141.26,5.71a86.54,86.54,0,0,1,80.35,66l11.45,47.67C932.86,1502.45,928.13,1502.58,922.72,1502.68Z"/><path class="cls-8" d="M739.63,1478.78s187.54,3.21,207.09,0,28,21.31,22.18,34.15-21.89,17.8-45.52,19-220.32,6.71-225.86,1.46c-4.53-4.29-64.16-208.13-85.85-282.67a28.12,28.12,0,0,1,19.1-34.84h0a28.15,28.15,0,0,1,34.86,18.84Z"/><path class="cls-11" d="M846.27,1332.09h750.41a14.76,14.76,0,0,0,14.76-14.77h0a14.76,14.76,0,0,0-14.76-14.76H846.27a14.76,14.76,0,0,0-14.77,14.76h0A14.77,14.77,0,0,0,846.27,1332.09Z"/><polygon class="cls-11" points="1018.97 1785.36 1039.98 1785.36 994.7 1332.09 973.68 1332.09 1018.97 1785.36"/><polygon class="cls-11" points="840.38 1785.36 819.37 1785.36 864.65 1332.09 885.67 1332.09 840.38 1785.36"/><polygon class="cls-11" points="1590.42 1785.36 1611.44 1785.36 1566.16 1332.09 1545.14 1332.09 1590.42 1785.36"/><polygon class="cls-11" points="1411.84 1785.36 1390.82 1785.36 1436.11 1332.09 1457.13 1332.09 1411.84 1785.36"/><path class="cls-4" d="M2226.7,1789.59H192a4.19,4.19,0,0,1-4.18-4.19h0a4.19,4.19,0,0,1,4.18-4.19H2226.7a4.19,4.19,0,0,1,4.18,4.19h0A4.19,4.19,0,0,1,2226.7,1789.59Z"/><path class="cls-4" d="M1945.6,1486.47c-1.55-13.7-3.4-27.71-9.76-39.94-7.73-14.87-21.32-25.6-33.18-37.42a207.63,207.63,0,0,1-49.5-78.88c-7.92-22.89-11.86-47.27-22.78-68.89-6.67-13.2-15.76-25-23.33-37.69-17.89-30-27.63-65.49-51.9-90.61a108.9,108.9,0,0,0,24.6,86.15c6,7,12.91,13.26,17.46,21.23,8.27,14.49,7.51,32.15,8.48,48.81a214.25,214.25,0,0,0,25.63,89.69c15.92,29.23,38.9,55.27,47.41,87.46,6.38,24.12,4.49,51.19,18.08,72.1,1.48,2.26,3.16,4.54,3.53,7.22a16.07,16.07,0,0,1-.27,4.53q-.46,2.91-.91,5.83c-3.1,19.74-6.3,44.87,10.67,59.64,11.76,10.25,26.89,10.47,35.34-3.13s7.75-33.75,7.12-49.16C1951.24,1537.74,1948.49,1512,1945.6,1486.47Z"/><path class="cls-17" d="M1976.16,1470.59c-6.6-22.85-16.85-44.62-22-67.86-5-22.53-5-45.83-5-68.91q0-37.93-.05-75.87c0-15.74,0-31.57-2.63-47.1-5.6-33.41-23-64.31-25.9-98.06-1.28-14.59.2-29.34-1.4-43.9a69.17,69.17,0,0,0-6.91-24.19,10.77,10.77,0,0,0-19.33.54c-8.44,18.28-13.78,38-10.38,57.61,2,11.74,7.13,22.7,10.93,34,16.92,50.32,7.94,106,21,157.45,4,15.53,9.93,30.76,10.62,46.77,1.66,38.32-26.95,73.32-24.33,111.59,2.15,31.37,24.71,57.33,34.18,87.31,5.3,16.79,6.43,34.7,12.11,51.36,4.41,12.94,14.67,28.66,30.6,24.73,15.13-3.73,10.56-16.08,9.88-27.87C1985.27,1548.28,1987.42,1509.57,1976.16,1470.59Z"/><path class="cls-4" d="M2010.79,1491.54c-.67-11.88-2.67-23.82-1-35.6,1.4-10,5.36-19.32,8.19-29,5.3-18.06,6.61-37,7.89-55.8q3.5-51.21,7-102.42c3.63-53.07,7.27-106.29,17.19-158.55,2.76-14.5,5.85-30.22-.67-43.47-1.37-2.79-4.08-5.75-7-4.82-2.12.66-3.15,3-3.92,5.07-21.69,58.94-29.89,122.4-54.1,180.35-5.8,13.89-12.54,27.55-15.54,42.29-3.61,17.71-1.63,36-1.16,54.06.66,25.91-1.86,52-9,76.93-3.75,13-8.76,25.77-10.81,39.17-2.56,16.71-.41,33.74,1.19,50.57a776.33,776.33,0,0,1,3.12,97.41c-.59,19.1,15.54,18.6,26.22,6.86,7.47-8.21,7.4-17.21,10-27.43C1996.69,1553.66,2012.82,1527.9,2010.79,1491.54Z"/><path class="cls-17" d="M1910,1543.33c-14.25-22.91-42.66-35.93-51.77-61.34-2.32-6.46-3.23-13.42-6.06-19.68-6.29-13.89-20.6-21.75-34.66-28.14a3,3,0,0,0-4.2,2.68h0a10.15,10.15,0,0,0,4.4,8.58,57,57,0,0,1,22.73,31c4.35,14.89,2.46,31.21,7.86,45.75,4.53,12.21,13.87,22.19,18.25,34.45,4,11.21,3.59,23.45,5.47,35.21s7.11,24.23,17.9,29.2C1929,1639.05,1919.26,1558.14,1910,1543.33Z"/><path class="cls-4" d="M2072.49,1535.77c-.61,11.08,1.08,22.69-3.25,32.9-2.77,6.53-7.76,11.81-11.86,17.6-14.37,20.34-19.59,49.15-41.68,60.6A7.54,7.54,0,0,1,2011,1648c-2.27-.42-3.75-2.6-4.66-4.72-5.42-12.62.66-26.84,4.26-40.09.63-2.32,1.16-4.91.05-7-1.22-2.34-4-3.36-5.88-5.2-3.78-3.67-3.42-9.75-2.67-15a337.24,337.24,0,0,1,7.88-38.68c1.91-7.22,4.12-14.5,8.28-20.7,4.58-6.82,11.23-11.91,17.45-17.27a206.78,206.78,0,0,0,60.38-89.12c2.55-7.43,4.83-15.29,10.1-21.11s14.67-8.82,21.1-4.3c4.57,3.21-14.15,33.32-16.33,36.93-6.24,10.32-6.32,19.3-9.85,30.76C2092.48,1480.56,2074.14,1505.69,2072.49,1535.77Z"/><path class="cls-17" d="M2050.72,1548.58c4.08-10.56,8.2-21.27,9.55-32.52,1.5-12.51-.49-25.3,1.65-37.71,2.74-16,12-30,16.65-45.52,3.33-11.21,4.15-23,6.15-34.51,5.71-33,21.2-65.15,16.75-98.29-1-7.21-4.22-15.62-11.37-16.85-6.48-1.11-12.38,4.81-14.06,11.18s-.43,13.08,0,19.64a81.1,81.1,0,0,1-14.52,52c-10.18,14.4-24.94,25.24-34.1,40.31-11.23,18.49-12.76,41.06-18.49,61.92-11.4,41.5-40,77.7-45.2,120.42-2.08,17,1.91,37.66,17.6,44.46C2026.74,1652.77,2040.44,1575.17,2050.72,1548.58Z"/><path class="cls-5" d="M1971.39,1601.25H1867.26a11,11,0,0,0-10.73,13.6l38,160.08a11,11,0,0,0,10.73,8.49h125.09a11,11,0,0,0,10.73-8.49l38-160.08a11,11,0,0,0-10.73-13.6Z"/><rect class="cls-5" x="1197.58" y="345.51" width="3.06" height="322.35" transform="translate(544.37 1631.81) rotate(-82.71)"/><polygon class="cls-5" points="1041.72 520.1 1043.18 517.41 599.88 278.72 777.08 234.64 776.34 231.67 591.45 277.65 1041.72 520.1"/><rect class="cls-5" x="604.52" y="394.04" width="3.07" height="611.89" transform="translate(-250.41 1051.77) rotate(-71.44)"/><polygon class="cls-5" points="2014.76 811.82 2016.95 809.67 1728.36 514.67 1728.09 514.55 1234.64 301.59 1064.36 276.67 1063.92 279.7 1233.99 304.59 1726.6 517.24 2014.76 811.82"/><polygon class="cls-5" points="1095.07 881.91 1117.08 723.68 1115.96 723.25 864.97 624.74 640.85 529.16 639.64 531.97 863.81 627.56 1113.71 725.66 1092.04 881.49 1095.07 881.91"/><polygon class="cls-5" points="1078.12 883.06 1079.54 880.35 878.56 775.29 878.56 612.53 672.83 786.16 309.28 607.67 682.59 505.62 682.88 504.94 795.81 249.38 1058.9 279.53 1033.83 486.12 1036.87 486.49 1062.31 276.84 1060.78 276.67 793.92 246.07 793.46 247.11 680.37 503.04 300.66 606.86 673.28 789.8 674.04 789.15 875.5 619.13 875.5 777.15 1078.12 883.06"/><polygon class="cls-5" points="1712.47 534.96 1712.54 531.9 1370.64 524.93 1467.79 236.93 1464.89 235.95 1366.41 527.91 1712.47 534.96"/><polygon class="cls-5" points="2147.02 720.39 2148.5 717.7 1760.9 505.34 1509.18 278.59 1507.13 280.87 1759.14 507.82 2147.02 720.39"/><rect class="cls-5" x="1917.96" y="704.36" width="3.07" height="205.3" transform="translate(506.21 2336.19) rotate(-70.06)"/><rect class="cls-5" x="1634.79" y="791.1" width="191.37" height="3.07" transform="translate(-144.8 466.8) rotate(-14.75)"/><rect class="cls-5" x="1412.5" y="822.19" width="215.38" height="3.06" transform="translate(-53.89 108.35) rotate(-4.01)"/><polygon class="cls-5" points="1214.97 598.31 1215.45 598.27 1683.89 560.32 1683.64 557.26 1215.69 595.18 1072.11 509.92 1070.55 512.55 1214.97 598.31"/><polygon class="cls-5" points="1320.67 800.25 1323.37 798.8 1215.53 599.6 1121.74 726.94 1124.2 728.75 1215.13 605.31 1320.67 800.25"/><polygon class="cls-5" points="1040.32 500.46 1226.21 311.18 1483.2 237.91 1482.37 234.97 1224.59 308.45 1224.31 308.74 1038.13 498.32 1040.32 500.46"/><rect class="cls-5" x="513.88" y="391.49" width="3.06" height="190.23" transform="translate(-62.96 896.38) rotate(-78.67)"/><polygon class="cls-5" points="464.86 844.11 465.92 841.24 299.83 779.75 299.83 591.69 434.81 486.88 434.51 485.88 378.2 295.04 375.26 295.9 431.28 485.74 296.77 590.2 296.77 781.88 464.86 844.11"/><rect class="cls-5" x="275.46" y="668.12" width="384.41" height="3.07" transform="translate(-284.73 351.77) rotate(-32.17)"/><rect class="cls-5" x="1581.75" y="180.89" width="3.06" height="209.83" transform="translate(854.18 1719.98) rotate(-73.29)"/><rect class="cls-5" x="1232.54" y="674.14" width="282.18" height="3.06" transform="translate(648.7 2023.95) rotate(-87.93)"/><polygon class="cls-5" points="888.04 813.1 1010.11 464.65 1007.22 463.63 885.15 812.09 888.04 813.1"/><rect class="cls-5" x="522.74" y="225.58" width="3.07" height="349.91" transform="translate(-125.16 516.88) rotate(-47.54)"/><path class="cls-5" d="M294.33,606.47v177.1l172,63.68,2.77-7.45L302.27,778.05v-5.77l2.75,4.36L452.29,684,673.64,792.69l2-1.68,53.75-45.36,157.87,53.09L882,813.58l7.49,2.63,5.24-14.94,2.31.78,2.53-7.53-2.22-.74.72-2.06,181,94.63,3.68-7L900.77,784.15l42.94-122.6L1111,727.22l-21.74,156.36,7.86,1.08L1119,727.91l5.77,4.25,90.1-122.31,104.87,193.71,7-3.78L1218.76,600.45,1372.83,588l-8.36,231,7.93.28,8.4-231.92,305.72-24.77-.64-7.91-304.79,24.69,1.7-47-7.94-.28L1373.12,580l-156.85,12.7-145-86.1-4,6.82,145.25,86.26L1119.18,726.3l.58-4.19-2.92-1.14-170.5-66.92,53.8-153.57,42.57,22.92,3.77-7L1002.8,492.9l10.41-29.74-7.49-2.64-10,28.57L750.82,357.22,797.31,252l258.88,29.67-25.08,206.58,5.33.65-.14,1,5.91.75-7.53,7.66,5.67,5.56,11.74-12,308.82,39.35,1-7.87-302.83-38.59,168.42-171.5,12.42-3.54,172.38,74.42L1363,530.28l351.83,7.17.15-7.94-341-7,45.6-135.19,305.57,131.92,25.7,26.27L1640.45,789.74l-97-174L1382.07,837.34l6.67,4.31L1542.4,631.9l98.28,176.59,116.17-256.84,257.87,263.61,5.68-5.55L1760.35,543.89l4.44-9.81-7.24-3.25-3.15,7-24.63-25.17L1422.15,379.86l45.53-135,18.53-5.28L1484,232l-13.28,3.79.12-.34-7.52-2.54-1.87,5.52-221.11,63-5.07-2.19-173-25.31-.07.47-1.17-.14L792.41,243.45l-1.18,2.68L743.81,353.45,606.59,279.56,780,236.42l-1.92-7.7L584.74,276.81l155.85,83.92L678.61,501l-29.78,8.14L396.09,277.85l-5.37,5.86,249,227.91L319.1,599.29,315,597.91l-.92,2.74-11.83,3.24v-11l135.35-105.1-.77-2.6-3.22-10.9,176.66,35.36,1.55-7.78L431.09,465.68,379.85,292l-7.62,2.23L422.3,463.92l-1.77-.36L419,471.35l5.86,1.17,3.64,12.31L294.33,589v17.06l-.53.15ZM1251.9,306.39l206.51-58.88L1414.84,376.7Zm-187.78-24.2,161,23.57-1.85.52-.74.76L1049.19,483.58l-9.37-1.2ZM318.85,607.58l156.42,52.61-23.46,14.75L316.14,608.32Zm620.09,43.57L881,628.41V607.29l-17,14.37L639.56,526l-3.12,7.3,220.74,94.13L727.67,736.69,493.67,658l140.88-88.61-4.23-6.72L484,654.73,332.59,603.82,646.7,518l5.76,5.28,5.36-5.86-2.07-1.89,28.6-7.82.76-1.74L747.6,364.5,993.06,496.67Zm-65.88-26.78v.92l-.74-.29Zm20.59,156.06L881,773.81V636.93l55.32,21.71ZM736.47,739.66,865.42,630.82l7.64,3V778.62L891,788l-1.13,3.25ZM460.19,679.05,485,663.46l235.58,79.23-48.09,40.58ZM302.27,610.37l141.64,69.54L302.27,769Z"/><polygon class="cls-5" points="2138.89 718.72 1780.06 522.07 1745.89 522.66 1745.75 514.73 1766.02 514.37 1757.72 509.82 1748.49 501.51 1741.89 519.33 1734.44 516.58 1742.14 495.8 1503.68 281.04 1509 275.15 1745.1 487.82 1834.91 245.39 1842.35 248.15 1751.44 493.54 1762.32 503.34 1781.95 514.09 2086.71 530.08 2086.85 538.02 1796 521.79 2136.9 708.57 2077.86 534.81 2085.65 533.29 2145.96 713.53 2151.8 716.73 2147.99 723.7 2147.95 723.68 2152.17 745.15 2042.43 815.83 2038.13 809.15 2143.35 741.39 2138.89 718.72"/><polygon class="cls-5" points="1825.64 768.72 2019.63 839.15 2016.92 846.62 1819.36 774.88 1819.98 773.17 1636.59 821.46 1634.58 813.78 1824.35 763.81 1825.64 768.72"/><rect class="cls-5" x="1410.06" y="819.75" width="220.26" height="7.93" transform="matrix(1, -0.07, 0.07, 1, -53.89, 108.35)"/><rect class="cls-5" x="1579.31" y="178.45" width="7.94" height="214.7" transform="translate(854.75 1720.27) rotate(-73.31)"/><rect class="cls-5" x="1646.24" y="380.83" width="284.32" height="3.06" transform="translate(808.59 1926.56) rotate(-69.67)"/><circle class="cls-15" cx="785.53" cy="253.92" r="78.88" transform="translate(156.55 788.64) rotate(-58.28)"/><circle class="cls-15" cx="474.45" cy="831.26" r="79.86" transform="translate(-422.07 1166.43) rotate(-80.78)"/><path class="cls-15" d="M1427,526.42a58.49,58.49,0,1,1-58.48-58.49A58.49,58.49,0,0,1,1427,526.42Z"/><circle class="cls-15" cx="1748.26" cy="518.65" r="109.43" transform="translate(-67.77 352.94) rotate(-11.31)"/><circle class="cls-15" cx="1234.42" cy="303.1" r="51.28" transform="translate(-30.74 425.69) rotate(-19.33)"/><circle class="cls-15" cx="1827.81" cy="272.7" r="74.5" transform="translate(1376.32 2064.75) rotate(-84.34)"/><circle class="cls-15" cx="403.63" cy="307.08" r="66.17"/><circle class="cls-15" cx="1047.65" cy="494.73" r="97.04" transform="translate(420.99 1469.21) rotate(-82.53)"/><circle class="cls-15" cx="298.3" cy="596.74" r="90.55" transform="translate(-351.01 749.97) rotate(-76.72)"/><path class="cls-15" d="M2145.3,538.68a64.18,64.18,0,1,1-64.17-64.18A64.18,64.18,0,0,1,2145.3,538.68Z"/><circle class="cls-15" cx="1122.97" cy="727.85" r="44.14" transform="translate(156.59 1653.55) rotate(-76.72)"/><path class="cls-15" d="M1696.41,799.11a55.85,55.85,0,1,1-55.85-55.84A55.84,55.84,0,0,1,1696.41,799.11Z"/><circle class="cls-15" cx="1482.78" cy="248.77" r="89.54" transform="matrix(0.22, -0.98, 0.98, 0.22, 913.34, 1640.27)"/><g class="cls-18"><path class="cls-11" d="M1524,233.08c.5-12-1.27-23.88-6.64-35.07-4.63-9.62-16.07-15.08-26.51-15.1-33.14,0-37.35,43.75-58.45,60.64-6.45,5.16-13.65,9.36-19.75,14.93-22.53,20.55-12.38,58.6,8.3,76.61,14.35,12.51,36.91,19.61,54.6,9.84,9.23-5.11,16.24-13.59,21.23-22.88,7.09-13.19,11.66-28.4,16.7-42.46C1518.82,264.63,1523.31,249.05,1524,233.08Z"/><path class="cls-13" d="M1511.58,343.68s-24.75-25.38-31.12-36.41,4.34-3.84,15.27-6.74c4.15-1.1,3.1-25.37,10.93-17.48,12.84,12.94,29,35.57,29,35.57Z"/><path class="cls-14" d="M1476.39,271.91s-22.21-4.38-32.35,4.09,2.17,83.76,2.16,96.24-7,45.08-7,45.08,67.33,14.45,78-4.28c0,0,3-71.39,2.59-80.37s-10.43-45.69-13.19-49.62S1476.39,271.91,1476.39,271.91Z"/><path class="cls-7" d="M1476.25,237.55s-.12.67-.33,1.8c-1,5.42-4.88,23.4-7.5,28.35-3.17,6,10.84,25,24.32,22.71,4-.7-3.39-17.51-3-19.3.68-3.41,1.6-8.06,2.55-12.83.53-2.69,1.07-5.42,1.58-8l2.62-13.25Z"/><path class="cls-9" d="M1475.92,239.35c.21-1.13.33-1.8.33-1.8l20.21-.5-2.62,13.25c-.51,2.55-1,5.26-1.57,7.94a18.93,18.93,0,0,1-9.65-4.83,25.43,25.43,0,0,1-7.31-10.85C1475.56,241.29,1475.77,240.19,1475.92,239.35Z"/><path class="cls-7" d="M1489.85,191.72s-9.52-1.1-15.49,6.6-12.41,31.54,2.42,44.5,29.49-1.71,31.66-17.26S1511.46,191.15,1489.85,191.72Z"/><path class="cls-11" d="M1504.7,187.8s-18.57,26.61-36.24,23l-.5-11.35,1.63-4.3,9-5.75,14.56-3.32Z"/><path class="cls-7" d="M1512.83,225.33c-1.77,3.43-4.74,5.33-6.64,4.25s-2-4.76-.23-8.19,4.75-5.34,6.64-4.25S1514.6,221.89,1512.83,225.33Z"/><path class="cls-7" d="M1471.48,218.57c.74,4-.75,7.72-3.33,8.24s-5.26-2.3-6-6.33.75-7.71,3.33-8.24S1470.74,214.55,1471.48,218.57Z"/><path class="cls-15" d="M1495.58,234.25l-14-.72s.05,5.32,6.18,5.82C1495.27,240,1495.58,234.25,1495.58,234.25Z"/><path class="cls-15" d="M1495.58,234.25l-14-.72s.05,5.32,6.18,5.82C1495.27,240,1495.58,234.25,1495.58,234.25Z"/><path class="cls-13" d="M1452.41,342.79s-14.57-32.31-16.79-44.85,8.55-28.28,19.82-27.27,28.16,56.81,28.16,56.81Z"/></g><circle class="cls-15" cx="653.34" cy="518.65" r="102.09" transform="translate(-1.55 1035.35) rotate(-76.72)"/><path class="cls-15" d="M940.4,783.1a55.25,55.25,0,1,1-55.25-55.25A55.25,55.25,0,0,1,940.4,783.1Z"/><circle class="cls-15" cx="1368.53" cy="807.7" r="107.81" transform="translate(-38.54 69.17) rotate(-2.86)"/><path class="cls-15" d="M2087.09,802.21a70.29,70.29,0,1,1-70.29-70.28A70.29,70.29,0,0,1,2087.09,802.21Z"/><path class="cls-15" d="M1513.49,628.08a29.42,29.42,0,1,0,29.42-29.41A29.42,29.42,0,0,0,1513.49,628.08Z"/><path class="cls-15" d="M1666.26,315.94a17.51,17.51,0,1,0,17.51-17.5A17.5,17.5,0,0,0,1666.26,315.94Z"/><circle class="cls-15" cx="1823" cy="771.99" r="25.24" transform="translate(412.15 2160.79) rotate(-67.5)"/><path class="cls-15" d="M1039.22,278.19a24.92,24.92,0,1,0,24.92-24.92A24.92,24.92,0,0,0,1039.22,278.19Z"/><circle class="cls-15" cx="595.67" cy="278.19" r="24.12" transform="translate(-22.24 502.68) rotate(-45)"/><path class="cls-15" d="M850,626.16a29.41,29.41,0,1,0,29.41-29.41A29.41,29.41,0,0,0,850,626.16Z"/><path class="cls-15" d="M1064.14,881.7a29.42,29.42,0,1,0,29.42-29.41A29.42,29.42,0,0,0,1064.14,881.7Z"/><path class="cls-15" d="M1196.24,596.75a19.09,19.09,0,1,0,19.09-19.09A19.09,19.09,0,0,0,1196.24,596.75Z"/><path class="cls-15" d="M653.34,788a19.72,19.72,0,1,0,19.72-19.71A19.72,19.72,0,0,0,653.34,788Z"/><circle class="cls-15" cx="298.3" cy="780.81" r="29.41" transform="translate(-54.6 23.11) rotate(-4.07)"/><path class="cls-15" d="M403.63,467.93A29.41,29.41,0,1,0,433,438.52,29.42,29.42,0,0,0,403.63,467.93Z"/><path class="cls-15" d="M2118.35,727.85a29.41,29.41,0,1,0,29.41-29.42A29.41,29.41,0,0,0,2118.35,727.85Z"/><g class="cls-19"><path class="cls-11" d="M1023.63,432c24.63-13.08,53.33-1.36,55.48,33s-22.1,46.47-45.38,44.2S987.55,446.45,1023.63,432Z"/><path class="cls-11" d="M1038.49,523.33a24.5,24.5,0,1,0,24.5-24.5A24.5,24.5,0,0,0,1038.49,523.33Z"/><path class="cls-20" d="M1010.41,537.39l-83.66-2.88s-65.21-20.37-67.22-20.94-12-26.66-14.66-24.43,5.78,13.07,2.38,15-35.23-8.48-35.17-5.9c.1,4.84,19.23,7.16,18.87,9.43s-19.73-4.34-21.65-.77,18.92,4.48,19.48,6.29-19.72,1.85-18.22,5.67c.81,2.08,18.05-.48,17.58,2.1s-13.38,6.65-12.21,8.95S826.31,525,833.3,526s12.55-2.06,23.2,2.84,46.2,26.68,70.12,29.15,76.76,8.1,76.76,8.1Z"/><path class="cls-21" d="M1026.34,533.57c45.81,2.13,5.53,40.5,5.53,40.5l-67.69-9.61c-2-13.5,1.43-29.61,1.6-33.2C979.84,530.39,1015.05,533,1026.34,533.57Z"/><path class="cls-9" d="M1061.75,526.24s19.69-.35,30.16,11.08-16.45,100.54-18.35,115.09,9.7,53.24,9.7,53.24-62.15,12.54-79.91.76c0,0-1.9-104.64,0-115s17.76-52.67,21.57-56.83S1061.75,526.24,1061.75,526.24Z"/><path class="cls-7" d="M1053,490.81s.13.78.38,2.11c1.18,6.37,5.72,27.52,8.79,33.33,3.71,7-12.7,29.44-28.48,26.7-4.7-.81,4-20.59,3.55-22.68-.8-4-1.88-9.48-3-15.09-.63-3.16-1.26-6.37-1.86-9.39-1.68-8.57-3.06-15.57-3.06-15.57Z"/><path class="cls-9" d="M1053.33,492.92c-.25-1.33-.38-2.11-.38-2.11l-23.66-.59s1.38,7,3.06,15.57c.6,3,1.22,6.19,1.85,9.34a22.14,22.14,0,0,0,11.29-5.68,30,30,0,0,0,8.56-12.75C1053.76,495.2,1053.51,493.91,1053.33,492.92Z"/><path class="cls-7" d="M1037,436.91s11.15-1.29,18.14,7.77,14.53,37.08-2.84,52.32-34.52-2-37.06-20.3S1011.73,436.25,1037,436.91Z"/><path class="cls-7" d="M1010.12,476.43c2.08,4,5.56,6.28,7.77,5s2.34-5.6.27-9.63-5.55-6.28-7.77-5S1008.05,472.39,1010.12,476.43Z"/><path class="cls-11" d="M1035.78,433.91s14.89,26.65,25.55,27.88,12.06,15.39,12.06,15.39-3.81-32.62-14.36-38.91S1035.78,433.91,1035.78,433.91Z"/><path class="cls-7" d="M1058.54,468.49c-.87,4.73.87,9.07,3.89,9.69s6.17-2.71,7-7.44-.87-9.08-3.89-9.7S1059.4,463.76,1058.54,468.49Z"/><path class="cls-21" d="M1035.34,616.56s48.1-24.65,58.7-37.78,8.28-38.29-5.39-44.33-69.24,49.62-69.24,49.62Z"/></g><g class="cls-22"><path class="cls-11" d="M1251.22,271.06c-13.29-7.06-28.78-.73-29.94,17.81s11.93,25.07,24.49,23.84S1270.68,278.84,1251.22,271.06Z"/><path class="cls-11" d="M1229.29,301.39a6.32,6.32,0,1,1-6.32-6.32A6.32,6.32,0,0,1,1229.29,301.39Z"/><path class="cls-11" d="M1235.6,307.36a6.32,6.32,0,1,1-6.31-6.31A6.32,6.32,0,0,1,1235.6,307.36Z"/><path class="cls-11" d="M1243.89,311.9a6.32,6.32,0,1,1-6.32-6.32A6.32,6.32,0,0,1,1243.89,311.9Z"/><path class="cls-11" d="M1226.52,291a6.32,6.32,0,1,1-6.31-6.32A6.3,6.3,0,0,1,1226.52,291Z"/><path class="cls-11" d="M1228.69,280.13a6.32,6.32,0,1,1-6.31-6.32A6.31,6.31,0,0,1,1228.69,280.13Z"/><path class="cls-11" d="M1236,273.23a6.32,6.32,0,1,1-6.31-6.32A6.32,6.32,0,0,1,1236,273.23Z"/><path class="cls-11" d="M1245.66,270.36a6.32,6.32,0,1,1-6.32-6.32A6.31,6.31,0,0,1,1245.66,270.36Z"/><path class="cls-11" d="M1255.72,271.15a6.32,6.32,0,1,1-6.32-6.32A6.32,6.32,0,0,1,1255.72,271.15Z"/><path class="cls-11" d="M1263.21,279a6.32,6.32,0,1,1-6.32-6.32A6.32,6.32,0,0,1,1263.21,279Z"/><path class="cls-11" d="M1263,299.16a6.32,6.32,0,1,1-6.31-6.32A6.31,6.31,0,0,1,1263,299.16Z"/><path class="cls-11" d="M1256.7,308.62a6.32,6.32,0,1,1-6.31-6.31A6.32,6.32,0,0,1,1256.7,308.62Z"/><path class="cls-11" d="M1265.58,288.5a6.32,6.32,0,1,1-6.32-6.31A6.32,6.32,0,0,1,1265.58,288.5Z"/><path class="cls-11" d="M1248,311a6.32,6.32,0,1,1-6.31-6.32A6.32,6.32,0,0,1,1248,311Z"/><path class="cls-20" d="M1258.35,327.91l45.14-1.56s35.18-11,36.27-11.29,6.48-14.39,7.91-13.19-3.12,7.05-1.28,8.11,19-4.58,19-3.18c0,2.6-10.38,3.86-10.18,5.08s10.65-2.34,11.68-.41-10.21,2.41-10.51,3.39,10.64,1,9.83,3.06c-.44,1.12-9.74-.26-9.48,1.13s7.21,3.59,6.58,4.83-5.6-2.64-9.37-2.12-6.77-1.11-12.52,1.53-24.92,14.39-37.83,15.73-41.42,4.36-41.42,4.36Z"/><path class="cls-21" d="M1249.76,325.85c-24.72,1.15-3,21.85-3,21.85l36.53-5.19c1.1-7.28-.78-16-.87-17.91C1274.85,324.13,1255.85,325.56,1249.76,325.85Z"/><path class="cls-9" d="M1230.65,321.89s-10.62-.19-16.27,6,8.87,54.25,9.9,62.1-5.23,28.72-5.23,28.72,33.53,6.77,43.11.41c0,0,1-56.46,0-62.07s-9.58-28.41-11.64-30.65S1230.65,321.89,1230.65,321.89Z"/><path class="cls-23" d="M1235.4,302.77s-.07.42-.21,1.14c-.63,3.44-3.08,14.85-4.74,18-2,3.79,6.85,15.88,15.37,14.4,2.53-.44-2.14-11.11-1.92-12.24.43-2.16,1-5.11,1.61-8.14.34-1.7.68-3.44,1-5.06l1.65-8.41Z"/><path class="cls-24" d="M1235.19,303.91c.14-.72.21-1.14.21-1.14l12.76-.32-1.65,8.41c-.32,1.62-.66,3.34-1,5a12,12,0,0,1-6.1-3.06,16.12,16.12,0,0,1-4.61-6.88Z"/><path class="cls-23" d="M1244,273.69a11.52,11.52,0,0,0-9.79,4.19c-3.77,4.89-7.83,20,1.54,28.23s18.62-1.08,20-10.95S1257.64,273.34,1244,273.69Z"/><path class="cls-23" d="M1258.51,295c-1.12,2.17-3,3.38-4.2,2.69s-1.26-3-.14-5.19,3-3.39,4.19-2.7S1259.62,292.84,1258.51,295Z"/><path class="cls-11" d="M1244.66,272.08s-8,14.37-13.78,15-6.51,8.3-6.51,8.3,2.06-17.6,7.75-21S1244.66,272.08,1244.66,272.08Z"/><path class="cls-23" d="M1232.38,290.73c.47,2.55-.47,4.89-2.1,5.23s-3.32-1.46-3.79-4,.47-4.89,2.1-5.23S1231.92,288.18,1232.38,290.73Z"/><path class="cls-21" d="M1244.9,370.62s-26-13.29-31.67-20.38-4.47-20.66,2.9-23.92,37.36,26.77,37.36,26.77Z"/></g><g class="cls-25"><path class="cls-9" d="M1782.27,458.74c-20.71-10.95-51.8-5.23-59.87,35.61-4.81,24.33-16.78,49.9-16.78,49.9,31.36,14,65.09,14.59,92.14,9.87C1797.76,554.12,1821.21,474.3,1782.27,458.74Z"/><path class="cls-20" d="M1796.54,572.44l90.29-3.11s70.37-22,72.55-22.6,13-28.77,15.81-26.36-6.23,14.1-2.56,16.21,38-9.16,37.95-6.37c-.11,5.22-20.75,7.73-20.36,10.18s21.3-4.68,23.36-.83-20.42,4.83-21,6.79,21.3,2,19.67,6.11c-.87,2.24-19.47-.52-19,2.27s14.44,7.18,13.18,9.66-11.21-5.29-18.75-4.25-13.54-2.22-25,3.06S1912.79,592,1887,594.66s-82.84,8.74-82.84,8.74Z"/><path class="cls-26" d="M1779.35,568.32c-49.44,2.3-6,43.7-6,43.7l73.06-10.37c2.2-14.56-1.55-31.95-1.74-35.83C1829.54,564.88,1791.53,567.75,1779.35,568.32Z"/><path class="cls-5" d="M1741.13,560.4s-21.24-.37-32.54,12,17.75,108.51,19.81,124.21S1717.93,754,1717.93,754s67.07,13.53,86.23.82c0,0,2.06-112.93,0-124.15s-19.16-56.84-23.27-61.32S1741.13,560.4,1741.13,560.4Z"/><path class="cls-7" d="M1750.64,522.17s-.15.84-.42,2.27c-1.27,6.88-6.17,29.71-9.48,36-4,7.58,13.7,31.76,30.74,28.81,5.07-.88-4.29-22.22-3.84-24.48.86-4.32,2-10.23,3.22-16.28.68-3.41,1.36-6.88,2-10.13l3.31-16.81Z"/><path class="cls-27" d="M1750.22,524.44c.27-1.43.42-2.27.42-2.27l25.53-.64-3.31,16.81-2,10.07c-3.94-.58-8.06-2.5-12.19-6.12a32.29,32.29,0,0,1-9.23-13.77C1749.76,526.9,1750,525.51,1750.22,524.44Z"/><path class="cls-7" d="M1767.82,464s-12-1.39-19.58,8.39-15.67,40,3.07,56.46,37.25-2.17,40-21.91S1795.12,463.29,1767.82,464Z"/><path class="cls-7" d="M1796.85,506.65c-2.24,4.36-6,6.77-8.38,5.39s-2.53-6-.29-10.39,6-6.77,8.39-5.39S1799.09,502.29,1796.85,506.65Z"/><path class="cls-9" d="M1769.17,460.77s-16.08,28.75-27.58,30.08-13,16.61-13,16.61,4.11-35.21,15.5-42S1769.17,460.77,1769.17,460.77Z"/><path class="cls-7" d="M1744.6,498.08c.94,5.11-.94,9.79-4.2,10.46s-6.65-2.93-7.59-8,1-9.79,4.21-10.46S1743.67,493,1744.6,498.08Z"/><path class="cls-26" d="M1769.64,657.88s-51.91-26.6-63.35-40.77-8.93-41.32,5.81-47.84,74.73,53.55,74.73,53.55Z"/></g><g class="cls-28"><path class="cls-8" d="M1993.21,758.67c18.42-9.79,39.9-1,41.51,24.69s-16.54,34.78-34,33.07S1966.21,769.46,1993.21,758.67Z"/><path class="cls-8" d="M2004.32,827a18.34,18.34,0,1,0,18.34-18.34A18.34,18.34,0,0,0,2004.32,827Z"/><path class="cls-20" d="M1983.31,837.51l-62.6-2.16s-48.79-15.24-50.3-15.67-9-19.95-11-18.28,4.33,9.78,1.78,11.24-26.36-6.35-26.32-4.41c.08,3.61,14.4,5.35,14.13,7s-14.77-3.24-16.2-.57,14.15,3.35,14.58,4.7-14.77,1.39-13.64,4.25c.61,1.55,13.5-.37,13.15,1.57s-10,5-9.13,6.69,7.77-3.67,13-2.94,9.4-1.54,17.37,2.12,34.56,20,52.46,21.81,57.44,6.06,57.44,6.06Z"/><path class="cls-13" d="M1995.23,834.65c34.28,1.59,4.14,30.3,4.14,30.3l-50.65-7.19c-1.53-10.1,1.07-22.15,1.2-24.84C1960.43,832.27,1986.79,834.25,1995.23,834.65Z"/><path class="cls-14" d="M2021.73,829.16s14.73-.26,22.56,8.29-12.31,75.24-13.73,86.12,7.26,39.84,7.26,39.84-46.5,9.38-59.79.57c0,0-1.43-78.3,0-86.08s13.29-39.41,16.14-42.52S2021.73,829.16,2021.73,829.16Z"/><path class="cls-7" d="M2015.14,802.65s.1.58.29,1.58c.88,4.77,4.28,20.59,6.57,24.94,2.78,5.26-9.49,22-21.31,20-3.51-.61,3-15.41,2.66-17-.59-3-1.4-7.1-2.23-11.29-.47-2.37-.94-4.77-1.39-7l-2.29-11.65Z"/><path class="cls-9" d="M2015.43,804.23c-.19-1-.29-1.58-.29-1.58l-17.7-.44,2.29,11.65c.44,2.25.91,4.63,1.38,7a16.64,16.64,0,0,0,8.45-4.25,22.37,22.37,0,0,0,6.4-9.54C2015.75,805.93,2015.56,805,2015.43,804.23Z"/><path class="cls-7" d="M2003.23,762.32s8.34-1,13.57,5.81,10.87,27.75-2.12,39.15-25.84-1.51-27.74-15.19S1984.3,761.83,2003.23,762.32Z"/><path class="cls-7" d="M1983.1,791.89c1.55,3,4.15,4.7,5.81,3.74s1.75-4.19.2-7.21-4.15-4.69-5.81-3.73S1981.55,788.87,1983.1,791.89Z"/><path class="cls-8" d="M2002.29,760.08s11.15,19.94,19.12,20.86,9,11.51,9,11.51-2.85-24.41-10.75-29.12S2002.29,760.08,2002.29,760.08Z"/><path class="cls-7" d="M2019.32,786c-.65,3.54.66,6.79,2.92,7.25s4.61-2,5.26-5.57-.66-6.79-2.91-7.25S2020,782.41,2019.32,786Z"/><path class="cls-13" d="M2002,896.74s36-18.44,43.93-28.26,6.19-28.65-4-33.17-51.81,37.13-51.81,37.13Z"/></g><g class="cls-29"><path class="cls-9" d="M1269.88,560.65s19.84-5.31,20.07-3.71c5.12,35,7.34,47.67,8.06,48,2.45,1.18,33.76-29,39.43-31.13,2.71-1,5.69-.94,8.54-.93,6.81,0,8.16,0,8.16,0h.25l.13,6.4c-7.49,7.1-14.84,144.17-16.32,144.14-1.65,0-32.76-.2-31.28-2.8,0,0,7.52-42.21,13.43-70,2-9.34,7.54-28.87,7.54-28.87-7.61,4.07-37.32,19.67-42.14,17.84C1270.75,633.89,1269.88,560.65,1269.88,560.65Z"/><path class="cls-30" d="M1328.65,644c3.41-16.79,12.14-44.34,14.7-50.59,5.87-14.35,10.81-20.43,10.81-20.43l23.23.69s.54.15.7.17c1.9.3,2,68,.93,93.26s-6.63,58.21-6.63,58.21l-6.63-.62c-.11,3.41-.19,5.66-.19,5.66-33.61,5.92-52.38-10.65-52.38-10.65S1324.23,665.77,1328.65,644Z"/><path class="cls-9" d="M1377.39,573.67s23-1.68,28.84-4.52c3.56-1.72,32.49-26.31,32.49-26.31l-2-63.76,20.75-2.12s12.62,70.2,9.09,78c-3.64,8.07-46,42-54.33,56.46-4.76,8.33-.24,121.43-1.79,122.47-11,6.12-57.45,11.54-56.73,8C1373.64,643.63,1377.39,573.67,1377.39,573.67Z"/><path class="cls-7" d="M1376.2,553.2l1.19,20.47s-14.34,26.27-22.14,22.87c-6.55-2.86-1.33-22.7-1.33-22.7s1-4.54,2.42-9.76c1-3.66,1.79-7.61,1.65-10.48C1357.65,546.6,1376.2,553.2,1376.2,553.2Z"/><path class="cls-9" d="M1358,553.6c-.34-7,18.21-.4,18.21-.4l.11,2a10.12,10.12,0,0,1-2,2.39,25.26,25.26,0,0,1-17.74,5.61A35.2,35.2,0,0,0,1358,553.6Z"/><path class="cls-31" d="M1357,507s-7.35,11.74-7.67,21.46a50.33,50.33,0,0,0,1.91,16.3l23.79-30Z"/><path class="cls-12" d="M1346.77,526.49c-.26,3.41,1.14,6.3,3.12,6.45s3.79-2.5,4-5.91-1.14-6.29-3.12-6.44S1347,523.08,1346.77,526.49Z"/><path class="cls-7" d="M1383.13,519.2c.56-.13,1.25,28.13-6.77,35s-22.26,7.82-26.6,1.23c-4.8-7.29-1.2-37.18,10.82-43.83S1383.13,519.2,1383.13,519.2Z"/><path class="cls-31" d="M1384.75,501.62c6.4,5.32,9.53,9.25,14,18.88,5.52,11.85-4.48,24.54-13,29.71s-9.09,11.14-9.09,11.14l-.45-3.66a9.08,9.08,0,0,1,0-3.39,16.43,16.43,0,0,1,1.15-3c.7-1.59,2.92-7,3.81-8.5,2.34-3.82,2.8-4.65,1.5-8.18-1-2.73-.08-8.81-1.64-13.31l-11.71-2.2s-7.34-1.57-11.13-5.72C1347.33,501.45,1367.87,487.31,1384.75,501.62Z"/><path class="cls-7" d="M1380,537.76c-1.35,3.14-1,6.32.85,7.11s4.4-1.12,5.76-4.26,1-6.32-.86-7.11S1381.36,534.62,1380,537.76Z"/></g><g class="cls-32"><path class="cls-8" d="M147.88,649s29.91-8,30.27-5.58c7.71,52.79,11,71.87,12.14,72.39,3.7,1.78,50.9-43.71,59.44-46.93,4.09-1.55,8.59-1.42,12.89-1.41,10.27,0,12.29,0,12.29,0h.38l.2,9.65c-11.29,10.7-22.37,217.36-24.6,217.31-2.5-.05-49.39-.3-47.16-4.21,0,0,11.33-63.64,20.25-105.6,3-14.08,11.36-43.52,11.36-43.52-11.47,6.13-56.26,29.65-63.53,26.89C149.2,759.43,147.88,649,147.88,649Z"/><path class="cls-8" d="M236.49,774.67c5.15-25.31,18.31-66.85,22.16-76.27,8.85-21.63,16.3-30.8,16.3-30.8l35,1s.81.22,1.06.26c2.86.45,3,102.45,1.4,140.59s-10,87.77-10,87.77l-10-1c-.16,5.15-.28,8.54-.28,8.54-50.67,8.93-79-16.05-79-16.05S229.82,807.5,236.49,774.67Z"/><path class="cls-8" d="M310,668.64s34.64-2.53,43.48-6.81c5.36-2.6,49-39.67,49-39.67l-3-96.12,31.27-3.21s19,105.83,13.72,117.61c-5.5,12.17-69.43,63.33-81.91,85.13-7.19,12.56-.37,183.06-2.7,184.64-16.65,9.22-86.62,17.39-85.53,12C304.32,774.11,310,668.64,310,668.64Z"/><path class="cls-23" d="M308.17,637.78l1.8,30.86s-21.62,39.6-33.38,34.47c-9.88-4.3-2-34.21-2-34.21s1.51-6.85,3.65-14.73c1.49-5.5,2.7-11.46,2.49-15.79C280.2,627.83,308.17,637.78,308.17,637.78Z"/><path class="cls-33" d="M280.73,638.38c-.53-10.55,27.44-.6,27.44-.6l.18,3a15.94,15.94,0,0,1-3,3.6,38.14,38.14,0,0,1-26.76,8.47C279.92,647.73,280.92,642.37,280.73,638.38Z"/><path class="cls-31" d="M279.27,568.05s-11.08,17.7-11.56,32.36S270.6,625,270.6,625l35.86-45.23Z"/><path class="cls-33" d="M263.8,597.51c-.39,5.14,1.72,9.49,4.71,9.72s5.72-3.76,6.11-8.9-1.72-9.49-4.71-9.72S264.19,592.37,263.8,597.51Z"/><path class="cls-23" d="M318.63,586.52c.84-.2,1.88,42.41-10.21,52.76s-33.56,11.79-40.1,1.86c-7.24-11-1.81-56.06,16.31-66.08S318.63,586.52,318.63,586.52Z"/><path class="cls-31" d="M321.07,560c9.64,8,14.37,13.93,21.13,28.46,8.32,17.87-6.75,37-19.61,44.78s-13.7,16.81-13.7,16.81l-.69-5.53a14,14,0,0,1,0-5.11,24,24,0,0,1,1.74-4.55c1-2.4,4.4-10.63,5.74-12.81,3.52-5.76,4.21-7,2.26-12.34-1.51-4.11-.13-13.28-2.47-20.06l-17.66-3.32s-11.06-2.36-16.78-8.62C264.65,559.76,295.62,538.43,321.07,560Z"/><path class="cls-23" d="M313.92,614.5c-2,4.73-1.46,9.53,1.29,10.72s6.63-1.69,8.67-6.42,1.47-9.53-1.28-10.72S316,609.77,313.92,614.5Z"/></g><g class="cls-34"><path class="cls-11" d="M908.29,299.79s-24.69-6.6-25-4.61c-6.37,43.58-9.13,59.33-10,59.76-3,1.47-42-36.08-49.06-38.74-3.38-1.28-7.09-1.17-10.64-1.16-8.47,0-10.15,0-10.15,0h-.31l-.16,8c9.31,8.83,18.46,179.41,20.3,179.37,2.06,0,40.77-.25,38.93-3.48,0,0-9.35-52.53-16.72-87.16-2.47-11.62-9.37-35.93-9.37-35.93,9.46,5.06,46.44,24.48,52.44,22.2C907.2,390.94,908.29,299.79,908.29,299.79Z"/><path class="cls-30" d="M835.15,403.53c-4.25-20.9-15.11-55.19-18.29-63-7.31-17.86-13.45-25.43-13.45-25.43l-28.92.86s-.67.18-.87.22c-2.36.37-2.43,84.56-1.16,116s8.26,72.44,8.26,72.44l8.25-.78c.14,4.25.23,7,.23,7,41.83,7.38,65.19-13.24,65.19-13.24S840.65,430.62,835.15,403.53Z"/><path class="cls-11" d="M774.49,316s-28.59-2.09-35.88-5.62c-4.43-2.14-40.43-32.74-40.43-32.74l2.49-79.35-25.81-2.64S659.14,283,663.54,292.73c4.54,10,57.3,52.27,67.61,70.26,5.93,10.37.3,151.11,2.22,152.41,13.75,7.61,71.5,14.36,70.6,9.93C779.16,403.06,774.49,316,774.49,316Z"/><path class="cls-7" d="M776,290.53,774.49,316s17.85,32.69,27.56,28.46c8.15-3.56,1.65-28.24,1.65-28.24s-1.25-5.66-3-12.16c-1.24-4.54-2.23-9.46-2.05-13C799.07,282.31,776,290.53,776,290.53Z"/><path class="cls-9" d="M798.64,291c.43-8.71-22.66-.49-22.66-.49l-.14,2.49a12.86,12.86,0,0,0,2.47,3,31.47,31.47,0,0,0,22.09,7C799.3,298.75,798.47,294.32,798.64,291Z"/><path class="cls-9" d="M799.84,233s9.14,14.61,9.54,26.71A62.86,62.86,0,0,1,807,280l-29.61-37.33Z"/><path class="cls-12" d="M812.61,257.29c.32,4.24-1.42,7.83-3.89,8s-4.72-3.1-5-7.34,1.42-7.84,3.88-8S812.29,253.05,812.61,257.29Z"/><path class="cls-7" d="M767.35,248.22c-.7-.17-1.55,35,8.43,43.55s27.7,9.73,33.1,1.53c6-9.07,1.49-46.27-13.47-54.54S767.35,248.22,767.35,248.22Z"/><path class="cls-9" d="M765.34,226.34c-8,6.62-11.86,11.51-17.45,23.5-6.86,14.75,5.58,30.54,16.19,37s11.31,13.87,11.31,13.87l.56-4.56a11.54,11.54,0,0,0,0-4.21,19.81,19.81,0,0,0-1.44-3.76c-.86-2-3.63-8.78-4.74-10.58-2.9-4.75-3.48-5.78-1.86-10.18,1.24-3.39.1-11,2-16.56l14.58-2.75s9.13-1.94,13.85-7.1C811.91,226.13,786.34,208.53,765.34,226.34Z"/><path class="cls-7" d="M771.24,271.32c1.68,3.9,1.2,7.86-1.07,8.84s-5.47-1.39-7.16-5.3S761.8,267,764.07,266,769.55,267.41,771.24,271.32Z"/></g><g class="cls-35"><path class="cls-8" d="M1050.91,754.51s14.49-3.87,14.66-2.7c3.74,25.57,5.36,34.82,5.89,35.07,1.79.87,24.66-21.18,28.8-22.74a17.28,17.28,0,0,1,6.24-.68c5,0,6,0,6,0h.18l.1,4.67c-5.47,5.19-10.84,105.32-11.92,105.29s-23.93-.14-22.85-2c0,0,5.49-30.83,9.81-51.16,1.45-6.83,5.5-21.09,5.5-21.09-5.55,3-27.26,14.37-30.78,13C1051.55,808,1050.91,754.51,1050.91,754.51Z"/><path class="cls-30" d="M1093.84,815.4a313,313,0,0,1,10.74-36.95c4.29-10.48,7.89-14.93,7.89-14.93l17,.5s.39.11.51.13c1.38.22,1.43,49.64.68,68.12s-4.85,42.53-4.85,42.53l-4.84-.46c-.08,2.49-.14,4.13-.14,4.13-24.55,4.33-38.26-7.77-38.26-7.77S1090.61,831.31,1093.84,815.4Z"/><path class="cls-8" d="M1129.45,764s16.78-1.22,21.06-3.29c2.6-1.26,23.73-19.22,23.73-19.22l-1.46-46.58,15.15-1.55s9.22,51.28,6.65,57c-2.67,5.89-33.64,30.68-39.69,41.24-3.48,6.08-.18,88.7-1.31,89.46-8.06,4.47-42,8.43-41.44,5.83C1126.71,815.13,1129.45,764,1129.45,764Z"/><path class="cls-7" d="M1128.57,749.07l.88,14.95s-10.48,19.2-16.18,16.71c-4.79-2.09-1-16.58-1-16.58s.73-3.32,1.77-7.13a27.35,27.35,0,0,0,1.2-7.66C1115,744.25,1128.57,749.07,1128.57,749.07Z"/><path class="cls-9" d="M1115.27,749.36c-.25-5.11,13.3-.29,13.3-.29l.09,1.46a7.54,7.54,0,0,1-1.46,1.75,18.48,18.48,0,0,1-13,4.1A25.67,25.67,0,0,0,1115.27,749.36Z"/><path class="cls-11" d="M1114.57,715.29s-5.37,8.57-5.6,15.68a36.78,36.78,0,0,0,1.4,11.9L1127.74,721Z"/><path class="cls-12" d="M1107.07,729.56c-.18,2.49.84,4.6,2.28,4.71s2.78-1.82,3-4.31-.83-4.6-2.28-4.71S1107.26,727.07,1107.07,729.56Z"/><path class="cls-7" d="M1133.64,724.24c.41-.1.91,20.55-5,25.56s-16.26,5.72-19.43.9c-3.5-5.32-.87-27.16,7.91-32S1133.64,724.24,1133.64,724.24Z"/><path class="cls-11" d="M1134.82,711.4c4.67,3.88,7,6.75,10.24,13.79,4,8.66-3.27,17.93-9.5,21.7s-6.64,8.14-6.64,8.14l-.33-2.68a6.52,6.52,0,0,1,0-2.47,11,11,0,0,1,.84-2.21c.51-1.16,2.13-5.15,2.78-6.21,1.71-2.79,2-3.39,1.09-6-.73-2-.06-6.43-1.19-9.71l-8.56-1.62s-5.36-1.14-8.13-4.17C1107.48,711.27,1122.49,700.94,1134.82,711.4Z"/><path class="cls-7" d="M1131.36,737.8c-1,2.29-.71,4.61.62,5.19s3.22-.82,4.21-3.11.7-4.62-.63-5.19S1132.35,735.5,1131.36,737.8Z"/></g><g class="cls-36"><path class="cls-9" d="M1726.49,830.54s-17.49-4.67-17.7-3.26c-4.51,30.85-6.46,42-7.09,42.31-2.17,1-29.76-25.55-34.75-27.43-2.39-.9-5-.83-7.54-.83-6,0-7.18,0-7.18,0H1652l-.12,5.64c6.6,6.26,13.08,127.06,14.38,127,1.46,0,28.87-.17,27.57-2.46,0,0-6.63-37.2-11.84-61.73-1.75-8.23-6.64-25.44-6.64-25.44,6.7,3.58,32.89,17.33,37.14,15.72C1725.72,895.09,1726.49,830.54,1726.49,830.54Z"/><path class="cls-30" d="M1674.69,904c-3-14.8-10.7-39.08-13-44.59-5.18-12.64-9.53-18-9.53-18l-20.48.61s-.47.13-.61.15c-1.68.26-1.73,59.89-.82,82.18s5.85,51.31,5.85,51.31l5.84-.56c.09,3,.16,5,.16,5,29.62,5.22,46.16-9.38,46.16-9.38S1678.59,923.19,1674.69,904Z"/><path class="cls-9" d="M1631.73,842s-20.24-1.48-25.41-4c-3.13-1.52-28.63-23.19-28.63-23.19l1.77-56.19-18.28-1.87s-11.13,61.86-8,68.75c3.21,7.11,40.58,37,47.88,49.75,4.2,7.35.21,107,1.58,107.93,9.73,5.4,50.63,10.17,50,7C1635,903.67,1631.73,842,1631.73,842Z"/><path class="cls-7" d="M1632.79,824l-1.06,18s12.64,23.15,19.52,20.15c5.77-2.52,1.17-20,1.17-20s-.89-4-2.14-8.61a33.43,33.43,0,0,1-1.45-9.23C1649.14,818.16,1632.79,824,1632.79,824Z"/><path class="cls-9" d="M1648.83,824.33c.31-6.17-16-.35-16-.35l-.1,1.76a8.76,8.76,0,0,0,1.75,2.1,22.28,22.28,0,0,0,15.64,4.95A31.1,31.1,0,0,1,1648.83,824.33Z"/><path class="cls-31" d="M1649.68,783.22s6.48,10.34,6.76,18.91a44.28,44.28,0,0,1-1.69,14.36l-21-26.44Z"/><path class="cls-12" d="M1658.72,800.44c.23,3-1,5.55-2.75,5.68s-3.34-2.2-3.57-5.2,1-5.55,2.75-5.68S1658.5,797.44,1658.72,800.44Z"/><path class="cls-7" d="M1626.68,794c-.5-.12-1.1,24.79,6,30.84s19.62,6.89,23.44,1.08c4.23-6.42,1.06-32.77-9.53-38.62S1626.68,794,1626.68,794Z"/><path class="cls-31" d="M1625.25,778.52c-5.64,4.69-8.4,8.15-12.35,16.64-4.87,10.45,3.94,21.63,11.46,26.18s8,9.82,8,9.82l.4-3.23a8.18,8.18,0,0,0,0-3,14.25,14.25,0,0,0-1-2.66c-.61-1.41-2.57-6.22-3.35-7.5-2.06-3.36-2.47-4.09-1.32-7.21.88-2.4.07-7.76,1.44-11.72l10.32-2s6.47-1.37,9.81-5C1658.23,778.38,1640.13,765.91,1625.25,778.52Z"/><path class="cls-7" d="M1629.43,810.37c1.19,2.77.85,5.57-.75,6.27s-3.88-1-5.08-3.76-.85-5.57.76-6.26S1628.23,807.61,1629.43,810.37Z"/></g><g class="cls-37"><path class="cls-11" d="M1343.61,920.48s22.71-30.35,31-44.7-5.65-5-19.89-8.79c-5.4-1.43-.93-30.88-11.12-20.61-16.73,16.86-33.49,53.37-33.49,53.37Z"/><path class="cls-38" d="M1346.06,844.37c14.69-4.45,42.22-6.78,42.22-6.78s17.25-2.81,22.85-1.59c8.25,1.78,23.74,2.6,25.19,38.42,1,25.62,4,89,6.87,131.85l-105,6.37C1342.9,946.77,1332.15,848.59,1346.06,844.37Z"/><path class="cls-7" d="M1373.91,807l16.5,30.35s-12.43,22.15-24.18,22.74c-9.87.49-8.32-14.09-8.32-14.09s-1.55-18.85-6.28-27.3S1373.91,807,1373.91,807Z"/><path class="cls-9" d="M1372.41,819.13a62.05,62.05,0,0,1-16.6,12.47c-1-4.73-2.33-9.62-4.18-12.92-2.19-3.9,2.39-6.69,8-8.56,7.45-2,14.32-3.14,14.32-3.14l3.17,5.84C1376.28,814.86,1373.64,817.82,1372.41,819.13Z"/><path class="cls-7" d="M1365.44,755.88c.68-.49,17,37.44,9.89,51.08s-25.7,22.66-35.12,16.08c-10.41-7.28-21.81-49.74-9.24-65.25S1365.44,755.88,1365.44,755.88Z"/><path class="cls-8" d="M1331.06,735.05a45.18,45.18,0,0,1,26.46,6.67c5.68-.88,14,.08,25.27,10.71,13.86,13.07,11.69,32.42,3,44S1380,817.9,1380,817.9l-3.16-4.62a29.48,29.48,0,0,1-4.73-11.63,24.17,24.17,0,0,1-.22-7.72c1.07-6.44-8.35-7.91-12-12-2.82-3.15-5.23-11.48-9.76-16.73l-4.68-3.67s-9.53-3.91-16.72-.06S1314.65,736.21,1331.06,735.05Z"/><path class="cls-7" d="M1362.38,788.8c1.26,4.83,4.54,8.16,7.33,7.43s4-5.22,2.77-10.05-4.54-8.16-7.33-7.44S1361.12,784,1362.38,788.8Z"/><path class="cls-15" d="M1349.11,804.46l-15.41,3.44s1.66,5.77,8.48,4.46C1350.5,810.75,1349.11,804.46,1349.11,804.46Z"/><path class="cls-11" d="M1399.13,925.79s27.58-35,34.32-48.82-.47-35.55-13.84-38.13-52.09,60.3-52.09,60.3Z"/></g><g class="cls-39"><path class="cls-13" d="M418.31,379.14S404.93,361.26,400,352.8s3.33-2.95,11.72-5.18c3.18-.84.54-18.19,6.55-12.13,9.85,9.93,19.73,31.44,19.73,31.44Z"/><path class="cls-14" d="M416.86,334.3c-8.65-2.62-24.87-4-24.87-4s-10.16-1.65-13.47-.93c-4.86,1.05-14,1.53-14.83,22.63-.61,15.1-2.33,52.46-4.05,77.69l61.89,3.75C418.73,394.63,425.06,336.78,416.86,334.3Z"/><path class="cls-7" d="M400.45,312.27l-9.72,17.88s7.33,13.05,14.25,13.4c5.81.29,4.9-8.3,4.9-8.3s.91-11.11,3.7-16.09S400.45,312.27,400.45,312.27Z"/><path class="cls-9" d="M401.34,319.43a36.56,36.56,0,0,0,9.78,7.35,28.43,28.43,0,0,1,2.46-7.62c1.29-2.29-1.41-3.94-4.69-5-4.39-1.17-8.44-1.85-8.44-1.85l-1.86,3.44A15.42,15.42,0,0,0,401.34,319.43Z"/><path class="cls-7" d="M405.45,282.16c-.4-.29-10,22.06-5.83,30.1s15.14,13.35,20.69,9.47c6.14-4.29,12.85-29.3,5.45-38.44S405.45,282.16,405.45,282.16Z"/><path class="cls-31" d="M425.7,269.89a26.6,26.6,0,0,0-15.59,3.93c-3.34-.52-8.24.05-14.88,6.31-8.17,7.7-6.9,19.1-1.79,25.95s3.4,12.62,3.4,12.62l1.87-2.72a17.41,17.41,0,0,0,2.78-6.85,14.22,14.22,0,0,0,.13-4.55c-.63-3.8,4.92-4.66,7.08-7.07,1.66-1.85,3.09-6.76,5.75-9.86l2.76-2.16s5.62-2.3,9.85,0S435.37,270.57,425.7,269.89Z"/><path class="cls-7" d="M407.25,301.56c-.74,2.84-2.67,4.8-4.32,4.38s-2.37-3.08-1.63-5.93,2.67-4.8,4.32-4.38S408,298.71,407.25,301.56Z"/><path class="cls-15" d="M415.07,310.79l9.08,2a4.07,4.07,0,0,1-5,2.63C414.25,314.49,415.07,310.79,415.07,310.79Z"/><path class="cls-13" d="M385.6,382.27s-16.25-20.65-20.22-28.76.27-20.95,8.15-22.47,30.69,35.53,30.69,35.53Z"/></g><g class="cls-40"><path class="cls-41" d="M710.08,557.23c1.74.07,6.51,1.67,13.47,14.84,8.9,16.82,21.91,67.62,21.91,67.62l-38.82,14.46-5-10.6-8.22-81.64S709.6,557.21,710.08,557.23Z"/><path class="cls-30" d="M658.76,549.91c11.1,0,38.57,3.25,51.32,7.33,0,0,9.37,80.5-8.43,141.67-4,13.69,3.29,56.77,3.29,56.77l-115-1.52S603.53,650,598.39,633.21s-5.25-75.43-5.25-75.43L619,553.32A260,260,0,0,1,658.76,549.91Z"/><path class="cls-7" d="M591.88,566.73c10.76-4,16,92.88,17.47,132.77,19,1.83,52.25,0,60.52-.61,3.89-.29,12.85-3.57,16.72-4.08s7.55-.79,9.5-.45c.72.13,20.57,8.25,22.27,10,2.11,2.2,7.8,7.77,6.84,10.18s-11-6.71-11-6.71l-4.88-2.74c6.07,5.94,17.67,13.76,16,16.61s-12.09-5.16-19.54-10.57c6.39,5.78,14.33,16.11,12.5,17.72-1.64,1.45-10.68-10.52-20.33-14-3.58-1.28-7.15,2.26-10,2.68-2.07.32-5.26,1-7.29.41l-10.46-3c-3.56.32-3.65,2.43-7.24,3.19-4.18.89-11,1.82-16.34,3.12-30.62,7.48-40.83,11-50.21,10.95C568.11,732.3,566.46,576.26,591.88,566.73Z"/><path class="cls-41" d="M571.47,657.72c-2-40.87-1.72-91.23,21.19-99.82,9-3.39,25,17,22.1,100.64C602.53,659.55,584.58,660.37,571.47,657.72Z"/><path class="cls-42" d="M684.57,451.58a83,83,0,0,1-9.61-3.84c-3.52-1.7-8.07-3.69-11-4.13-6.07-.94-16.48-.31-22.23,5.92-7.17,7.78-19.9,1.41-17.33,42.11,2.9,46.08,28.52,41,29.14,40.24s22.85-29.48,22.85-29.48,7.77,17,7.77,16.38S723.89,464.83,684.57,451.58Z"/><path class="cls-7" d="M665.12,535.29l2.21,16.46s5,23.72-1.42,28.29-27.1-29-27.1-29L641,509.36Z"/><path class="cls-9" d="M640.29,522.88c5.27,14.22,17.81,23,26.71,26.36l-1.88-14L641,509.36Z"/><path class="cls-7" d="M663.81,464a22,22,0,0,1,25.28,22.2,165.75,165.75,0,0,1-1.84,21.12c-2.94,19-15.91,35.74-24.48,34.24s-30.15-17.89-26.35-44.93C638.77,479.89,649.64,466.25,663.81,464Z"/><path class="cls-7" d="M642.37,499.82c-.72,4.17-4.07,7.08-7.48,6.49s-5.58-4.46-4.85-8.64,4.07-7.09,7.47-6.5S643.09,495.64,642.37,499.82Z"/><path class="cls-42" d="M637.51,491.17s10.37,2.58,14.22-4.09S669.33,466,686.82,472s-15.39-14.5-16.79-14.5l-18.19-.12S638.9,468,638.44,469.19s-4.2,13.91-4.2,13.91Z"/><path class="cls-15" d="M656.48,519l18.86,3.61s-1.8,7.1-10.14,5.76C655,526.72,656.48,519,656.48,519Z"/></g><g class="cls-43"><path class="cls-44" d="M912.47,801.85c.91,0,3.38.87,7,7.71,4.63,8.75,11.39,35.15,11.39,35.15l-20.18,7.52-2.59-5.51-4.27-42.44S912.22,801.84,912.47,801.85Z"/><path class="cls-8" d="M885.8,798.05c5.77,0,20,1.69,26.67,3.8,0,0,4.87,41.85-4.38,73.64C906,882.61,909.8,905,909.8,905L850,904.21s7.08-54.12,4.41-62.87-2.73-39.2-2.73-39.2l13.43-2.32A135.29,135.29,0,0,1,885.8,798.05Z"/><path class="cls-7" d="M851,806.79c5.59-2.1,8.32,48.27,9.08,69,9.9,1,27.15,0,31.45-.32,2-.15,6.68-1.86,8.69-2.12a19.89,19.89,0,0,1,4.94-.23c.37.06,10.69,4.28,11.57,5.21,1.1,1.14,4.06,4,3.56,5.29s-5.69-3.49-5.69-3.49l-2.54-1.42c3.16,3.09,9.18,7.15,8.32,8.63s-6.29-2.68-10.16-5.49c3.32,3,7.45,8.37,6.5,9.21s-5.55-5.47-10.57-7.26c-1.86-.66-3.71,1.18-5.17,1.4a10.58,10.58,0,0,1-3.79.21l-5.44-1.54c-1.85.17-1.9,1.26-3.76,1.66-2.17.46-5.73,1-8.5,1.62-15.91,3.89-21.22,5.69-26.09,5.69C838.68,892.84,837.83,811.74,851,806.79Z"/><path class="cls-44" d="M840.43,854.08c-1-21.24-.9-47.42,11-51.88,4.7-1.76,13,8.83,11.49,52.31C856.57,855,847.24,855.46,840.43,854.08Z"/><path class="cls-42" d="M899.21,746.94a42.92,42.92,0,0,1-5-2,25.07,25.07,0,0,0-5.7-2.14c-3.15-.49-8.56-.17-11.55,3.08-3.72,4-10.34.73-9,21.88,1.51,24,14.83,21.32,15.15,20.92L895,773.36s4,8.83,4,8.51S919.65,753.82,899.21,746.94Z"/><path class="cls-23" d="M889.1,790.45l1.15,8.55s2.58,12.33-.73,14.71-14.09-15.06-14.09-15.06L876.57,777Z"/><path class="cls-45" d="M876.2,784c2.73,7.39,9.25,11.94,13.88,13.7l-1-7.25L876.57,777Z"/><path class="cls-23" d="M888.42,753.37a11.41,11.41,0,0,1,13.14,11.54,84.62,84.62,0,0,1-1,11c-1.52,9.88-8.26,18.57-12.72,17.8s-15.67-9.3-13.69-23.36C875.41,761.65,881.06,754.56,888.42,753.37Z"/><path class="cls-23" d="M877.28,772c-.38,2.17-2.12,3.68-3.89,3.38s-2.9-2.32-2.52-4.5,2.11-3.68,3.88-3.37S877.65,769.84,877.28,772Z"/><path class="cls-42" d="M874.75,767.52s5.39,1.34,7.39-2.13,9.15-10.94,18.24-7.84-8-7.54-8.73-7.54L882.2,750s-6.72,5.53-7,6.14-2.18,7.24-2.18,7.24Z"/><path class="cls-15" d="M884.61,782l9.8,1.87s-.93,3.69-5.27,3C883.86,786,884.61,782,884.61,782Z"/></g><g class="cls-46"><path class="cls-10" d="M1773.56,369.77l31.31,3.2s1.44-25.67,1.44-37.92c0-14.85-1.26-34-3.06-33.57-5,1.16-11.81,3.94-15.85,9.48C1773.43,330.15,1773.56,369.77,1773.56,369.77Z"/><path class="cls-9" d="M1789,332.43c-.66,4.53-12.7,127.66-12.7,127.66,57,27.53,88.47,4.9,88.47,4.9s-1.87-86.46.37-98.22c1.48-7.79,3.32-59.53-1.72-61a126.44,126.44,0,0,0-22-4.67c-6.91-.72-33.74-1.13-38.54.48A61.06,61.06,0,0,0,1789,332.43Z"/><path class="cls-7" d="M1833.76,277.32l3.67,24.22S1824,330.38,1816,327.88c-6.72-2.1-2.59-27.62-2.59-27.62s3.67-13.7,2.57-20.56S1833.76,277.32,1833.76,277.32Z"/><path class="cls-9" d="M1816,279.7c-1.1-6.86,17.77-2.38,17.77-2.38l.31,2a11.1,11.1,0,0,1-2,3.37,24.79,24.79,0,0,1-16.5,7.47A37.4,37.4,0,0,0,1816,279.7Z"/><path class="cls-7" d="M1836.85,243.06c.54-.2,4.28,27.58-2.82,35.22s-21,10.15-25.91,4.13c-5.49-6.66-5.21-36.51,5.83-44.38S1836.85,243.06,1836.85,243.06Z"/><path class="cls-42" d="M1818.15,223.17a30.68,30.68,0,0,1,16.1,9.18c3.87.46,9.14,2.6,14.58,11.61,6.69,11.07,1.75,23.34-6,29.36s-7.67,13-7.67,13l-1.23-3.6a20.14,20.14,0,0,1-1-8.47,16.53,16.53,0,0,1,1.26-5.1c1.87-4-4-6.69-5.68-10-1.27-2.58-1.33-8.47-3.34-12.73l-2.39-3.25s-5.53-4.29-10.93-3.08S1807.2,220.94,1818.15,223.17Z"/><path class="cls-7" d="M1828.86,264c-.06,3.39,1.48,6.17,3.44,6.2s3.59-2.69,3.64-6.08-1.48-6.16-3.44-6.19S1828.91,260.65,1828.86,264Z"/><path class="cls-15" d="M1817.32,271.87l-10.7-.55s0,4.08,4.73,4.46C1817.09,276.24,1817.32,271.87,1817.32,271.87Z"/><path class="cls-47" d="M1921.18,461.39a3.48,3.48,0,0,0,0-.79c-.84-8.53-7.92-80.13-9.11-83.17-1.08-2.75-32.83-48.16-32.83-48.16l-15.6,21.26,30.53,40.73c.69,2.59,11.7,50.92,11.7,50.92s2.26,8.81,3.27,14.09c-.46,1.27-.91,2.47-1.31,3.46a32.5,32.5,0,0,1-3.29,5.29,36,36,0,0,0-3.9,6.89c-.32,1.25-.91,3.83-1.24,5.39s-.78,3.38-.85,4.22a8.27,8.27,0,0,1-1,2.27,1.37,1.37,0,0,0,1.61,2c1.11-.37,2-1.81,2.5-2.7,1.5-2.53,2.31-7.14,2.68-6.9s1.69,8.07,1.9,9,1.79,10,2.68,11.63,2.07,1.38,2.38.34-1-13.61-1-13.61-.16-1.62.55-1.11,1.87,12,2.37,13.73,1.62,2.59,2.57,1.23c1.16-1.65-.84-13.89-.84-13.89s-.22-1.54.44-1.4,1.48,10,2,10.83a1.3,1.3,0,0,0,2.42-.26c.72-1.67-1.15-12.58-1.15-12.58s.09-.87.5-.58,1.71,8.62,2.56,9.39a.89.89,0,0,0,1.3,0c1.56-1.06-.83-9-.8-12.93s-1.81-8.37-1.26-13.07C1921,462.57,1921.12,461.85,1921.18,461.39Z"/><path class="cls-9" d="M1904.06,358l-27.12,18.21s-15.29-22.75-23.5-30.85c-10.28-10.14,3.75-41.22,10.37-39.46C1878.63,309.86,1904.06,358,1904.06,358Z"/></g><g class="cls-48"><path class="cls-38" d="M2050.49,585.22c8.05-24.42,17.06-23.38,17.06-23.38l-7,51.35c-5-1.36-11.44-4.39-16.41-5.79A226,226,0,0,1,2050.49,585.22Z"/><path class="cls-8" d="M2053,521.72c2.47-16.06,17-27.61,32.2-19.82a36.09,36.09,0,0,1,10.4,8.34c6.38,8.19,8,18.31,14.61,26.26a64.5,64.5,0,0,1-8.84,5.62l-4.1-5.48,1.41,6.83c-10.2,4.89-24.61,8.91-44.32,8.8A85.22,85.22,0,0,1,2053,521.72Z"/><path class="cls-11" d="M2088.15,557.46s13.07-1.71,18.94,4.7-11.26,57.89-12.32,66.05,7.49,28.61,7.49,28.61-37.37,7-47.33.42c0,0-.59-57.43.47-63.26s10-29.53,12.1-31.86S2088.15,557.46,2088.15,557.46Z"/><path class="cls-7" d="M2083.21,537.59s.08.44.22,1.18c.66,3.58,3.21,15.44,4.93,18.7,2.07,3.94-7.12,16.5-16,15-2.64-.46,2.22-11.55,2-12.72-.45-2.25-1.06-5.32-1.68-8.46-.35-1.78-.7-3.57-1-5.27-1-4.8-1.72-8.73-1.72-8.73Z"/><path class="cls-49" d="M2083.43,538.78l-.22-1.19-13.26-.33s.77,3.93,1.72,8.73c.33,1.69.68,3.47,1,5.24a12.37,12.37,0,0,0,6.33-3.18,16.85,16.85,0,0,0,4.8-7.16C2083.67,540.05,2083.53,539.33,2083.43,538.78Z"/><path class="cls-7" d="M2074.28,507.37s6.26-.72,10.18,4.36,8.14,20.79-1.6,29.33-19.35-1.13-20.78-11.38S2060.1,507,2074.28,507.37Z"/><path class="cls-7" d="M2059.2,529.53c1.16,2.27,3.11,3.52,4.36,2.8s1.31-3.13.15-5.4-3.12-3.52-4.36-2.8S2058,527.27,2059.2,529.53Z"/><path class="cls-8" d="M2073.58,505.69s8.36,14.94,14.33,15.63,6.76,8.63,6.76,8.63-2.13-18.29-8.05-21.82S2073.58,505.69,2073.58,505.69Z"/><path class="cls-7" d="M2086.35,525.08c-.49,2.65.49,5.08,2.18,5.43s3.46-1.52,3.94-4.17-.49-5.09-2.18-5.44S2086.83,522.42,2086.35,525.08Z"/><path class="cls-15" d="M2079,534.71l-9,1.78a4,4,0,0,0,4.88,2.73C2079.7,538.4,2079,534.71,2079,534.71Z"/><path class="cls-38" d="M2104.73,560.38s4.93,2.34,9.27,12.44c4.12,9.6,5.33,57.52,5.33,57.52l-18-3-6.68-22.1c-2.07-8.75-4.39-28.94,4.24-40.75C2101.21,561.37,2103.33,559.47,2104.73,560.38Z"/></g><g class="cls-50"><path class="cls-8" d="M506.85,821.61A57.24,57.24,0,0,0,501.62,794c-3.64-7.57-12.64-11.86-20.85-11.87-26.06,0-29.38,34.4-46,47.69-5.07,4-10.73,7.36-15.53,11.74-17.72,16.16-9.74,46.08,6.53,60.25,11.29,9.84,29,15.42,42.94,7.74,7.26-4,12.77-10.69,16.7-18,5.58-10.38,9.17-22.34,13.13-33.4C502.79,846.42,506.33,834.18,506.85,821.61Z"/><path class="cls-9" d="M497.1,908.6s-19.46-20-24.47-28.64,3.41-3,12-5.3c3.26-.87,2.43-19.95,8.59-13.75,10.1,10.18,22.8,28,22.8,28Z"/><path class="cls-10" d="M469.43,852.15S452,848.71,444,855.37s1.71,65.87,1.7,75.69-5.47,35.46-5.47,35.46,53,11.36,61.36-3.38c0,0,2.39-56.14,2-63.2s-8.21-35.94-10.38-39S469.43,852.15,469.43,852.15Z"/><path class="cls-7" d="M469.32,825.13s-.1.52-.26,1.41c-.79,4.27-3.85,18.41-5.91,22.3-2.49,4.7,8.53,19.69,19.14,17.86,3.15-.55-2.67-13.77-2.39-15.18.53-2.68,1.26-6.34,2-10.09.41-2.11.84-4.26,1.24-6.28,1.13-5.73,2.06-10.42,2.06-10.42Z"/><path class="cls-9" d="M469.06,826.54c.16-.89.26-1.41.26-1.41l15.89-.4s-.93,4.69-2.06,10.42l-1.24,6.25a14.88,14.88,0,0,1-7.59-3.8,20,20,0,0,1-5.74-8.53C468.77,828.07,468.94,827.2,469.06,826.54Z"/><path class="cls-7" d="M480,789.08s-7.49-.87-12.18,5.2-9.76,24.8,1.9,35,23.19-1.35,24.9-13.58S497,788.64,480,789.08Z"/><path class="cls-8" d="M491.69,786s-14.6,20.92-28.51,18.12l-.38-8.93,1.28-3.38,7-4.52,11.45-2.61Z"/><path class="cls-7" d="M498.08,815.51c-1.39,2.7-3.73,4.2-5.22,3.34s-1.57-3.73-.18-6.44,3.73-4.19,5.22-3.34S499.47,812.81,498.08,815.51Z"/><path class="cls-7" d="M465.56,810.2c.58,3.17-.59,6.07-2.62,6.48s-4.14-1.81-4.72-5,.59-6.07,2.62-6.49S465,807,465.56,810.2Z"/><path class="cls-15" d="M484.52,822.53l-11-.56s0,4.18,4.86,4.57C484.28,827,484.52,822.53,484.52,822.53Z"/><path class="cls-15" d="M484.52,822.53l-11-.56s0,4.18,4.86,4.57C484.28,827,484.52,822.53,484.52,822.53Z"/><path class="cls-9" d="M450.57,907.9s-11.47-25.42-13.21-35.28,6.72-22.24,15.59-21.44,22.15,44.67,22.15,44.67Z"/></g></g></g></svg>