<svg xmlns="http://www.w3.org/2000/svg" xmlns:xlink="http://www.w3.org/1999/xlink" viewBox="0 0 676.98 383.19"><defs><style>.cls-1,.cls-20,.cls-21,.cls-22{fill:none;}.cls-2{fill:#40649f;}.cls-3{fill:#4ea2e5;}.cls-4{fill:#5c8bc6;}.cls-5{fill:#6fa1d8;}.cls-6{fill:#1c344d;}.cls-7{fill:#f7f7ff;}.cls-8{fill:#b0a8c6;}.cls-9{fill:#e9e4f2;}.cls-10{clip-path:url(#clip-path);}.cls-11{fill:#cec7dd;}.cls-12{fill:#f2f0f7;}.cls-13{fill:#9c95b5;}.cls-14{fill:#8a83a5;}.cls-15{fill:#338ac4;}.cls-16{fill:#fff;}.cls-17{clip-path:url(#clip-path-2);}.cls-18{fill:#df5719;}.cls-19{fill:#f26b51;}.cls-20,.cls-21,.cls-22{stroke:#fff;stroke-miterlimit:10;}.cls-20{stroke-width:0.49px;}.cls-21{stroke-width:0.51px;}.cls-22{stroke-width:0.52px;}</style><clipPath id="clip-path"><rect class="cls-1" x="228.2" y="178.42" width="223.75" height="98.17"/></clipPath><clipPath id="clip-path-2"><polygon class="cls-1" points="195.43 178.42 108.95 178.42 108.95 318.45 195.43 318.58 195.43 178.42"/></clipPath></defs><title>Asset 1</title><g id="Layer_2" data-name="Layer 2"><g id="OBJECTS"><path class="cls-2" d="M525.61,226.23h-.71a1.49,1.49,0,0,1-1.48-1.56v0a1.5,1.5,0,0,1,1.54-1.43c27.59.41,32.83-23.14,33.72-29.23a1.49,1.49,0,0,1,1.6-1.26h0a1.5,1.5,0,0,1,1.35,1.74C560.55,201.12,554.55,226.23,525.61,226.23Z"/><path class="cls-3" d="M508.46,349.59c0,1.36,7.4,2.46,16.52,2.46s16.53-1.1,16.53-2.46-7.4-2.47-16.53-2.47S508.46,348.23,508.46,349.59Z"/><circle class="cls-4" cx="524.98" cy="121.61" r="79.08" transform="matrix(0.99, -0.16, 0.16, 0.99, -12.7, 85.66)"/><circle class="cls-4" cx="456.18" cy="160.1" r="23.88" transform="matrix(0.99, -0.16, 0.16, 0.99, -19.75, 75.14)"/><circle class="cls-4" cx="475.97" cy="178.42" r="23.88" transform="translate(-1.91 5.19) rotate(-0.62)"/><circle class="cls-4" cx="502.92" cy="187.65" r="23.88"/><circle class="cls-4" cx="562.73" cy="190.27" r="23.88" transform="translate(-23.21 92.6) rotate(-9.22)"/><circle class="cls-4" cx="603.85" cy="131.73" r="23.88"/><circle class="cls-4" cx="568.19" cy="55.8" r="23.88"/><circle class="cls-4" cx="483.01" cy="55.8" r="23.88"/><circle class="cls-4" cx="456.18" cy="94.83" r="23.88"/><circle class="cls-4" cx="498.04" cy="50.17" r="25.43" transform="translate(1.32 112.07) rotate(-12.86)"/><circle class="cls-4" cx="345.46" cy="192.08" r="13.58" transform="translate(-38 287.99) rotate(-43.12)"/><circle class="cls-4" cx="446.73" cy="121.61" r="11.43"/><circle class="cls-4" cx="442.39" cy="139.4" r="11.43" transform="translate(-1.74 5.64) rotate(-0.73)"/><circle class="cls-4" cx="460.59" cy="66.01" r="11.43"/><circle class="cls-4" cx="520.1" cy="39.83" r="11.43" transform="translate(-0.18 77.22) rotate(-8.49)"/><circle class="cls-4" cx="533.42" cy="37.67" r="14.42"/><circle class="cls-4" cx="549.4" cy="41.6" r="11.43" transform="translate(100.71 361.36) rotate(-39.81)"/><circle class="cls-4" cx="595.87" cy="70.97" r="13.29" transform="translate(181.52 505.03) rotate(-53.12)"/><circle class="cls-4" cx="596.29" cy="85.19" r="11.43" transform="translate(-5.88 99.88) rotate(-9.53)"/><circle class="cls-4" cx="605.69" cy="157.62" r="11.43"/><circle class="cls-4" cx="602.02" cy="171.57" r="11.43" transform="translate(-23.54 148.37) rotate(-13.78)"/><circle class="cls-4" cx="591.54" cy="181.13" r="11.43"/><circle class="cls-4" cx="543.45" cy="203.88" r="11.43" transform="translate(145.6 626.52) rotate(-67.29)"/><circle class="cls-4" cx="525.48" cy="203.88" r="11.43"/><circle class="cls-4" cx="592.74" cy="166.9" r="11.43" transform="translate(-22.49 140.65) rotate(-13.28)"/><circle class="cls-4" cx="605.7" cy="98.33" r="11.43"/><path class="cls-2" d="M625.86,125.23c-2.09,2.08-2.82,4.74-1.63,5.93s3.85.46,5.93-1.62,2.81-4.74,1.62-5.93S627.94,123.14,625.86,125.23Z"/><path class="cls-2" d="M504.77,207.8c-2.35-1.79-5.08-2.15-6.1-.81s.06,3.88,2.41,5.66,5.08,2.14,6.1.8S507.11,209.58,504.77,207.8Z"/><path class="cls-2" d="M590.25,51.59c-2.09,2.09-2.81,4.74-1.63,5.93s3.85.46,5.93-1.62,2.81-4.74,1.62-5.93S592.33,49.51,590.25,51.59Z"/><path class="cls-2" d="M592,55.88c-2.93.38-5.12,2-4.9,3.71s2.77,2.71,5.69,2.33,5.12-2.05,4.9-3.72S594.93,55.49,592,55.88Z"/><path class="cls-2" d="M440.23,77.18c2.09,2.08,4.74,2.81,5.93,1.62s.47-3.85-1.62-5.93-4.74-2.81-5.93-1.62S438.15,75.09,440.23,77.18Z"/><path class="cls-2" d="M443.81,71.66c.39,2.92,2.05,5.12,3.72,4.9s2.71-2.77,2.32-5.69-2.05-5.12-3.72-4.9S443.43,68.74,443.81,71.66Z"/><path class="cls-2" d="M460.67,40.23c.39,2.93,2.05,5.12,3.72,4.9s2.71-2.77,2.32-5.69-2-5.12-3.71-4.9S460.29,37.31,460.67,40.23Z"/><path class="cls-2" d="M430.24,166.24c2.9.53,5.49-.38,5.79-2s-1.8-3.42-4.7-3.95-5.5.38-5.8,2S427.34,165.71,430.24,166.24Z"/><path class="cls-2" d="M621.51,136.58c-2.09,2.09-2.81,4.74-1.62,5.93s3.84.47,5.93-1.62,2.81-4.74,1.62-5.93S623.59,134.5,621.51,136.58Z"/><path class="cls-2" d="M433.9,86.87c2.94.24,5.43-.92,5.57-2.6S437.34,81,434.4,80.8s-5.43.92-5.57,2.59S431,86.62,433.9,86.87Z"/><path class="cls-2" d="M442.48,176.71c.77-2.85.08-5.51-1.55-6s-3.56,1.52-4.33,4.36-.07,5.51,1.55,5.95S441.71,179.56,442.48,176.71Z"/><path class="cls-2" d="M510.93,28.87c2.25-1.9,3.19-4.49,2.11-5.77s-3.8-.79-6,1.12-3.19,4.49-2.1,5.77S508.68,30.77,510.93,28.87Z"/><path class="cls-2" d="M581.57,206.24c-.16-2.94-1.64-5.26-3.32-5.17s-2.92,2.55-2.76,5.49,1.64,5.26,3.32,5.17S581.73,209.19,581.57,206.24Z"/><path class="cls-2" d="M514.18,115.82c2.25-1.9,3.2-4.49,2.11-5.77s-3.79-.78-6,1.12-3.2,4.49-2.11,5.77S511.93,117.73,514.18,115.82Z"/><path class="cls-2" d="M430,159.67c2,2.18,4.6,3,5.84,1.91s.66-3.82-1.32-6-4.59-3-5.84-1.91S428.07,157.48,430,159.67Z"/><path class="cls-2" d="M611.29,87.39c-2.09,2.08-2.81,4.74-1.62,5.92s3.84.47,5.93-1.62,2.81-4.74,1.62-5.92S613.37,85.3,611.29,87.39Z"/><path class="cls-2" d="M480.86,73.69c-2.08,2.08-2.81,4.73-1.62,5.92s3.84.47,5.93-1.62,2.81-4.74,1.62-5.93S483,71.6,480.86,73.69Z"/><path class="cls-2" d="M609.49,173.76c-2.08,2.09-2.81,4.74-1.62,5.93s3.85.47,5.93-1.62,2.81-4.74,1.62-5.93S611.58,171.68,609.49,173.76Z"/><path class="cls-2" d="M476,71.09c-.25,2.94.92,5.43,2.59,5.57s3.24-2.13,3.48-5.07-.92-5.43-2.6-5.57S476.24,68.15,476,71.09Z"/><path class="cls-2" d="M571.82,71.77c-.58,2.89.28,5.5,1.93,5.83s3.46-1.74,4-4.63-.28-5.51-1.93-5.84S572.4,68.88,571.82,71.77Z"/><path class="cls-2" d="M557.36,33.2c-.58,2.89.28,5.51,1.93,5.84s3.46-1.75,4-4.64-.28-5.5-1.93-5.83S557.94,30.31,557.36,33.2Z"/><path class="cls-2" d="M501.53,24.31c-.58,2.89.29,5.5,1.94,5.83s3.45-1.74,4-4.63-.28-5.5-1.93-5.84S502.11,21.42,501.53,24.31Z"/><path class="cls-2" d="M616.56,91.81c-2.93.38-5.12,2-4.9,3.71s2.77,2.71,5.69,2.32,5.12-2,4.9-3.71S619.48,91.42,616.56,91.81Z"/><path class="cls-2" d="M566.11,212.84c-1.46,2.56-1.46,5.31,0,6.15s3.83-.57,5.29-3.13,1.46-5.31,0-6.15S567.57,210.28,566.11,212.84Z"/><path class="cls-2" d="M563.91,202.32c-2.63,1.34-4.13,3.65-3.36,5.14s3.51,1.62,6.14.28,4.13-3.65,3.36-5.15S566.53,201,563.91,202.32Z"/><path class="cls-2" d="M566.8,127.23c-2.62,1.35-4.12,3.65-3.36,5.15s3.52,1.62,6.14.27,4.13-3.65,3.36-5.14S569.43,125.89,566.8,127.23Z"/><path class="cls-2" d="M537.64,167.14c-1.07-2.74-3.21-4.47-4.78-3.86s-2,3.33-.9,6.08,3.21,4.48,4.78,3.86S538.71,169.89,537.64,167.14Z"/><path class="cls-2" d="M513.83,98.82c-1.07-2.75-3.21-4.48-4.77-3.87s-2,3.33-.9,6.08,3.21,4.48,4.77,3.87S514.9,101.56,513.83,98.82Z"/><path class="cls-2" d="M460.46,45.37c-2.66-1.28-5.4-1.08-6.13.43s.84,3.78,3.5,5.06,5.4,1.08,6.13-.44S463.12,46.64,460.46,45.37Z"/><path class="cls-2" d="M585.39,42.51c-.58,2.89.28,5.51,1.93,5.84s3.46-1.75,4-4.64-.28-5.5-1.93-5.83S586,39.62,585.39,42.51Z"/><path class="cls-2" d="M623.76,139.48c-2.92.38-5.11,2.05-4.89,3.71s2.77,2.71,5.69,2.33,5.11-2.05,4.89-3.72S626.69,139.09,623.76,139.48Z"/><path class="cls-5" d="M441.68,114.39c1.81-1.81,2.45-4.12,1.41-5.16s-3.34-.4-5.16,1.41-2.44,4.13-1.41,5.16S439.87,116.21,441.68,114.39Z"/><path class="cls-5" d="M547,42.55c2,1.56,4.42,1.87,5.3.7s-.05-3.36-2.09-4.92-4.42-1.86-5.3-.7S545,41,547,42.55Z"/><path class="cls-5" d="M472.66,178.46c1.82-1.82,2.45-4.13,1.41-5.16s-3.34-.4-5.16,1.41-2.44,4.12-1.41,5.16S470.85,180.27,472.66,178.46Z"/><path class="cls-5" d="M471.13,174.73c2.54-.34,4.45-1.78,4.26-3.23s-2.41-2.36-4.95-2-4.45,1.78-4.26,3.23S468.59,175.07,471.13,174.73Z"/><path class="cls-5" d="M603.18,156.2c-1.82-1.82-4.13-2.45-5.16-1.41s-.4,3.34,1.41,5.16,4.12,2.44,5.16,1.41S605,158,603.18,156.2Z"/><path class="cls-5" d="M600.06,161c-.33-2.55-1.78-4.45-3.23-4.26s-2.36,2.41-2,4.95,1.78,4.45,3.23,4.26S600.4,163.54,600.06,161Z"/><path class="cls-5" d="M585.39,188.34c-.33-2.54-1.78-4.45-3.23-4.26s-2.36,2.41-2,4.95,1.78,4.45,3.23,4.26S585.73,190.88,585.39,188.34Z"/><path class="cls-5" d="M611.88,78.71c-2.53-.46-4.79.33-5,1.77s1.57,3,4.09,3.44,4.79-.33,5.05-1.77S614.4,79.17,611.88,78.71Z"/><path class="cls-5" d="M445.46,104.51c1.82-1.81,2.45-4.12,1.41-5.16s-3.34-.4-5.16,1.42-2.44,4.12-1.41,5.15S443.65,106.33,445.46,104.51Z"/><path class="cls-5" d="M608.69,147.77c-2.56-.21-4.73.8-4.85,2.26s1.86,2.81,4.41,3,4.73-.8,4.85-2.26S611.25,148,608.69,147.77Z"/><path class="cls-5" d="M601.22,69.6c-.67,2.48-.07,4.79,1.35,5.18s3.1-1.32,3.77-3.8.06-4.79-1.35-5.17S601.89,67.12,601.22,69.6Z"/><path class="cls-5" d="M541.67,198.23c-2,1.65-2.78,3.9-1.83,5s3.3.68,5.25-1,2.78-3.9,1.84-5S543.63,196.57,541.67,198.23Z"/><path class="cls-5" d="M480.21,43.91c.14,2.56,1.43,4.57,2.89,4.5s2.54-2.22,2.4-4.78-1.43-4.58-2.89-4.5S480.07,41.35,480.21,43.91Z"/><path class="cls-5" d="M538.84,122.58c-2,1.65-2.78,3.9-1.83,5s3.3.68,5.25-1,2.78-3.9,1.84-5S540.8,120.92,538.84,122.58Z"/><path class="cls-5" d="M612,84.43c-1.72-1.9-4-2.65-5.08-1.67s-.57,3.32,1.15,5.23,4,2.64,5.09,1.66S613.76,86.33,612,84.43Z"/><path class="cls-5" d="M454.35,147.32c1.82-1.82,2.45-4.13,1.41-5.16s-3.34-.41-5.15,1.41-2.45,4.12-1.41,5.16S452.54,149.13,454.35,147.32Z"/><path class="cls-5" d="M567.83,159.24c1.81-1.82,2.45-4.13,1.41-5.16s-3.34-.41-5.16,1.41-2.44,4.12-1.41,5.16S566,161.05,567.83,159.24Z"/><path class="cls-5" d="M455.92,72.16c1.81-1.81,2.44-4.12,1.41-5.15s-3.35-.41-5.16,1.41-2.45,4.12-1.41,5.16S454.1,74,455.92,72.16Z"/><path class="cls-5" d="M572.06,161.49c.21-2.55-.8-4.72-2.26-4.84s-2.81,1.85-3,4.41.8,4.72,2.26,4.84S571.85,164.05,572.06,161.49Z"/><path class="cls-5" d="M501.27,194.46c.51-2.52-.24-4.79-1.68-5.08s-3,1.52-3.51,4,.24,4.79,1.68,5.08S500.77,197,501.27,194.46Z"/><path class="cls-5" d="M549.84,202.2c.51-2.52-.24-4.79-1.68-5.08s-3,1.52-3.51,4,.25,4.79,1.68,5.08S549.34,204.71,549.84,202.2Z"/><path class="cls-5" d="M449.77,143.47c2.54-.33,4.45-1.78,4.26-3.23s-2.41-2.36-4.95-2-4.45,1.78-4.26,3.23S447.23,143.81,449.77,143.47Z"/><path class="cls-5" d="M493.66,38.17c1.27-2.23,1.27-4.63,0-5.35s-3.33.49-4.6,2.72-1.27,4.62,0,5.35S492.39,40.39,493.66,38.17Z"/><path class="cls-5" d="M495.58,47.32c2.28-1.17,3.59-3.17,2.92-4.47s-3.06-1.41-5.34-.24-3.59,3.17-2.92,4.47S493.29,48.49,495.58,47.32Z"/><path class="cls-5" d="M580.3,38.81c.93,2.39,2.79,3.89,4.15,3.36s1.72-2.9.79-5.29-2.8-3.89-4.16-3.36S579.37,36.42,580.3,38.81Z"/><path class="cls-5" d="M536.6,155.25c.93,2.39,2.79,3.9,4.15,3.37s1.72-2.9.79-5.29-2.8-3.9-4.16-3.37S535.67,152.86,536.6,155.25Z"/><path class="cls-5" d="M585.58,183.87c2.31,1.11,4.7.94,5.33-.38s-.73-3.28-3-4.39-4.7-.94-5.33.37S583.26,182.76,585.58,183.87Z"/><path class="cls-5" d="M476.89,186.36c.5-2.52-.25-4.79-1.68-5.08s-3,1.52-3.52,4,.25,4.79,1.68,5.08S476.38,188.87,476.89,186.36Z"/><path class="cls-5" d="M443.5,102c2.54-.34,4.45-1.79,4.26-3.24s-2.41-2.35-4.95-2-4.45,1.78-4.26,3.24S441,102.33,443.5,102Z"/><path class="cls-2" d="M525,349.59h0a2.47,2.47,0,0,1-2.21-2.66V151.18a2.46,2.46,0,0,1,2.21-2.65h0a2.46,2.46,0,0,1,2.22,2.65V346.93A2.47,2.47,0,0,1,525,349.59Z"/><path class="cls-2" d="M522.06,183.2c-39.26,0-46.71-34.82-47.89-42.72a1.49,1.49,0,0,1,1.36-1.71l1-.08a1.5,1.5,0,0,1,1.6,1.28c1,7.35,7.51,40,45.3,39.21a1.5,1.5,0,0,1,1.54,1.43l0,1a1.49,1.49,0,0,1-1.44,1.56Z"/><rect class="cls-2" x="54.81" y="335.43" width="449.57" height="16.6"/><rect class="cls-3" x="92.24" width="374.7" height="15.95"/><rect class="cls-6" x="54.81" y="27.49" width="35.68" height="6.02"/><rect class="cls-6" x="54.81" y="66.16" width="35.68" height="6.02"/><rect class="cls-7" x="77.24" y="30.85" width="404.7" height="289.33"/><rect class="cls-2" x="98.66" y="168.55" width="107.06" height="160.29"/><rect class="cls-8" x="108.95" y="178.42" width="86.48" height="150.41"/><rect class="cls-2" x="220.5" y="168.55" width="239.15" height="127.61"/><rect class="cls-9" x="108.95" y="178.42" width="86.48" height="120.24"/><rect class="cls-9" x="228.2" y="178.42" width="223.75" height="98.17"/><g class="cls-10"><path class="cls-11" d="M351.83,247.2s-.78,2.59-1,3.51-1,2.68-1.35,2.57.39-3.54.18-3.74-1.83,1.55-2,2,.36,3.93,0,3.95-1.25-1.76-1.47-3.75,2.63-6,2.63-6Z"/><path class="cls-11" d="M369.18,247.44c-.16-8.4-6.24-9.14-6.24-9.14s-6.09-.74-6.35,7.61c-.2,6.41,1.59,23.89,2.44,31.67a4.61,4.61,0,0,0,3.64,4.23h0c1.85.22,3.43-1.2,3.69-3.34C367.3,270.9,369.31,253.89,369.18,247.44Z"/><path class="cls-11" d="M383.54,247.44c-.16-8.4-6.25-9.14-6.25-9.14s-6.09-.74-6.35,7.61c-.2,6.41,1.6,23.89,2.44,31.67a4.61,4.61,0,0,0,3.65,4.23h0c1.85.22,3.42-1.2,3.69-3.34C381.66,270.9,383.66,253.89,383.54,247.44Z"/><path class="cls-11" d="M366.46,277.82a3.58,3.58,0,0,0-7.16,0c-.17,3.5,1.71,30.24,1.71,30.24h4.42S366.62,281.32,366.46,277.82Z"/><path class="cls-11" d="M361.17,308.06s-7.69,3.43-8.6,3.87-1.29,1.31,1.07,1.31h9.81a1.83,1.83,0,0,0,2-1.63v-3.55Z"/><path class="cls-11" d="M380.24,275.44a3.57,3.57,0,0,0-6.87,2c.81,3.42,10,28.6,10,28.6l4.24-1.22S381.37,278.76,380.24,275.44Z"/><path class="cls-11" d="M378.73,206.18s4.59-.73,4.85,5.5c.23,5.45.78,13.48.92,16.8a2.5,2.5,0,0,1-2.37,2.29h0a2.48,2.48,0,0,1-2.9-1.57c-.77-3.22-2.5-11.09-3.68-16.41C374.22,206.71,378.73,206.18,378.73,206.18Z"/><path class="cls-11" d="M377.64,205.54l-.5-.15a25.45,25.45,0,0,0-14.72,0l-.51.15a1.88,1.88,0,0,0-1.15,1.61c-.8,5.47-.05,23.32.23,29.22.05,1.08.71,1.92,1.52,1.92H377c.8,0,1.46-.84,1.52-1.92.27-5.9,1-23.75.23-29.22A1.92,1.92,0,0,0,377.64,205.54Z"/><path class="cls-11" d="M382.77,242.85c-1.45-7.8-4.21-10.51-4.21-10.51H360.81s-2.62,3.75-4.06,11.55a2.83,2.83,0,0,0,1.27,2.9,23.63,23.63,0,0,0,23.08,0A5,5,0,0,0,382.77,242.85Z"/><rect class="cls-11" x="366.25" y="197.37" width="7.02" height="8.52"/><path class="cls-11" d="M373.07,200.3s-2,2.58-6.82,2.58v-3.67Z"/><path class="cls-11" d="M361.55,206.18s-4.59-.73-4.85,5.5c-.23,5.45-.78,13.48-.91,16.8a2.48,2.48,0,0,0,2.36,2.29h0a2.5,2.5,0,0,0,2.91-1.57c.76-3.22,2.5-11.09,3.67-16.41C366.07,206.71,361.55,206.18,361.55,206.18Z"/><path class="cls-11" d="M359,225.74s-2.9-1.31-4.93,4.58c-1.77,5.17-4.53,12.75-5.61,15.89a2,2,0,0,0,.93,2.51h0a2,2,0,0,0,2.44-1.1c1.48-3,5-10.23,7.37-15.15C361.94,226.86,359,225.74,359,225.74Z"/><path class="cls-11" d="M382.8,276.05c0-2,7.29-34.81-4-44.69h-18s-5,6.77-5,22.55.92,52.94.92,52.94h10.89l2.66-57.06s.95,20.08,1.81,27.21,7.84,29,7.84,29l9.64-2.58S382.8,278.05,382.8,276.05Z"/><path class="cls-11" d="M366.25,203.69s-7.2.61-9.55,4c-1.88,2.73-1.68,16.91-2.34,19.1s-8.66,17.23-5.88,19.39,4.29,2.91,5,2.16,2.66-5.58,2.66-5.58,13.12,1.71,21.25,1.71,9.45-4.27,8.79-7.27-.81-16.49-1.72-23.34-.81-7.66-11.24-10.2A10.07,10.07,0,0,1,366.25,203.69Z"/><path class="cls-11" d="M384.49,229.36s-.92,3-6.7.7c-5.05-2.06-12.58-5-15.65-6.23a2,2,0,0,1-1.28-2.35h0a2,2,0,0,1,2.43-1.11c3.21.84,11,3,16.26,4.41C385.56,226.42,384.49,229.36,384.49,229.36Z"/><path class="cls-11" d="M363.39,226.23A2.81,2.81,0,0,1,362,223.1a9.2,9.2,0,0,1,1.64-3.79c1.38-1.38,13.75,3.33,13.75,3.33s-.52-12.12,2.47-16.75c4.42,1.26,4.51,3.35,5.65,13.8s-.94,13.5-5.65,13.5C376.25,233.19,367.24,228.38,363.39,226.23Z"/><path class="cls-11" d="M361,307.65s-6,1.85-8.39,2.63a2,2,0,0,0-1.22,3h14.05v-5.18A4.89,4.89,0,0,1,361,307.65Z"/><path class="cls-11" d="M383.5,305.6s-6.49,5.36-7.25,6-.9,1.61,1.37,1l9.45-2.62a1.84,1.84,0,0,0,1.49-2.1l-.95-3.42Z"/><path class="cls-11" d="M383.21,305.25s-5.3,3.39-7.37,4.77a2,2,0,0,0-.39,3.18L389,309.45l-1.38-5A4.89,4.89,0,0,1,383.21,305.25Z"/><path class="cls-11" d="M356.33,222.85c0-.35,2.69-.29,2.69-.29s-3.61-.85-3.57-1.22,3.69.28,3.69.28-3.8-1.43-3.68-1.78,3.79.79,3.79.79-3.49-1.66-3.24-2,4.9,1.43,4.9,1.43-2.3-1.62-2.25-2,.65.08,1.65.51a14,14,0,0,1,3.24,2l-.63,3S356.31,223.21,356.33,222.85Z"/><path class="cls-11" d="M366.64,202h1.81a8,8,0,0,0,8-8v-3.65a5,5,0,0,0-5-5H369.3a5,5,0,0,0-5,5v9.31A2.36,2.36,0,0,0,366.64,202Z"/><path class="cls-11" d="M364.28,193.66s-3.16,4,0,4"/><path class="cls-11" d="M371.31,194.57s-2.09-2.3-1.6-7c-4,0-5.13,1-5.13,1s-2.48-2.15.71-4.79,11.3-2,12.47,3.32.5,10.72-4.6,13.3A7,7,0,0,0,371.31,194.57Z"/><line class="cls-11" x1="371.85" y1="193.29" x2="369.03" y2="195.21"/><line class="cls-11" x1="373.33" y1="196.37" x2="369.87" y2="199.96"/><path class="cls-11" d="M369.47,194.86h-6a4.11,4.11,0,0,0-.87,2.41c0,1.38,1.8,4.32,3.62,4.85a8.58,8.58,0,0,0,4.39-.42Z"/><path class="cls-11" d="M370.46,194.5a1.92,1.92,0,1,0,2.6-1.58A2.19,2.19,0,0,0,370.46,194.5Z"/><rect class="cls-12" x="226.06" y="235.91" width="230.36" height="85.02"/><rect class="cls-8" x="226.06" y="298.67" width="230.36" height="22.27"/><path class="cls-11" d="M278.72,244.18a13.54,13.54,0,0,1,.75,3.2c-.05.91-.36,2.71-.76,2.7s-.4-3.4-.64-3.55-1.45,1.84-1.5,2.3,1.2,3.61.86,3.7-1.6-1.38-2.26-3.2.89-4.58.89-4.58Z"/><path class="cls-11" d="M321,237a15.1,15.1,0,0,0,3.32.74c.95,0,2.83-.32,2.82-.7s-3.54-.41-3.69-.65,1.93-1.37,2.41-1.42,3.74,1.19,3.85.87-1.43-1.56-3.32-2.2-4.77.81-4.77.81Z"/><path class="cls-11" d="M274.73,222.38s-3.18.27-2.05,6.15c1,5.16,2.31,12.81,2.91,15.94a1.93,1.93,0,0,0,2,1.66h0a1.9,1.9,0,0,0,1.59-2.07c-.17-3.18-.67-10.91-1-16.15C277.82,221.94,274.73,222.38,274.73,222.38Z"/><path class="cls-11" d="M298.47,204.47l-.5-.14a26.41,26.41,0,0,0-14.72,0l-.51.15a1.83,1.83,0,0,0-1.15,1.54c-.79,5.26,0,22.4.23,28.06a1.75,1.75,0,0,0,1.52,1.84h14.53a1.75,1.75,0,0,0,1.52-1.84c.28-5.66,1-22.8.23-28.06A1.83,1.83,0,0,0,298.47,204.47Z"/><path class="cls-11" d="M278.2,274.89v-.12C278.09,274.5,278.18,274.88,278.2,274.89Z"/><path class="cls-11" d="M303.64,243.7a30.78,30.78,0,0,0-.54-5.59v0c-1.45-7.48-3.7-7.87-3.7-7.87h-18s-1.77.9-3.21,8.39L278,240a60.09,60.09,0,0,0-.54,7.09c-.13,7.88-.05,21.56.75,27.83.11,5.8,1.95,28,1.95,28h7.44s1.35-25.67,1.16-29v-.05c.49-3.42,1.2-8.47,1.82-13.54.62,5.07,1.33,10.12,1.82,13.54v.05c-.19,3.36,1.16,29,1.16,29H301s1.84-22.22,1.95-28C303.76,268.47,303.72,252.06,303.64,243.7Z"/><rect class="cls-11" x="288.45" y="196.62" width="7.02" height="8.18"/><path class="cls-11" d="M284.32,193.57a1.59,1.59,0,1,0,1.55-1.93A1.76,1.76,0,0,0,284.32,193.57Z"/><path class="cls-11" d="M296.51,193.57a1.59,1.59,0,1,0,1.56-1.93A1.77,1.77,0,0,0,296.51,193.57Z"/><path class="cls-11" d="M291.85,200.71h.24a6,6,0,0,0,6-6V189.6a4.94,4.94,0,0,0-4.93-4.92H290.8a4.94,4.94,0,0,0-4.93,4.92v5.14A6,6,0,0,0,291.85,200.71Z"/><path class="cls-11" d="M283.31,205.38s-4.29-1.71-6,4c-1.5,5-3.92,12.41-4.83,15.47a2.4,2.4,0,0,0,1.77,2.68h0a2.54,2.54,0,0,0,3.18-.81c1.5-2.84,5-9.79,7.43-14.5C287.58,206.89,283.31,205.38,283.31,205.38Z"/><path class="cls-11" d="M299.74,203.87s-4.51,1.06-2.34,6.67c1.9,4.91,4.52,12.23,5.67,15.21a2.53,2.53,0,0,0,3.08,1.15h0a2.41,2.41,0,0,0,2.06-2.47c-.54-3.14-2-10.75-3-15.9C304.11,202.66,299.74,203.87,299.74,203.87Z"/><path class="cls-11" d="M303.4,223s-2.55,2.15,2.75,5.32c4.63,2.76,11.72,6.65,14.54,8.33a2,2,0,0,0,2.65-.33h0a1.84,1.84,0,0,0-.52-2.52c-2.57-2-8.86-6.87-13.12-10.16C304.84,219.85,303.4,223,303.4,223Z"/><path class="cls-11" d="M288.45,202.93s-7.58,1.56-10.46,2.85-5.55,15.07-5.55,15.07l6.78,2.9L276.43,242a4.08,4.08,0,0,0,3.57,4.6,76.32,76.32,0,0,0,22-.15,4.1,4.1,0,0,0,3.44-4.28c-1.1-16.36-3.36-30.08-3.36-30.08l.86,11.63,6.56-2.4-2.72-15.61a4.91,4.91,0,0,0-3.82-2.75l-7.45-1A7.19,7.19,0,0,1,288.45,202.93Z"/><path class="cls-11" d="M282.57,302.91s-9.23,0-9.23,5H287.8l-.21-5"/><path class="cls-11" d="M298.57,302.91s9.23,0,9.23,5H293.34l.21-5"/><path class="cls-11" d="M291.65,201.41a7,7,0,0,0,6.43-4.17c2-4.38,2.93-8.74-.69-12.22a8,8,0,0,0-10.51-.51c-1.83,1.75-3.48,4.17-2.65,8.81S288.27,201.41,291.65,201.41Z"/><rect class="cls-11" x="205.72" y="199.96" width="54.18" height="98.51"/><rect class="cls-11" x="402.24" y="209.45" width="54.18" height="89.02"/></g><rect class="cls-4" x="72.65" y="318.45" width="413.89" height="16.98"/><rect class="cls-13" x="105.08" y="318.45" width="94.21" height="16.98"/><rect class="cls-14" x="98.66" y="335.43" width="107.06" height="16.6"/><rect class="cls-15" x="43.58" y="355.09" width="4.11" height="6.93"/><rect class="cls-15" x="80.17" y="355.09" width="4.11" height="6.93"/><rect class="cls-3" x="41.53" y="291.86" width="44.82" height="66.04"/><rect class="cls-6" x="43.91" y="294.25" width="40.06" height="61.27"/><rect class="cls-11" x="108.95" y="196.26" width="70" height="102.41"/><polygon class="cls-16" points="119.78 230.27 144.05 222.95 144.05 198.69 119.78 206 119.78 230.27"/><g class="cls-17"><path class="cls-6" d="M149.26,173.13v128l-34.69,10.59v-128l37.1-10.59m3.21-6.89L109,178.55v140l45.93-12.31v-140Z"/><path class="cls-6" d="M110.09,249h0c0,1.58.68,2.66,1.52,2.41l40.61-12.19c.84-.25,1.52-1.73,1.52-3.32h0c0-1.58-.68-2.66-1.52-2.41l-40.61,12.19C110.77,245.89,110.09,247.38,110.09,249Z"/></g><path class="cls-15" d="M38.71,139.74v29.37a68.59,68.59,0,0,0,53.53,0h0V139.74Z"/><path class="cls-15" d="M199.3,139.74v29.37l-.63.27a67,67,0,0,1-52.27,0l-.63-.27V139.74"/><path class="cls-15" d="M306.36,139.74v29.37h0a68.59,68.59,0,0,1-53.53,0h0V139.74"/><path class="cls-15" d="M413.41,139.74v29.37h0a68.59,68.59,0,0,1-53.53,0h0V139.74"/><path class="cls-15" d="M520.47,139.74v29.37h0a68.59,68.59,0,0,1-53.53,0h0V139.74"/><path class="cls-9" d="M145.77,139.74v29.37h0a68.59,68.59,0,0,1-53.53,0h0V139.74"/><path class="cls-9" d="M252.83,139.74v29.37h0a65.18,65.18,0,0,1-51,1l-2.54-1V139.74"/><path class="cls-9" d="M359.88,139.74v29.37h0a68.57,68.57,0,0,1-53.52,0h0V139.74"/><path class="cls-9" d="M466.94,139.74v29.37h0a68.59,68.59,0,0,1-53.53,0h0V139.74"/><polyline class="cls-3" points="38.72 139.74 77.24 84.42 122.21 84.42 92.24 139.74"/><polyline class="cls-3" points="466.94 139.74 436.98 84.42 481.94 84.42 520.47 139.74"/><polyline class="cls-12" points="92.24 139.74 122.21 84.42 167.17 84.42 145.77 139.74"/><polyline class="cls-3" points="145.77 139.74 167.17 84.42 212.14 84.42 199.3 139.74"/><polyline class="cls-12" points="199.3 139.74 212.14 84.42 257.11 84.42 252.83 139.74"/><polyline class="cls-3" points="252.83 139.74 257.11 84.42 302.07 84.42 306.36 139.74"/><polyline class="cls-12" points="306.36 139.74 302.07 84.42 347.04 84.42 359.88 139.74"/><polyline class="cls-3" points="359.88 139.74 347.04 84.42 392.01 84.42 413.41 139.74"/><polyline class="cls-12" points="413.41 139.74 392.01 84.42 436.98 84.42 466.94 139.74"/><rect class="cls-4" x="77.24" y="69.52" width="404.7" height="14.9"/><rect class="cls-16" y="17.87" width="63.93" height="63.93" rx="11.17"/><rect class="cls-6" x="4.52" y="22.38" width="54.9" height="54.9" rx="8.56"/><rect class="cls-4" x="77.24" y="15.95" width="404.7" height="14.9"/><ellipse class="cls-18" cx="185.36" cy="375.51" rx="32.25" ry="7.67"/><path class="cls-19" d="M171.73,303.83a16,16,0,0,1,.81,3.61c0,1-.39,3.06-.82,3s-.43-3.83-.69-4-1.58,2.08-1.63,2.6,1.31,4.06.94,4.17-1.74-1.56-2.45-3.61,1-5.16,1-5.16Z"/><path class="cls-19" d="M167.41,279.24s-3.44.3-2.22,6.95c1.07,5.81,2.5,14.43,3.15,18a2.12,2.12,0,0,0,2.21,1.87h0a2.12,2.12,0,0,0,1.72-2.33c-.18-3.59-.73-12.31-1.09-18.22C170.76,278.75,167.41,279.24,167.41,279.24Z"/><path class="cls-19" d="M193.12,259.05l-.54-.17a27.56,27.56,0,0,0-15.94,0l-.55.17a2.05,2.05,0,0,0-1.25,1.73c-.86,5.93-.05,25.26.25,31.65.06,1.17.78,2.07,1.64,2.07h15.74c.87,0,1.59-.9,1.64-2.07.3-6.39,1.12-25.72.26-31.65A2.05,2.05,0,0,0,193.12,259.05Z"/><path class="cls-3" d="M171.17,338.46v-.13C171.05,338,171.14,338.45,171.17,338.46Z"/><path class="cls-6" d="M198.72,303.29a38.07,38.07,0,0,0-.58-6.31v0c-1.56-8.44-4-8.87-4-8.87h-19.5s-1.91,1-3.47,9.45l-.21,1.56a71.21,71.21,0,0,0-.58,8c-.14,8.89-.06,24.31.81,31.38.11,6.54,2.12,31.61,2.12,31.61h8.05s1.46-29,1.26-32.75c0,0,0,0,0-.05.54-3.85,1.31-9.56,2-15.28.66,5.72,1.43,11.43,2,15.28a.09.09,0,0,1,0,.05c-.2,3.79,1.26,32.75,1.26,32.75h8.06s2-25.07,2.11-31.61C198.85,331.23,198.81,312.72,198.72,303.29Z"/><rect class="cls-19" x="182.27" y="250.19" width="7.6" height="9.23"/><path class="cls-19" d="M177.79,246.75a1.74,1.74,0,1,0,1.69-2.17A2,2,0,0,0,177.79,246.75Z"/><path class="cls-19" d="M191,246.75a1.74,1.74,0,1,0,1.68-2.17A2,2,0,0,0,191,246.75Z"/><path class="cls-19" d="M186.08,254.81h0a6.62,6.62,0,0,0,6.6-6.61v-6a5.45,5.45,0,0,0-5.44-5.44h-2.32a5.46,5.46,0,0,0-5.44,5.44v6A6.62,6.62,0,0,0,186.08,254.81Z"/><path class="cls-19" d="M176.71,260.07s-4.65-1.93-6.51,4.55c-1.62,5.68-4.24,14-5.22,17.46a2.7,2.7,0,0,0,1.91,3h0a2.7,2.7,0,0,0,3.45-.92c1.62-3.2,5.45-11,8-16.35C181.33,261.78,176.71,260.07,176.71,260.07Z"/><path class="cls-19" d="M187,263.25s1.92,4.65,7.81,1.38c5.17-2.87,12.9-6.91,16-8.65a2.7,2.7,0,0,0,.79-3.48h0a2.71,2.71,0,0,0-3.09-1.8c-3.41,1.12-11.66,4-17.25,5.88C184.92,258.77,187,263.25,187,263.25Z"/><path class="cls-19" d="M211.2,255.29s2.86-2.29-2.7-6.12c-4.87-3.36-12.33-8.09-15.29-10.13a2.12,2.12,0,0,0-2.89.24h0a2.12,2.12,0,0,0,.44,2.86c2.67,2.41,9.22,8.19,13.65,12.11C209.47,258.71,211.2,255.29,211.2,255.29Z"/><path class="cls-3" d="M182.27,257.31s-8.21,1.76-11.32,3.21-6,17-6,17l7.34,3.27-3,20.53a4.57,4.57,0,0,0,3.89,5.19,79,79,0,0,0,23.84-.17,4.56,4.56,0,0,0,3.73-4.8c-1.2-18.46-3.65-33.94-3.65-33.94l7.67-3.87-3.27-10.64-11.52,3.07A7.54,7.54,0,0,1,182.27,257.31Z"/><path class="cls-6" d="M175.91,370.07s-10,0-10,5.61h15.65l-.22-5.61"/><path class="cls-6" d="M193.22,370.07s10,0,10,5.61H187.57l.22-5.61"/><path class="cls-6" d="M185.74,255.59a7.53,7.53,0,0,0,7-4.7c2.16-4.94,3.17-9.86-.75-13.78a8.45,8.45,0,0,0-11.39-.57c-2,2-3.76,4.7-2.86,9.93S182.08,255.59,185.74,255.59Z"/><ellipse class="cls-18" cx="300.2" cy="375.51" rx="32.25" ry="7.67"/><path class="cls-19" d="M303.73,311.11c1.36-8.46-4.61-10.31-4.61-10.31s-6.13-3.56-7.91,4.78c-1.36,6.39-2.59,26-3.15,33.95a4.68,4.68,0,0,0,2.89,4.9h0c1.81.56,3.66-.58,4.31-2.67C297.58,334.33,302.68,317.61,303.73,311.11Z"/><path class="cls-19" d="M295.47,341.12a3.65,3.65,0,0,0-7.18-1.3c-.81,3.49-3.78,30.67-3.78,30.67l4.43.81S295,344.67,295.47,341.12Z"/><path class="cls-19" d="M284.76,370.39s-7.84,3.5-8.77,3.95-1.32,1.34,1.09,1.34h10a1.87,1.87,0,0,0,2-1.67v-3.62Z"/><path class="cls-19" d="M318.54,308.54c-.16-8.58-6.37-9.33-6.37-9.33s-6.22-.75-6.48,7.77c-.2,6.54,1.63,24.37,2.49,32.31a4.69,4.69,0,0,0,3.72,4.31h0c1.89.23,3.49-1.22,3.76-3.4C316.62,332.48,318.66,315.12,318.54,308.54Z"/><path class="cls-19" d="M315.76,339.54a3.65,3.65,0,0,0-7.3,0c-.17,3.57,1.74,30.85,1.74,30.85h4.51S315.93,343.11,315.76,339.54Z"/><path class="cls-19" d="M308.25,265.22a12.62,12.62,0,0,1,10.55,2.94c4.13,3.73,10.37,9.08,12.88,11.35a2.53,2.53,0,0,1,0,3.36h0a2.53,2.53,0,0,1-3.22,1c-2.89-1.75-9.86-6.11-14.57-9.07A12.7,12.7,0,0,1,308.25,265.22Z"/><path class="cls-19" d="M312.58,265.79l-.52-.16a26,26,0,0,0-15,0l-.52.16a1.92,1.92,0,0,0-1.17,1.63c-.81,5.59,0,23.8.24,29.82.05,1.1.73,1.95,1.55,1.95H312c.81,0,1.49-.85,1.54-1.95.29-6,1.05-24.23.24-29.82A1.92,1.92,0,0,0,312.58,265.79Z"/><path class="cls-19" d="M317.81,303.85c-1.48-8-4.29-10.72-4.29-10.72H295.41s-2.68,3.83-4.15,11.78a2.9,2.9,0,0,0,1.3,3,24.19,24.19,0,0,0,23.55,0A5.1,5.1,0,0,0,317.81,303.85Z"/><rect class="cls-19" x="302.35" y="257.44" width="7.16" height="8.69"/><path class="cls-19" d="M309.3,260.43s-2.07,2.63-6.95,2.63v-3.74Z"/><path class="cls-19" d="M298.14,254.2a1.64,1.64,0,1,0,1.58-2A1.85,1.85,0,0,0,298.14,254.2Z"/><path class="cls-19" d="M310.58,254.2a1.64,1.64,0,1,0,1.58-2A1.85,1.85,0,0,0,310.58,254.2Z"/><path class="cls-19" d="M305.94,261.79h0a6.23,6.23,0,0,0,6.22-6.22v-5.69a5.14,5.14,0,0,0-5.12-5.13h-2.19a5.15,5.15,0,0,0-5.13,5.13v5.69A6.24,6.24,0,0,0,305.94,261.79Z"/><path class="cls-19" d="M298.44,265.25s-7,.44-7.23,6.79c-.23,5.56-.79,13.77-.93,17.15a2.55,2.55,0,0,0,2.42,2.34h0a2.55,2.55,0,0,0,3-1.6c.78-3.29,2.55-11.32,3.74-16.76C300.77,267,298.44,265.25,298.44,265.25Z"/><path class="cls-19" d="M293.58,286.4s-3-1.35-5,4.67c-1.81,5.27-4.38,14.11-5.48,17.32-.36,1.06-.2,1.07.7,1.45h0a2,2,0,0,0,2.49-1.12c1.51-3,5.1-10.44,7.53-15.46C296.56,287.54,293.58,286.4,293.58,286.4Z"/><path class="cls-19" d="M332,280.23s1.88,2.66-3.63,5.83c-4.83,2.79-11.89,7-14.82,8.71a2,2,0,0,1-2.7-.44h0a2,2,0,0,1,.63-2.66c2.69-2.05,9.28-7,13.74-10.33C330.31,277.53,332,280.23,332,280.23Z"/><path class="cls-6" d="M314.41,275.14s-9.84-2.68-19.42-.35c-3,2.16-.44,9.33-.44,9.33v9s-4.47,9.34-7.07,33.88-3.94,41.73-3.94,41.73l8.42,1.65,12.37-59.45,3.46,58.87h8.35s1.05-27.67,2.4-40.56,3.15-27.31-4.11-37.12A109.43,109.43,0,0,1,314.41,275.14Z"/><path class="cls-3" d="M281.87,371.68l.05.07c.25.28,1.2,1.48.14,2-1.22.59-2.3-1.12-2.3-1.12s-3.48,1.24-4.29,1.55-.53,1.5-.53,1.5h14.17a4.7,4.7,0,0,0,0-4c-2,0-4.6,1.69-4.6,1.69l-1.65-2.13"/><path class="cls-19" d="M310.33,370.39s-7.84,3.5-8.77,3.95-1.31,1.34,1.09,1.34h10a1.88,1.88,0,0,0,2-1.67v-3.62Z"/><path class="cls-3" d="M307.44,371.68l.06.07c.24.28,1.2,1.48.13,2s-2.29-1.12-2.29-1.12-3.49,1.24-4.3,1.55-.53,1.5-.53,1.5h14.18a4.7,4.7,0,0,0,0-4c-2,0-4.61,1.69-4.61,1.69l-1.64-2.13"/><path class="cls-6" d="M299.72,253.94a7.52,7.52,0,0,1-.4-6.69c1.57-3.61-.93-5,3.3-8.34s15.51,3.42,9.54,15c-.46-4.15-4.54-.92-7.08-6.84A5.51,5.51,0,0,0,299.72,253.94Z"/><path class="cls-19" d="M285.86,308.39a14.94,14.94,0,0,1,0,3.48c-.26.94-1,2.73-1.38,2.63s.39-3.62.18-3.83-1.87,1.59-2,2.06.37,4,0,4-1.27-1.79-1.51-3.82,1.95-4.55,1.95-4.55Z"/><path class="cls-19" d="M313.3,296.85c-.29-.22,1.23-2.47,1.23-2.47s-2.73,2.63-3,2.38,2.28-3,2.28-3-3.32,2.47-3.56,2.17,2.77-2.82,2.77-2.82-3.35,2.08-3.49,1.68,3.93-3.41,3.93-3.41-2.66,1.08-2.94.84.43-.51,1.36-1.13a13,13,0,0,1,2.19-1.18,2,2,0,0,1,2.25.44h0a2,2,0,0,1,.2,2.71C315.29,294.66,313.49,297,313.3,296.85Z"/><path class="cls-16" d="M302.16,254.52h7.76l.95,4.57a5.86,5.86,0,0,1-10.18.08Z"/><line class="cls-20" x1="299.2" y1="252.32" x2="302.83" y2="255.19"/><line class="cls-20" x1="312.69" y1="252.32" x2="309.06" y2="255.19"/><ellipse class="cls-18" cx="644.73" cy="375.51" rx="32.25" ry="7.67"/><path class="cls-6" d="M625.4,243.87c2.25-5.67,6.76-5.34,7.5-5.24.75-.1,5.26-.43,7.51,5.24,2,5.09,3,7.15,1.3,8.7a3.86,3.86,0,0,1-2.62,1H626.72a3.86,3.86,0,0,1-2.62-1C622.41,251,623.38,249,625.4,243.87Z"/><path class="cls-19" d="M635.33,308.73C633.92,300,640.11,298,640.11,298s6.36-3.81,8.2,4.83c1.42,6.64,2.69,27.06,3.27,35.32a4.85,4.85,0,0,1-3,5.09h0c-1.88.58-3.79-.6-4.47-2.78C641.71,332.8,636.42,315.47,635.33,308.73Z"/><path class="cls-19" d="M643.9,339.84a3.78,3.78,0,0,1,7.44-1.34c.84,3.61,3.92,31.8,3.92,31.8l-4.6.83S644.38,343.52,643.9,339.84Z"/><path class="cls-19" d="M655,370.2s8.13,3.63,9.09,4.09,1.37,1.39-1.12,1.39H652.59a2,2,0,0,1-2.1-1.73V370.2Z"/><path class="cls-19" d="M620,306.06c.17-8.89,6.61-9.67,6.61-9.67s6.44-.78,6.72,8.05c.21,6.78-1.69,25.27-2.58,33.51a4.88,4.88,0,0,1-3.86,4.47h0c-2,.23-3.62-1.27-3.9-3.53C622,330.88,619.85,312.88,620,306.06Z"/><path class="cls-19" d="M622.86,338.2a3.79,3.79,0,0,1,7.57,0c.18,3.71-2,32.42-2,32.42l-4.51-.42S622.68,341.91,622.86,338.2Z"/><path class="cls-19" d="M627.44,263.77s-2.85-4-7.74.42c-4.28,3.87-10.75,9.41-13.36,11.77a2.65,2.65,0,0,0,0,3.49h0a2.63,2.63,0,0,0,3.33,1c3-1.81,10.23-6.34,15.12-9.4C630.4,267.57,627.44,263.77,627.44,263.77Z"/><path class="cls-19" d="M626.16,261.73l.53-.16a26.9,26.9,0,0,1,15.57,0l.54.17a2,2,0,0,1,1.22,1.69c.84,5.8,0,24.68-.25,30.93,0,1.14-.76,2-1.6,2H626.79c-.85,0-1.55-.88-1.6-2-.3-6.25-1.09-25.13-.25-30.93A2,2,0,0,1,626.16,261.73Z"/><path class="cls-19" d="M620.73,301.2c1.53-8.25,4.45-11.12,4.45-11.12h19.05s2.5,4,4,12.22a3,3,0,0,1-1.35,3.07,25,25,0,0,1-24.41,0A5.26,5.26,0,0,1,620.73,301.2Z"/><rect class="cls-19" x="629.34" y="253.08" width="7.42" height="9.01" transform="translate(1266.1 515.17) rotate(180)"/><path class="cls-19" d="M629.55,256.18s2.15,2.73,7.21,2.73V255Z"/><ellipse class="cls-19" cx="639.48" cy="249.71" rx="1.65" ry="2.12"/><ellipse class="cls-19" cx="626.58" cy="249.71" rx="1.65" ry="2.12"/><path class="cls-19" d="M633,257.58h0a6.47,6.47,0,0,1-6.45-6.45v-5.89a5.34,5.34,0,0,1,5.32-5.32h2.27a5.33,5.33,0,0,1,5.31,5.32v5.89A6.47,6.47,0,0,1,633,257.58Z"/><path class="cls-19" d="M640.78,261.32s4.65-1.59,6.05,4.86c1.23,5.64,3.25,13.92,4,17.34a2.64,2.64,0,0,1-2.05,2.83h0a2.64,2.64,0,0,1-3.31-1.11c-1.38-3.23-4.61-11.12-6.8-16.45C636.16,262.69,640.78,261.32,640.78,261.32Z"/><path class="cls-6" d="M644.09,285.07a104.68,104.68,0,0,1,6.49,29.59c-10,1.95-15.46,1.67-15.46,1.67l-.88-7-.67,7.05s-8,1.16-14-.69c-.44-12.16-.23-23.05,5.28-29.76C637.77,286.77,644.09,285.07,644.09,285.07Z"/><path class="cls-3" d="M636.76,260.42l6,.79s2.72,7.88,2.72,14.12a29.71,29.71,0,0,1-1.34,9.74s-7.06,3.44-19.25.83a112.23,112.23,0,0,1-.6-23.79l5.1-1.32A7.61,7.61,0,0,0,636.76,260.42Z"/><path class="cls-19" d="M650.79,283.21s1.11,3.19-5.12,4.71c-5.45,1.34-13.47,3.46-16.78,4.27a2.05,2.05,0,0,1-2.51-1.24h0a2,2,0,0,1,1.34-2.44c3.17-1.25,10.92-4.2,16.17-6.2C649.88,280,650.79,283.21,650.79,283.21Z"/><path class="cls-19" d="M606,276.71s-2,2.75,3.76,6.05c5,2.88,9.92,5.87,13,7.63a2.09,2.09,0,0,0,2.8-.46l.09-.15A2.09,2.09,0,0,0,625,287c-2.79-2.13-7.31-5.7-11.94-9.16C607.77,273.91,606,276.71,606,276.71Z"/><path class="cls-6" d="M650.49,372.44H655l1-1.79,2.42.83c8.29.43,6.69,4.2,6.69,4.2H650.49A5.73,5.73,0,0,1,650.49,372.44Z"/><path class="cls-19" d="M628.41,370.2s8.13,3.63,9.1,4.09,1.36,1.39-1.13,1.39H626a2,2,0,0,1-2.1-1.73V370.2Z"/><path class="cls-6" d="M623.9,372.44h4.51l1-1.79,2.41.83c8.29.43,6.7,4.2,6.7,4.2H623.9A5.73,5.73,0,0,1,623.9,372.44Z"/><path class="cls-19" d="M626.7,294.52c.29-.23-1.37-2.51-1.37-2.51s2.92,2.63,3.22,2.36-2.48-3-2.48-3,3.54,2.44,3.77,2.12-3-2.81-3-2.81,3.54,2,3.68,1.6-4.21-3.39-4.21-3.39,2.81,1,3.08.77-.46-.52-1.45-1.13a14.65,14.65,0,0,0-3.69-1.59l-2.22,2.35S626.41,294.76,626.7,294.52Z"/><path class="cls-19" d="M625.38,294.15c-.17-.33,2.27-1.74,2.27-1.74s-3.74,1.21-3.9.85,3.49-1.76,3.49-1.76-4.22.79-4.3.4,3.86-1.36,3.86-1.36-4.06.41-4,0,5.21-1.4,5.21-1.4-3-.2-3.12-.54.63-.29,1.78-.45a14.58,14.58,0,0,1,4,.05l1.07,3S625.55,294.49,625.38,294.15Z"/><path class="cls-16" d="M636.76,250.05h-8l-1,4.73a6.07,6.07,0,0,0,10.56.08Z"/><line class="cls-21" x1="639.83" y1="247.77" x2="636.07" y2="250.74"/><line class="cls-21" x1="625.85" y1="247.77" x2="629.61" y2="250.74"/><path class="cls-6" d="M640.9,248s-6.21,1.21-11.35-6.7c-.95,5.4-3.14,7.18-5,7.18,0-4,3.59-9.35,8.46-9.35S639.89,242.48,640.9,248Z"/><ellipse class="cls-18" cx="529.89" cy="375.51" rx="32.25" ry="7.67"/><path class="cls-6" d="M516.38,254.39c5-3.39.56-7.88,3.09-13.74,2.39-5.53,6.76-5.12,7.24-5.05s4.85-.48,7.24,5.05c2.53,5.86-1.89,10.35,3.09,13.74s-.9,8.59-10.28,8.63h-.1C517.28,263,511.41,257.77,516.38,254.39Z"/><path class="cls-19" d="M537.72,370.07s8.07,3.71,9.06,4.19,1.4,1.42-1.15,1.42H535a2,2,0,0,1-2.16-1.77l.08-3.84Z"/><path class="cls-19" d="M518.53,258.12s-3.83.76-5.26,5.95c-.24,5.9-.9,15-1,18.59-.05,1.19,1.14,1.88,2.63,2.09h0a2.69,2.69,0,0,0,3.14-1.7c.83-3.49,2.71-12,4-17.78C523.42,258.69,518.53,258.12,518.53,258.12Z"/><path class="cls-19" d="M519.71,259.05l.55-.17a27.56,27.56,0,0,1,15.94,0l.55.17a2,2,0,0,1,1.24,1.73c.86,5.93,0,25.26-.25,31.65,0,1.17-.77,2.07-1.64,2.07H520.36c-.87,0-1.58-.9-1.64-2.07-.3-6.39-1.11-25.72-.25-31.65A2,2,0,0,1,519.71,259.05Z"/><path class="cls-6" d="M516,337.27q-1-8.41-1.9-16.86c-.53-5.3-1.37-10.86-1-16.2a38.29,38.29,0,0,1,3-11.68c.23-.55,1.72-4.46,2.59-4.46h19.22c.66,0,2.09,4.21,2.26,4.66,2.32,6.11,2.45,12,2,18.38-.38,6.05-1,12.08-1.55,18.1-.27,2.62-.54,5.23-.83,7.85a5.32,5.32,0,0,1-.28,1.27c-.08,6.34-1.86,31.74-1.86,31.74h-4.79s-1.29-29-1.11-32.75c0,0,0,0,0-.05-.94-7.6-2.66-22.39-2.93-30.3h-.44c-.62,0-1.22,0-1.8-.05-.32,8.56-1.82,23.05-2.59,30.14a5.86,5.86,0,0,1-.28,1.27c-.08,6.34-1.87,31.74-1.87,31.74h-4.78s-1.29-29-1.11-32.75A.09.09,0,0,1,516,337.27Z"/><path class="cls-19" d="M537.14,258.12s5-.79,5.25,5.95c.25,5.9.91,15.07,1.06,18.66,0,1.2-1.14,1.81-2.64,2h0a2.7,2.7,0,0,1-3.14-1.7c-.83-3.49-2.71-12-4-17.78C532.24,258.69,537.14,258.12,537.14,258.12Z"/><path class="cls-3" d="M528.23,257.05l10.15,1.1-.45,29.92a31.76,31.76,0,0,1-19.22,0l-.63-30Z"/><path class="cls-19" d="M543.37,283.22s-1,3.3-7.25.75c-5.48-2.23-13.63-5.38-17-6.74a2.11,2.11,0,0,1-1.38-2.54h0a2.12,2.12,0,0,1,2.63-1.21c3.48.91,11.91,3.22,17.61,4.78C544.53,280,543.37,283.22,543.37,283.22Z"/><path class="cls-19" d="M512.3,283.22s1,3.3,7.25.75c5.47-2.23,13.62-5.38,17-6.74a2.13,2.13,0,0,0,1.39-2.54h0a2.13,2.13,0,0,0-2.64-1.21c-3.47.91-11.9,3.22-17.61,4.78C511.13,280,512.3,283.22,512.3,283.22Z"/><path class="cls-19" d="M528.25,261.6h0a3.8,3.8,0,0,1-3.8-3.8v-7.08h7.6v7.08A3.8,3.8,0,0,1,528.25,261.6Z"/><path class="cls-19" d="M525.48,253.24s1.39,3.28,6.57,3.28v-4.33Z"/><path class="cls-3" d="M538.38,258.15s5.07-.3,5.07,9.31H538Z"/><path class="cls-3" d="M518.08,258.15s-5.07-.3-5.07,9.31h5.55Z"/><path class="cls-3" d="M541.18,371.66l-1.95,3.18h-6.48a.42.42,0,0,0-.42.42h0a.42.42,0,0,0,.42.42h14.9a.42.42,0,0,0,.42-.42v0a.42.42,0,0,0-.42-.42h-3.48l.79-1.39-4-1.75"/><path class="cls-19" d="M522,370.07s8.08,3.71,9.07,4.19,1.4,1.42-1.15,1.42H519.27a2,2,0,0,1-2.16-1.77l.08-3.84Z"/><path class="cls-3" d="M525.43,371.66l-1.94,3.18H517a.42.42,0,0,0-.42.42h0a.42.42,0,0,0,.42.42h14.9a.42.42,0,0,0,.42-.42v0a.42.42,0,0,0-.42-.42h-3.48l.79-1.39-4-1.75"/><path class="cls-19" d="M512.66,276.27c0-.38,2.91-.32,2.91-.32s-3.92-.92-3.86-1.32,4,.3,4,.3-4.12-1.54-4-1.92,4.11.85,4.11.85-3.78-1.79-3.51-2.15,5.31,1.55,5.31,1.55-2.5-1.76-2.44-2.14.7.09,1.79.56a14.89,14.89,0,0,1,3.5,2.17l-.67,3.24S512.63,276.65,512.66,276.27Z"/><path class="cls-19" d="M542.5,276.27c0-.38-2.91-.32-2.91-.32s3.91-.92,3.86-1.32-4,.3-4,.3,4.11-1.54,4-1.92-4.1.85-4.1.85,3.78-1.79,3.5-2.15-5.3,1.55-5.3,1.55,2.49-1.76,2.44-2.14-.7.09-1.79.56a14.89,14.89,0,0,0-3.5,2.17l.67,3.24S542.52,276.65,542.5,276.27Z"/><path class="cls-19" d="M526.51,237.83h0a7.49,7.49,0,0,1,7.47,7.46v6.21a3.6,3.6,0,0,1-4.15,3.58,10.27,10.27,0,0,1-8.56-10.1v-1.92A5.25,5.25,0,0,1,526.51,237.83Z"/><path class="cls-19" d="M534,246.52s3.29,4.19,0,4.19"/><path class="cls-6" d="M528.62,236.61a8.43,8.43,0,0,1,5.46,4.4,12.65,12.65,0,0,1-4-1.22,9.33,9.33,0,0,1-5,7.8,6.65,6.65,0,0,0-.65,6s-4.35-.46-4.35-8.84C520.1,237.62,525.6,234.82,528.62,236.61Z"/><line class="cls-22" x1="525.48" y1="245.57" x2="528.54" y2="247.65"/><line class="cls-22" x1="523.88" y1="248.9" x2="527.62" y2="252.79"/><path class="cls-16" d="M528.06,247.27h6.44a4.43,4.43,0,0,1,.94,2.6c0,1.5-2,4.69-3.92,5.26s-4.54-1-4.54-1Z"/><path class="cls-19" d="M527,246.88a2.08,2.08,0,1,1-2.81-1.72A2.36,2.36,0,0,1,527,246.88Z"/><ellipse class="cls-18" cx="415.05" cy="375.51" rx="32.25" ry="7.67"/><path class="cls-19" d="M395.63,304.16s-.85,2.81-1.13,3.8-1,2.9-1.46,2.79.42-3.84.2-4.06-2,1.68-2.16,2.18.39,4.25,0,4.28-1.35-1.91-1.6-4.06,2.86-6.5,2.86-6.5Z"/><path class="cls-19" d="M414.42,304.42c-.17-9.1-6.77-9.9-6.77-9.9s-6.59-.8-6.87,8.25c-.22,6.94,1.73,25.86,2.64,34.29a5,5,0,0,0,3.95,4.57h0c2,.25,3.71-1.29,4-3.6C412.38,329.83,414.55,311.4,414.42,304.42Z"/><path class="cls-19" d="M430,304.42c-.17-9.1-6.76-9.9-6.76-9.9s-6.59-.8-6.88,8.25c-.21,6.94,1.73,25.86,2.65,34.29a5,5,0,0,0,3.94,4.57h0c2,.25,3.71-1.29,4-3.6C427.93,329.83,430.09,311.4,430,304.42Z"/><path class="cls-19" d="M411.46,337.32a3.87,3.87,0,0,0-7.74,0c-.18,3.79,1.85,32.75,1.85,32.75h4.79S411.64,341.11,411.46,337.32Z"/><path class="cls-19" d="M405.74,370.07s-8.32,3.71-9.31,4.19-1.4,1.42,1.15,1.42H408.2a2,2,0,0,0,2.16-1.77v-3.84Z"/><path class="cls-19" d="M426.4,334.74a3.88,3.88,0,0,0-7.45,2.14c.88,3.7,10.83,31,10.83,31l4.59-1.32S427.62,338.34,426.4,334.74Z"/><path class="cls-19" d="M424.76,259.74s5-.79,5.25,5.95c.25,5.9.84,14.61,1,18.19a2.7,2.7,0,0,1-2.56,2.49h0a2.7,2.7,0,0,1-3.15-1.7c-.82-3.49-2.7-12-4-17.78C419.87,260.31,424.76,259.74,424.76,259.74Z"/><path class="cls-19" d="M423.58,259.05l-.55-.17a27.56,27.56,0,0,0-15.94,0l-.55.17a2,2,0,0,0-1.24,1.73c-.87,5.93-.05,25.26.25,31.65.05,1.17.77,2.07,1.64,2.07h15.74c.86,0,1.58-.9,1.64-2.07.3-6.39,1.11-25.72.25-31.65A2.06,2.06,0,0,0,423.58,259.05Z"/><path class="cls-19" d="M429.13,299.45c-1.57-8.44-4.55-11.38-4.55-11.38H405.35s-2.84,4.06-4.4,12.5a3.07,3.07,0,0,0,1.38,3.15,25.64,25.64,0,0,0,25,0A5.39,5.39,0,0,0,429.13,299.45Z"/><rect class="cls-19" x="411.24" y="250.19" width="7.6" height="9.23"/><path class="cls-19" d="M418.62,253.37s-2.2,2.79-7.38,2.79v-4Z"/><path class="cls-19" d="M406.15,259.74s-5-.79-5.25,5.95c-.25,5.9-.84,14.61-1,18.19a2.71,2.71,0,0,0,2.57,2.49h0a2.7,2.7,0,0,0,3.14-1.7c.83-3.49,2.71-12,4-17.78C411,260.31,406.15,259.74,406.15,259.74Z"/><path class="cls-19" d="M403.42,280.92s-3.15-1.42-5.34,5c-1.93,5.59-4.91,13.81-6.08,17.21a2.13,2.13,0,0,0,1,2.72h0a2.13,2.13,0,0,0,2.65-1.2c1.6-3.21,5.41-11.08,8-16.4C406.57,282.13,403.42,280.92,403.42,280.92Z"/><path class="cls-3" d="M429.16,335.4c0-2.16,7.9-37.69-4.36-48.39H405.31s-5.4,7.33-5.4,24.41,1,57.33,1,57.33h11.79L415.58,307s1,21.75,1.95,29.47,8.5,31.41,8.5,31.41l10.44-2.79S429.16,337.57,429.16,335.4Z"/><path class="cls-6" d="M411.24,257.05s-7.8.66-10.34,4.35c-2,3-1.82,18.32-2.53,20.69s-9.39,18.66-6.37,21,4.65,3.14,5.46,2.34,2.88-6.05,2.88-6.05,14.21,1.85,23,1.85,10.25-4.62,9.52-7.87S432,275.5,431,268.09s-.87-8.3-12.16-11A11,11,0,0,1,411.24,257.05Z"/><path class="cls-19" d="M431,284.83s-1,3.31-7.25.76c-5.47-2.23-13.63-5.38-16.95-6.74a2.12,2.12,0,0,1-1.39-2.54h0A2.13,2.13,0,0,1,408,275.1c3.47.91,11.9,3.22,17.61,4.78C432.16,281.66,431,284.83,431,284.83Z"/><path class="cls-6" d="M408.15,281.45a3,3,0,0,1-1.47-3.39,9.88,9.88,0,0,1,1.78-4.1c1.5-1.5,14.88,3.6,14.88,3.6s-.55-13.12,2.69-18.14c4.78,1.36,4.88,3.63,6.11,14.95S431.13,289,426,289C422.07,289,412.32,283.78,408.15,281.45Z"/><path class="cls-6" d="M405.54,369.62s-6.51,2-9.07,2.85a2.17,2.17,0,0,0-1.33,3.21h15.22v-5.61A5.32,5.32,0,0,1,405.54,369.62Z"/><path class="cls-19" d="M429.92,367.4s-7,5.81-7.85,6.52-1,1.74,1.49,1.06l10.23-2.83a2,2,0,0,0,1.61-2.28l-1-3.7Z"/><path class="cls-6" d="M429.61,367s-5.74,3.67-8,5.16a2.17,2.17,0,0,0-.41,3.45l14.66-4.07-1.5-5.4A5.31,5.31,0,0,1,429.61,367Z"/><path class="cls-19" d="M400.5,277.79c0-.38,2.91-.32,2.91-.32s-3.91-.92-3.86-1.32,4,.3,4,.3-4.11-1.54-4-1.92,4.1.85,4.1.85-3.78-1.79-3.5-2.15,5.3,1.55,5.3,1.55S403,273,403,272.64s.7.09,1.79.56a14.89,14.89,0,0,1,3.5,2.17l-.67,3.24S400.48,278.17,400.5,277.79Z"/><path class="cls-19" d="M414.55,237.14h2.32a5.44,5.44,0,0,1,5.44,5.44v4a8.68,8.68,0,0,1-8.68,8.68h-2a2.56,2.56,0,0,1-2.56-2.56V242.58A5.44,5.44,0,0,1,414.55,237.14Z"/><path class="cls-19" d="M409.11,246.18s-3.43,4.35,0,4.35"/><path class="cls-6" d="M416.72,247.17s-2.26-2.5-1.73-7.56c-4.39,0-5.55,1.13-5.55,1.13s-2.69-2.32.77-5.18,12.23-2.13,13.5,3.59.54,11.61-5,14.41A7.56,7.56,0,0,0,416.72,247.17Z"/><line class="cls-22" x1="417.31" y1="245.78" x2="414.25" y2="247.86"/><line class="cls-22" x1="418.91" y1="249.12" x2="415.16" y2="253"/><path class="cls-16" d="M414.73,247.48h-6.44a4.41,4.41,0,0,0-1,2.61c0,1.49,2,4.68,3.92,5.25s4.76-.46,4.76-.46Z"/><path class="cls-19" d="M415.8,247.09a2.08,2.08,0,1,0,3.77,1.43,2.08,2.08,0,1,0-3.77-1.43Z"/></g></g></svg>