<svg xmlns="http://www.w3.org/2000/svg" viewBox="0 0 2644.84 1406.64"><defs><style>.cls-1{fill:#ebf3fa;}.cls-2{fill:#d5e5fb;}.cls-3{fill:#b7d3f3;}.cls-4{fill:#d2e3fc;}.cls-5{fill:#c5dcf8;}.cls-6{fill:#ffb27d;}.cls-7{fill:#1c468a;}.cls-8{fill:#163560;}.cls-9{fill:#b5453c;}.cls-10{fill:#ed975d;}.cls-11{fill:#fff;}.cls-12{fill:#ed7d2b;}.cls-13{fill:#f99746;}.cls-14{fill:#f9ddbf;}.cls-15{fill:#ed893e;}.cls-16{fill:#95c0f4;}.cls-17{fill:#78acea;}.cls-18{fill:#2e3552;}.cls-19{fill:#aec3ff;}.cls-20{fill:#a02e2e;}.cls-21{fill:#bc3f3f;}.cls-22{fill:#9db0f4;}.cls-23{fill:#233862;}.cls-24{fill:#2b478b;}.cls-25{fill:#e2915a;}.cls-26{fill:#2a4e96;}.cls-27{fill:#dceaff;}.cls-28{fill:#ed985f;}.cls-29{fill:#2c3a64;}</style></defs><title>Asset 1</title><g id="Layer_2" data-name="Layer 2"><g id="Слой_1" data-name="Слой 1"><path class="cls-1" d="M305.65,1402.81s-361.51-384.19-108-742.56c94.59-133.73,336.07-208.82,558.05-147.9,131.12,36,330,30.68,524.26-286.5,265-432.54,1364.9-235.86,1150.2,522-90.43,319.22,246.65,333.75,79.68,655.67Z"/><path class="cls-2" d="M2262.75,633.19l-787.42,658.75L1061,939c-77.54,68.29-197.29,173.68-317.77,279.44-82.33,72.28-149,130.69-203,178L164,1396c104.35-88.84,524.5-458.05,807.56-707.57l86.55-76.29,418.8,356.78L2091.57,454.6Z"/><polygon class="cls-2" points="1991.89 373.59 2366.91 749.75 2472.85 320.04 1991.89 373.59"/><path class="cls-3" d="M762.5,1166.19c-1.4-34.44-4.42-64.4-8-85.3-5.76-33.3-11-52.47-11-52.67-.76-2.93-11.72-14.78-36.09-14.42s-22.06,15.91-22.06,15.91h0a5.35,5.35,0,0,0,.17,1.38c.24.8,22.61,81.92,21.64,186.65,0,1.47-.18,4-.07,5.71,0,0,56.47,1.46,56.49,0C765.51,1214.3,764.55,1188.93,762.5,1166.19Z"/><path class="cls-4" d="M769.6,1217.23c0,1.46-.79,2.63-1.73,2.63h0c-.94,0-1.69-1.2-1.7-2.63h-48.4c0,1.46-.79,2.63-1.73,2.63h0c-1,0-1.71-1.23-1.7-2.71a730.48,730.48,0,0,0-4-82.68c-6.43-61.62-18.33-102.8-18.49-103.37a5,5,0,0,1-.18-1.39s-2.31-15.54,22.06-15.91,35.33,11.49,36.09,14.42c0,.15,3,11,6.89,30.51,1.29,6.47,2.69,13.88,4.12,22.16,3.61,20.9,6.63,50.86,8,85.3C770.85,1188.93,771.57,1208.08,769.6,1217.23Z"/><path class="cls-5" d="M710.72,1219.86H900.48s-4.42-17.89-114.32-15.22C708.39,1206.52,710.72,1219.86,710.72,1219.86Z"/><path class="cls-3" d="M695.28,1406.64c22-111.38,16.34-179.73,16.31-180.59-.05-1.71,3.11-3.27,4.81-3.33s9.31-.5,10.19,1c1.15,1.92,5.58,86.13-27.21,183Z"/><path class="cls-3" d="M872.45,1406.64c-22-111.38-16.34-179.73-16.32-180.59.06-1.71-3.1-3.27-4.8-3.33s-9.32-.5-10.2,1c-1.15,1.92-5.58,86.13,27.21,183Z"/><path class="cls-3" d="M907.56,1406.64c-22-111.38-16.34-179.73-16.31-180.59,0-1.71-3.11-3.27-4.81-3.33s-9.31-.5-10.19,1c-1.15,1.92-5.58,86.13,27.21,183Z"/><path class="cls-3" d="M730.62,1406.64c22-111.38,16.35-179.73,16.32-180.59-.05-1.71,3.11-3.27,4.81-3.33s9.31-.5,10.19,1c1.15,1.92,5.58,86.13-27.21,183Z"/><rect class="cls-3" x="706.95" y="1215.23" width="197.53" height="10.33" rx="3.89"/><path class="cls-6" d="M893.93,1054.19,957,1040.53l3.72,9.06S891.12,1091,884.6,1089,893.93,1054.19,893.93,1054.19Z"/><path class="cls-6" d="M836.58,1339.47a5.6,5.6,0,0,0-1,6s0,0,0,0c1.44,4,6.22,8.46,11.77,12.92.71.57,1.34,1.09,1.89,1.57l.42.38.33.3c5.17,4.77,3.22,5.86,12.52,15.54,10.6,11,17.9,11.23,20,10.22,1.76-.86-1.81-6.71-5.76-13.28-.2-.32-.38-.64-.58-1-.53-.87-1-1.76-1.57-2.64-4.64-7.91-3.45-11.62-2.35-23.4.9-9.57,14.89-53.46,14.89-53.46l-20.31-3.49s-6.12,34.94-12.86,40.33c-3.6,2.87-7.64,2.9-11.1,5l-.72.45A26.55,26.55,0,0,0,836.58,1339.47Z"/><path class="cls-7" d="M836.58,1339.47a5.6,5.6,0,0,0-1,6s0,0,0,0c1.77,4,6.42,8.43,11.79,12.88.7.58,1.32,1.11,1.87,1.61l.42.38.33.3c5.17,4.77,3.22,5.86,12.52,15.54,10.6,11,17.9,11.23,20,10.22,1.76-.86-1.81-6.71-5.76-13.28a45.21,45.21,0,0,1-18.9-13.92c-6.38-8.15-10.64-18.61-15-24.67l-.72.45A26.55,26.55,0,0,0,836.58,1339.47Z"/><path class="cls-6" d="M1000.37,1326.78c1.25,6.27,10.19,5.23,20.17,2.79s7.62.46,21.83-1.12,18.51-6.87,19-9c.39-1.88-6.64-2.54-14.17-3.4l-2.85-.35c-8.5-1.06-14.73-6.55-22.45-11.06-7.32-4.26-18.24-21.66-18.24-21.66l-19.49,1.55s10.23,15.53,14.18,22.29c2.33,4,2.21,9.22,1.92,13.28A24.78,24.78,0,0,0,1000.37,1326.78Z"/><path class="cls-7" d="M1020.54,1329.57c10-2.44,7.62.46,21.83-1.12s18.51-6.87,19-9c.39-1.88-6.64-2.54-14.17-3.4l-.07.14a40.1,40.1,0,0,1-20.35,6.33c-9.64.23-19.85-2.53-26.51-2.42a24.78,24.78,0,0,0,.15,6.66C1001.62,1333.05,1010.56,1332,1020.54,1329.57Z"/><path class="cls-6" d="M957,1040.53s4.65-11.37,9.75-11.84,21.36-3,22.52-.69,0,10.68-3.48,13.69-25.07,7.9-25.07,7.9Z"/><path class="cls-8" d="M925.68,1202.16l-42,113A38.26,38.26,0,0,1,871,1314c-5.7-1.64-12.22-5.94-12.22-5.94s10.42-108.54,29.52-131.12S925.68,1202.16,925.68,1202.16Z"/><path class="cls-7" d="M759.55,1156.43s120.69-40.81,147.61-32.12,107.73,169.47,107.73,169.47-1.82,2.43-6.8,4.3c-4.63,1.73-15.84,1.62-15.84,1.62s-72.94-62.52-81.62-80.75-12.16-35.6-20.84-33.86-112,42.54-135.45,18.23-17.32-55.9-17.32-55.9Z"/><path class="cls-9" d="M828.35,868.66c-5.21-3-11.46-3.28-15.84-3a7.41,7.41,0,0,1,3.34-1.58c-2.71-.41-8.76,2.28-8.76,2.28-37.72-14.53-43.65,41-42.86,53.91s.89,27.76-17.94,39.33c-37,22.77-5.79,62.52-5.79,62.52.29.17,17.24,28.91,17.24,28.91-1-10.42,47.15-65.45,72.25-81.93,6.12-9,8.29-24.89,8.45-26.14-1.06,12.6-3.21,19.67-5.14,23.65C854.56,947,842.18,876.52,828.35,868.66Z"/><path class="cls-6" d="M828.51,969.89c.12.06-12.12,6.42-21.33,3.9-8.66-2.36-14.33-13.6-14.21-13.62,3.67-.73,4.73-5.77,4.65-27.44l1.66.33,27.89,5.52s-.63,8.78-.65,17C826.5,962.57,826.92,969.15,828.51,969.89Z"/><path class="cls-10" d="M827.17,938.58s-.63,8.78-.65,17c-15.61-.44-23.86-14.67-27.24-22.56Z"/><path class="cls-9" d="M796.4,930s-8.18-12.92-10.14-24c-1.4-7.89,2.62-37.13,32-32.92a39.9,39.9,0,0,1,16.56,6.26c6.38,4.31,15.58,13.61,5.29,39.13l-2.67,8.62Z"/><path class="cls-6" d="M832.38,946.41s-36.92.61-37-22.39-4.81-38.42,18.77-39.78,28.16,7.41,30,15.09S842,945.66,832.38,946.41Z"/><path class="cls-9" d="M831,883.68s-10.11,27-25.63,31-22.24-.16-22.24-.16a44,44,0,0,0,14.37-26S823.39,870.84,831,883.68Z"/><path class="cls-9" d="M828.51,885.87s7.55,6,9.39,11.88,2.67,17.92,6.18,17.51c0,0,7.62-18.34-.94-28.72C834.06,875.54,828.51,885.87,828.51,885.87Z"/><path class="cls-7" d="M746.29,1069.23C742.65,1054,755,1024.32,768,999.79c11.73-22.23,23.91-40.27,25-39.62,30.95,18.36,33.75,3.09,33.75,3.09h0s28.11,3.73,36.07,17.43c9.87,17,20.54,64.5,31.14,73.49-1.63,5-.93,7.64.79,13.81.37,1.32.78,2.58,1.23,3.77a71.45,71.45,0,0,0,5.32,10.92c-5.39,3.27-15.79,9.49-23.45,5-11.68-6.84-20.8-27.65-25.93-35.94a.41.41,0,0,1,0-.09c-11.15,63.11,4,77.48-3.67,84.14-8.1,7-19.68-3.35-45.15,7.69-16.71,7.25-39.89,17.73-55.5,19.55-8.19,1-14.29-.46-16.28-6C725.45,1141,753.23,1098.34,746.29,1069.23Z"/><path class="cls-11" d="M824.17,932.47s.69,2.92,8,2.47c0,0,6.1-.38,5.92-3.59C838.05,931.35,832.13,929.06,824.17,932.47Z"/><path class="cls-8" d="M731.24,1157.07c2,5.53,8.09,7,16.28,6,10.8-4.71,57.47-22.78,56.94-35-.77-18.14-9-18.72-3.18-41.1,4.65-18-38.47-51.4-45.35-58.67-12.93,24.54-13.28,25.7-9.64,41C753.23,1098.34,725.45,1141,731.24,1157.07Z"/><path class="cls-7" d="M726,1091.66c8.28-11.62,16.9-17.77,22.57-20.86-1.31-3.36,34.81-47.64,34.81-54.5S793,960.16,793,960.16s-30.09,1.86-40.51,16.39C739.43,994.72,712.37,1064.66,726,1091.66Z"/><path class="cls-6" d="M748.53,1070.8l60.13,15.69L803,1096.62s-73.18-.51-77.06-5S748.53,1070.8,748.53,1070.8Z"/><path class="cls-8" d="M851.89,1051.77c5.13,8.29,14.25,29.1,25.93,35.94,7.66,4.47,18.06-1.75,23.45-5a71.45,71.45,0,0,1-5.32-10.92c-4.3,1-9.55,2.24-12.93,3.26C876.44,1077,851.89,1051.77,851.89,1051.77Z"/><path class="cls-6" d="M808.66,1086.49s18.89-5.34,23.38-4.09,19.91,11.45,17.75,14.22-15.75-1.66-22-.82-11.08,3.92-15.58,3.26a52.23,52.23,0,0,1-9.2-2.44Z"/><path class="cls-6" d="M808.66,1086.49s9.24-4.75,11.87-7.45a.74.74,0,0,1,1.15.14c.7,1.11,1.36,3.25-1.88,5.38C815.13,1087.63,808.66,1086.49,808.66,1086.49Z"/><path class="cls-12" d="M895.93,1113.06h-88.1a7,7,0,0,1,7-7h81.08Z"/><polygon class="cls-12" points="895.68 1017.11 1031.89 1017.11 999.22 1113.06 862.12 1113.06 895.68 1017.11"/><polygon class="cls-13" points="1033.9 1017.11 1001.22 1113.06 864.13 1113.06 897.68 1017.11 1033.9 1017.11"/><path class="cls-14" d="M960.46,1064.2a8.86,8.86,0,0,1-8.17,6.63c-3.67,0-5.95-3-5.11-6.63a8.86,8.86,0,0,1,8.17-6.64C959,1057.56,961.3,1060.53,960.46,1064.2Z"/><path class="cls-15" d="M1033.9,1017.11l-32.68,95.95H910.43c60.14-20.53,76.15-83.12,78.84-95.95Z"/><path class="cls-16" d="M638.46,1406.64a3.53,3.53,0,0,0,3.49-2.86l17.1-97,24.61-139.46,6.88-39-17.52-.5-3,22.64-21.35,159.09L636,1403.88A2.48,2.48,0,0,0,638.46,1406.64Z"/><path class="cls-17" d="M670,1150.49c11.36,5,13.69,16.86,13.69,16.86l6.88-39-17.52-.5Z"/><path class="cls-16" d="M1074.4,1406.64a3.53,3.53,0,0,1-3.49-2.86l-17.11-97-24.6-139.46-6.89-39,17.53-.5,3,22.64,21.35,159.09,12.66,94.3A2.47,2.47,0,0,1,1074.4,1406.64Z"/><path class="cls-17" d="M1042.88,1150.49c-11.35,5-13.68,16.86-13.68,16.86l-6.89-39,17.53-.5Z"/><rect class="cls-17" x="616.07" y="1113.04" width="470.22" height="30.62" rx="10.69" transform="translate(1702.36 2256.7) rotate(180)"/><rect class="cls-18" y="1398.7" width="2644.84" height="7.02" rx="3"/><path class="cls-6" d="M1741.61,1096.72s-11.65,14.45-8,16.41,13.26,5.66,15.53,3.33,3-19.34,3-19.34Z"/><path class="cls-6" d="M1742.08,1097s-4.76,1.65-6.63,4.13-6,6.25-5,7.3,7-3.58,7-3.58Z"/><path class="cls-19" d="M1785.62,903.89s-13.12,122.17-14.29,125.65c-.26.76-1.29,4.62-2.74,10.19-2.06,8-5,19.36-7.75,30.22-4.17,16.4-8,31.54-8,31.54l-11.39-3.75s-.59-59.37,2.34-73,12.31-97.67,17-109S1785.62,903.89,1785.62,903.89Z"/><path class="cls-20" d="M1758.33,1196.85l-71.57-18.77a17.56,17.56,0,0,1-12.5-21.38l8.14-31a17.56,17.56,0,0,1,21.38-12.5l71.57,18.77a17.55,17.55,0,0,1,12.49,21.38l-8.13,31A17.55,17.55,0,0,1,1758.33,1196.85Z"/><path class="cls-21" d="M1691.84,1128.14l-8.23,31.37a17.6,17.6,0,0,0,4.27,16.55,17,17,0,0,0,4.7,3.54h0a17.51,17.51,0,0,0,3.56,1.37l71.45,18.73a17.63,17.63,0,0,0,21.46-12.54l8.23-31.38a17.62,17.62,0,0,0-12.55-21.45l-24.6-6.45,1.76-6.7a5.81,5.81,0,0,0-4.14-7.08l-2.69-.71-15-3.92-3.72-1a5.81,5.81,0,0,0-7.08,4.13l-1.75,6.7-14.25-3.74c-.57-.15-1.13-.27-1.69-.36h0a17.63,17.63,0,0,0-15.29,5.07h0A17.38,17.38,0,0,0,1691.84,1128.14Zm64.79-1.18-25.57-6.7,1.76-6.7a2.17,2.17,0,0,1,2.64-1.54l6.42,1.69,11.78,3.08,3.18.84a2,2,0,0,1,.59.26,2.14,2.14,0,0,1,1,2.38Z"/><path class="cls-6" d="M1748.41,1116.78s3.18-5.35,2-7.22-5.48,5.55-5.48,5.55,2.93-6.37,1.83-7.42-5.58,6.28-5.58,6.28,2.8-6.19,1.82-6.4-4.31,5.2-4.31,5.2,1.73-4.63.15-4.41-5,4.45-5,4.45Z"/><path class="cls-22" d="M1768.59,1039.73c-2.06,8-5,19.36-7.75,30.22a117.73,117.73,0,0,1-5.48-24c-2.64-20.22,5.46-63.29,5.46-63.29Z"/><path class="cls-6" d="M1918.73,1091.7s12.69,10.3,14.25,13.52,5.52,15.15,5.31,19-9.73-8.8-12.52-9.82,2.92,5.19,2.28,6.52-6.6-3-8.87-4.44-3.86-11.06-7.25-16.3S1918.73,1091.7,1918.73,1091.7Z"/><path class="cls-23" d="M1752.22,1400.34h63.27c4.53-3.08-1.23-33.13-1.23-33.13S1797,1360.66,1794,1374s-22,17.55-32,19.17C1755.09,1394.27,1752.91,1398.05,1752.22,1400.34Z"/><path class="cls-23" d="M1846.05,1400.34h63.26c4.54-3.08-1.22-33.13-1.22-33.13s-17.26-6.55-20.25,6.77-22,17.55-32,19.17C1848.91,1394.27,1846.74,1398.05,1846.05,1400.34Z"/><path class="cls-24" d="M1769.24,1093.75s2.85,35.47,6.19,78.12c4.54,57.93,16.79,201.56,16.79,201.56s8,6.86,25.83,3.11c0,0,15.14-49.55,19.67-106.11l.21-2.79c4.21-57.58,10.77-178.81,10.77-178.81Z"/><path class="cls-23" d="M1768.27,1081.49s3.82,47.73,7.16,90.38l62.29,98.56.21-2.79c4.21-57.58,10.77-178.81,10.77-178.81Z"/><path class="cls-24" d="M1786.43,1081.49s45.18,112.45,59.62,155.08c10.29,30.37,39.3,136.89,39.3,136.89s12.62,3.84,23.22-3.59c0,0,10.79-108.82-11-139.51-11.57-16.28-2.87-169.24-49.77-170.55S1786.43,1081.49,1786.43,1081.49Z"/><path class="cls-19" d="M1872.52,1091.7c-18.84,10.62-99.54,10.39-103.27,2-8.36-18.63-10.45-113.29-6.51-142.32,0,0,2-44.62,6.51-42.65,29.8-13.7,78-1.26,78-1.26,13,3.83,11.9,33.56,15.53,75.31.46,5.38,1,11,1.56,16.78,2.57,25.78,6.3,55.4,12,86.64C1876.75,1088.3,1875.32,1090.12,1872.52,1091.7Z"/><path class="cls-6" d="M1825,902.5c-.5,8-10.91,7.08-23.42,4.22s-8-10.23-8-10.23.19-5.67,1-12.46c.29-2.47.65-5.1,1.12-7.65.22-1.25.47-2.48.75-3.67,1.64-7,25-.24,24.83,1.65C1820.83,879.45,1824.52,896.24,1825,902.5Z"/><polygon class="cls-23" points="1798.18 916.43 1797.2 905.41 1811.05 908.02 1805.72 917.86 1798.18 916.43"/><path class="cls-22" d="M1793.9,891.3l-8.28,12.59a18.32,18.32,0,0,0,7.18,13.36l11.32-10.54S1796.81,903.92,1793.9,891.3Z"/><path class="cls-22" d="M1804.12,906.71s2.35,8.42,6.88,12.28c0,0,17.68-4.75,21.89-13.8l-9.21-11.89S1823.24,902.29,1804.12,906.71Z"/><path class="cls-25" d="M1821.42,878.32a43.42,43.42,0,0,1-26.84,5.71c.29-2.47.65-5.1,1.12-7.65,3.08-.75,5.66-1.21,5.66-1.21Z"/><path class="cls-6" d="M1828.56,869.82c-5.5,15.14-25.57,11.27-34.11,8.84-2.41-.68-3.9-1.25-3.9-1.25-2.64-1.2-3.46-5.8-3.23-11.62.46-11.52,5-27.79,7.62-31.71,3.93-5.89,10.48-11.89,29.94-3.54S1835.61,850.43,1828.56,869.82Z"/><path class="cls-23" d="M1843.59,862.05c-6.15,5-19.34,14.28-19.34,14.28s1.47-1.73,3.26-6.73a6.73,6.73,0,0,0,.24-2.29,12.62,12.62,0,0,1,1.81-7c.8-1.3,1.09-2.66.07-3.61-1.66-1.58-4.51-.13-6.38,1.14a3.74,3.74,0,0,1-4.11.11l0,0c-5.25-3.28.55-9.08-3.72-13.88s-22.73-5.47-22-8.49c-6.3-3.56-2.33-16.7-2.21-17.39a68.15,68.15,0,0,0,20.34-2c9.16-2.31,19.27,3.58,22.47,6a5,5,0,0,0-.51-2.24,4.77,4.77,0,0,1,1.37,3c.14.14.2.24.15.26a6.18,6.18,0,0,1,2.9.67s-.79-.25-1.16.22a.44.44,0,0,1-.15.12C1848.87,832.84,1848.69,857.88,1843.59,862.05Z"/><path class="cls-11" d="M1799.53,867.63s-1,1.91-5.94.33c0,0-4.17-1.33-3.48-3.52C1790.11,864.44,1794.61,863.89,1799.53,867.63Z"/><path class="cls-26" d="M1798.18,916.43s-11,139.68-10.89,151.32,12.24,24,12.24,24,9.64-10.55,11.52-21.69-5.33-152.15-5.33-152.15Z"/><path class="cls-19" d="M1847.31,907.53s17.84,4.27,32,31.37,25.25,81.75,32,96.18,11.35,59.85,11.35,59.85l-10.66,5.24s-25.74-46.56-29.55-61.83c-2.06-8.26-33.54-74.4-33.54-74.4Z"/><path class="cls-22" d="M1872.52,1091.7h0c-33.59-4.84-24-116-21.33-116.48s12.3,19.88,12.3,19.88l.92,4.51c2.57,25.78,6.3,55.4,12,86.64C1876.75,1088.3,1875.32,1090.12,1872.52,1091.7Z"/><path class="cls-23" d="M2291.72,1334.61s14,12.76,11.26,21.84-15.36,15.11-17.06,26.2-8.53,17.13-14.67,17.13H2242s-4.52-7.8,6.4-10.15,15-15.38,14.36-27.47,1-28.22,1-28.22l23.2-5.38Z"/><path class="cls-23" d="M2120.09,1367.63s2.51,29-3.63,32.08l-78.6-.17s0-9.07,12.63-11.08,34.8-9.41,38.55-25.87S2120.09,1367.63,2120.09,1367.63Z"/><path class="cls-26" d="M2053.74,957.21s4.14,50.93,9,112.15c6.63,83.16,14.59,185.31,15.38,204.66,1.36,33.6,6.83,87.36,6.83,87.36s12.95,12.77,38.89,7.38c0,0,23.11-76.73,29.72-157.91l.3-4c6.15-82.65,15.7-256.68,15.7-256.68Z"/><path class="cls-23" d="M2053.74,957.21s4.14,50.93,9,112.15l90.82,141.49.3-4c6.15-82.65,15.7-256.68,15.7-256.68Z"/><path class="cls-26" d="M2072.67,963.26s74.72,184.44,123.85,271.12S2261,1345.25,2261,1345.25s28.15-11.09,30.71-18.65c0,0-18.79-167.33-51.69-208.13-18.6-23-34.63-74.18-33.83-98.38,1.39-41.73-14.28-90.09-14.28-90.09Z"/><path class="cls-6" d="M2013,966s-14,18.89-15,23.93-2.24,23-.56,28.31,10.36-15.72,13.88-18.14-2.2,8.26-.82,9.89,8.09-6.57,10.73-9.36,1.41-16.78,4.24-25.29S2013,966,2013,966Z"/><path class="cls-11" d="M2074.53,691.44S2055.67,867,2054,872c-.36,1.08-1.84,6.64-3.92,14.63-3,11.42-7.16,27.82-11.14,43.42-6,23.56-12.48,43.94-12.48,43.94s-2.85,1.84-9.72,1.26a10.28,10.28,0,0,1-7.21-4.4s.69-86.17,4.9-105.81,17.68-140.31,24.48-156.56S2074.53,691.44,2074.53,691.44Z"/><path class="cls-27" d="M2050.07,886.58c-3,11.42-7.16,27.82-11.14,43.42a168.48,168.48,0,0,1-7.88-34.43c-3.79-29,7.85-90.92,7.85-90.92Z"/><path class="cls-11" d="M2199.37,961.24c-27.06,15.27-143,14.93-148.37,2.94-12-26.76-15-162.74-9.34-204.45,0,0,2.93-64.1,9.34-61.27,42.82-19.68,112.14-1.81,112.14-1.81,18.69,5.51,17.09,48.22,22.3,108.19.67,7.73,1.42,15.79,2.25,24.11,3.69,37,9,79.58,17.21,124.46C2205.45,956.37,2203.39,959,2199.37,961.24Z"/><path class="cls-6" d="M2131.11,689.44c-.71,11.47-15.67,10.17-33.65,6.06S2086,680.8,2086,680.8s.27-8.14,1.41-17.9c.41-3.55.93-7.33,1.61-11,.32-1.79.67-3.56,1.08-5.27,2.34-10.09,35.91-.35,35.67,2.37C2125.1,656.33,2130.41,680.44,2131.11,689.44Z"/><polygon class="cls-23" points="2092.57 709.45 2091.16 693.61 2111.06 697.37 2103.4 711.51 2092.57 709.45"/><path class="cls-27" d="M2086.42,673.35l-11.89,18.08a26.31,26.31,0,0,0,10.32,19.2l16.26-15.14S2090.59,691.48,2086.42,673.35Z"/><path class="cls-27" d="M2101.11,695.49s3.37,12.09,9.88,17.64c0,0,25.39-6.82,31.44-19.83l-13.22-17.07S2128.57,689.14,2101.11,695.49Z"/><path class="cls-25" d="M2126,654.7a62.28,62.28,0,0,1-38.55,8.2c.41-3.55.93-7.33,1.61-11,4.42-1.07,8.12-1.74,8.12-1.74Z"/><path class="cls-6" d="M2136.21,642.49c-7.9,21.74-36.73,16.19-49,12.7-3.46-1-5.6-1.79-5.6-1.79-3.79-1.72-5-8.35-4.64-16.71.66-16.55,7.19-39.91,10.94-45.54,5.65-8.47,15.06-17.09,43-5.09S2146.34,614.63,2136.21,642.49Z"/><path class="cls-21" d="M2157.8,631.33c-8.82,7.19-27.78,20.52-27.78,20.52s2.11-2.5,4.69-9.68a9.66,9.66,0,0,0,.34-3.28,18.05,18.05,0,0,1,2.59-10c1.16-1.88,1.58-3.82.12-5.2-2.4-2.27-6.49-.19-9.17,1.65a5.43,5.43,0,0,1-5.92.15l0,0c-7.54-4.72.78-13-5.34-19.95s-32.66-7.86-31.6-12.19c-9-5.11-3.34-24-3.18-25a97.72,97.72,0,0,0,29.22-2.91c13.17-3.3,27.7,5.16,32.29,8.64a7.45,7.45,0,0,0-.73-3.22,6.81,6.81,0,0,1,2,4.27c.2.2.29.34.23.38a8.74,8.74,0,0,1,4.15,1s-1.12-.35-1.65.31a.8.8,0,0,1-.23.18C2165.39,589.36,2165.13,625.34,2157.8,631.33Z"/><path class="cls-11" d="M2094.51,639.35s-1.41,2.74-8.54.47c0,0-6-1.91-5-5.06C2081,634.76,2087.44,634,2094.51,639.35Z"/><path class="cls-26" d="M2092.58,709.45s-15.88,200.67-15.66,217.39,17.59,34.4,17.59,34.4,13.85-15.15,16.55-31.15-7.66-218.58-7.66-218.58Z"/><path class="cls-27" d="M2199.37,961.24h0c-48.27-6.94-34.44-166.69-30.65-167.32s17.66,28.55,17.66,28.55l1.33,6.48c3.69,37,9,79.58,17.21,124.46C2205.45,956.37,2203.39,959,2199.37,961.24Z"/><path class="cls-20" d="M2341.26,1080.24l-102.07,29.7a25.23,25.23,0,0,1-31.18-17.12l-12.87-44.23a25.23,25.23,0,0,1,17.12-31.19l102.07-29.7a25.23,25.23,0,0,1,31.18,17.13l12.87,44.23A25.23,25.23,0,0,1,2341.26,1080.24Z"/><path class="cls-21" d="M2208.59,1044.64l13,44.74a25.27,25.27,0,0,0,17.47,17.25,24.89,24.89,0,0,0,8.41.89h0a25,25,0,0,0,5.4-.94l101.88-29.66a25.32,25.32,0,0,0,17.19-31.29l-13-44.75a25.33,25.33,0,0,0-31.3-17.19l-35.08,10.22-2.78-9.55a8.33,8.33,0,0,0-10.32-5.67l-3.85,1.12L2254.29,986l-5.3,1.54a8.34,8.34,0,0,0-5.67,10.33l2.78,9.54-20.33,5.91q-1.2.36-2.34.81h0a25.34,25.34,0,0,0-15.11,17.54h0A25,25,0,0,0,2208.59,1044.64Zm79-49.28L2251.11,1006l-2.78-9.54a3.13,3.13,0,0,1,2.12-3.86l9.16-2.66L2276.4,985l4.53-1.32a3.35,3.35,0,0,1,.93-.12,3.12,3.12,0,0,1,2.93,2.24Z"/><path class="cls-6" d="M2257,966.79s-3.17,26.47,2.77,26.09,20.45-3.23,21.44-7.78-11.12-25.83-11.12-25.83Z"/><path class="cls-6" d="M2257.75,966.72s-4.54,5.64-4.93,10.08-2.56,12.2-.52,12.7,5.75-9.66,5.75-9.66Z"/><path class="cls-11" d="M2163.15,696.66s25.63,6.13,45.9,45.06S2245.32,859.18,2255,879.9s17,82.91,17,82.91-1.52,3.09-6.73,4.22a31.79,31.79,0,0,1-8.2.54s-38.11-61.05-43.58-83c-3-11.87-48.19-106.87-48.19-106.87Z"/><polygon class="cls-6" points="474.87 1374.45 471.03 1346.79 487.16 1333.31 492.25 1369.93 474.87 1374.45"/><path class="cls-23" d="M528.45,1399.16H462.67s-1.58-10,1.86-17.63c3.29-7.3,8.41-11.8,8.88-17.39,4.18,4.3,9.33,7.07,18.83,5.79,1.17,1.89,7.53,12,11.42,14.79C508,1387.81,527.12,1386.71,528.45,1399.16Z"/><path class="cls-13" d="M515.23,1000.89c-4.3,34.61-7.82,67.23-10.68,97.64-15.31,162-12.31,261-12.31,261s-1.1,2.93-10.59,3a54.36,54.36,0,0,1-10.62-1.14s-34.28-105.8-31.63-166a91.82,91.82,0,0,1,2.67-19.48c8.23-30.8-30.42-148.6,11.59-192.47S517.21,985,515.23,1000.89Z"/><path class="cls-12" d="M515.23,1000.89c-4.3,34.61-7.82,67.23-10.68,97.64l-65.15,96.86a91.82,91.82,0,0,1,2.67-19.48c8.23-30.8-30.42-148.6,11.59-192.47S517.21,985,515.23,1000.89Z"/><path class="cls-6" d="M567,670.82s-1.58-7.9-3.37-13.94c-.79-2.67,4.72-20.2,8.53-22.36s13.73,9.65,10.92,18.72c-1.44,4.66-3.81,19.81-3.81,19.81Z"/><path class="cls-6" d="M567,670.82s-2.07-4.58-3.94-5.32-3.88-8.24-5.25-11.22c0,0,1.33-1.94,3.65.56,1.41,1.53,4.57,6,4.57,6Z"/><path class="cls-6" d="M295.46,697.42c-.4.83-1,2.32-1.46,3.71,0-.38,0-.75,0-1.13,0-2.78-10.42-17.94-14.7-18.88s-10.31,13.24-5,21.09c2.74,4,9.45,17.83,9.45,17.83l11.08-5.72s.64-5,2.21-6.25,1.29-9,1.74-12.25C298.79,695.82,297,694.35,295.46,697.42Z"/><path class="cls-6" d="M364.55,1366.16c-.93-8.87-1.16-32.2-1.16-32.2s23.78-7.6,22.9-2.38c-4.3,25.65-3.13,38.35-3.13,38.35l-9.62,5.74Z"/><path class="cls-13" d="M495.38,999.24S403.55,1251,385.47,1360.16c0,0-4.19,2.88-12,1.92-8.86-1.08-11.29-7.23-11.29-7.23S345.59,1224,378.57,1178.54c22.65-31.21-9.77-168.3,43-179.3S495.38,999.24,495.38,999.24Z"/><path class="cls-8" d="M479.07,757.1h0a2,2,0,0,0-.08-.33c-.54-2.21-1.12-4.39-1.75-6.56h0a148.27,148.27,0,0,0-6.68-18.48,97,97,0,0,0-4.4-8.78l-.67-1.18h0c-3.55-6-7.2-10.09-10.49-11.36-6-2.32-12.68-1.67-17.28-.72a8,8,0,0,1,3.3-2.2c-2.94,0-8.94,3.8-8.94,3.8-42.29-9.46-39.82,50.38-36.94,63.94s-10.75,20.15-29.95,34c-36.66,26.48-36,54.54-36,54.54.33.14.69.3,1.06.49,1.48-3.63,4.61-10.5,7.89-12a140.84,140.84,0,0,0-3.52,14.22c5.58,3.07,13.31,7.84,21.7,13.21h0c11.22,7.19,23.61,15.45,33.54,22.16-.47-2.73-.94-6.62-.24-8.82l3.16,9.8.41,1.27c6.34,4.3,11.34,7.73,13.88,9.49l.69.48,1.14.79c-.84-3.47,2.86-12.5,9.06-23.88.43-.79.88-1.6,1.34-2.42,2-3.59,4.24-7.38,6.65-11.29.87-1.41,1.74-2.83,2.65-4.27h0c.73-1.15,1.47-2.3,2.23-3.48h0c1.79-2.77,3.66-5.57,5.55-8.37,4.92-7.27,10.12-14.48,15.27-21.09,7.47-9.63,14.8-18,20.93-23.47.2-.42.39-.84.56-1.27a40.94,40.94,0,0,0,2.27-7.23q.27-1.14.48-2.28a99.13,99.13,0,0,0,1.54-17.94,100.83,100.83,0,0,1-.23,18.08c-.11,1-.24,1.87-.39,2.71h0a36.75,36.75,0,0,1-1.11,4.75,24.3,24.3,0,0,0,2.67-4.1,28.79,28.79,0,0,0,1.39-3.08C484.69,793.63,483.36,774.78,479.07,757.1Z"/><path class="cls-6" d="M471.12,817.71c.14,0-11.84,8.71-22,7.5-9.56-1.14-17.34-12.16-17.22-12.21,3.78-1.35,4.11-6.86.61-29.83l1.81.09,30.44,1.45s.71,9.41,2,18.18C467.83,810.26,469.32,817.17,471.12,817.71Z"/><path class="cls-10" d="M464.76,784.71s.71,9.41,2,18.18c-16.62,2-27.61-11.8-32.44-19.63Z"/><path class="cls-8" d="M430.78,780.49s-10.71-12.41-14.53-23.82c-2.73-8.15-3.09-39.79,28.74-40a42.88,42.88,0,0,1,18.55,4c7.44,3.56,18.67,12,11.78,40.66L473.84,771Z"/><path class="cls-11" d="M519.07,994.41s-39.62,23.55-89.37,11.44c-.58-.14-41-6.59-41-6.59.7-1.89,5.91-33.08,6.6-34.83,8.82-22.77,25-146.38,38.43-152.47,3.44,3.74,13.27,6.31,21.69,5.56,9.69-.86,12.94-5,12.13-9.55,10.73,5.07,19,9.79,19,9.79C496.36,832.45,519.07,994.41,519.07,994.41Z"/><path class="cls-6" d="M471.53,792.19s-39.07,6.47-42.72-17.91-11.16-40,13.63-45.14,31,3.41,34.23,11.26S481.59,789.88,471.53,792.19Z"/><path class="cls-8" d="M460.18,725.89s-6.46,30.21-22.29,36.89-23.62,3.33-23.62,3.33a47.12,47.12,0,0,0,11.15-29.8S450.07,713.47,460.18,725.89Z"/><path class="cls-8" d="M457.87,728.61s9,5.19,11.83,11.11,5.66,18.58,9.32,17.59c0,0,5.18-20.65-5.53-30.3C462.13,716.77,457.87,728.61,457.87,728.61Z"/><path class="cls-24" d="M579.54,671.39c-1.59-.56-3.93-1.89-7-2.16a21.43,21.43,0,0,0-6.13.64s-11,68.51-11.84,72.14-47.27,56-59.8,55.74c-11.3-.19-24.7,8.55-27.19,10.22,0,0,26.34,55.69,27.65,66.16,1.43,11.38,15.06,186.67,15.06,186.67s-.81,8.16,14.43,3.77,19-8,19-8-14-138-16.94-180.92a81.79,81.79,0,0,0-2.67-16,16.25,16.25,0,0,1,2.62-13.79c19.27-26.44,49.69-69.29,51.38-78.39C580.66,754.07,579.54,671.39,579.54,671.39Z"/><path class="cls-23" d="M419.36,1399.16H353.58s-1.57-10,1.86-17.63c3.29-7.3,8.42-11.8,8.88-17.39,4.18,4.3,9.33,7.07,18.84,5.79,1.16,1.89,7.52,12,11.41,14.79C398.87,1387.81,418,1386.71,419.36,1399.16Z"/><path class="cls-24" d="M464.55,879.53C462.33,865.89,434,811.12,434,811.12s-17.89-5.36-29.66-1.09-72.71-30.14-74.66-33.3-34.59-64-34.59-64-2.71-1.57-7,.69a7.94,7.94,0,0,0-4.31,6.6s25.18,76.57,31.88,88.41c4.05,7.15,38,32,64.36,50.63a16.53,16.53,0,0,1,6.84,15.72c-3.54,26.18-4.44,40.92-8.51,85.85-3.38,37.27-4.68,109.42-4.68,109.42s29.48,10.2,49.82,11.56,24.77-20.09,24.77-20.09S466.82,893.56,464.55,879.53Z"/><path class="cls-11" d="M458.73,780.14a17.43,17.43,0,0,0,10.34,1.94c3.84-.57,4.71-5.13,4.71-5.13a15.06,15.06,0,0,0-6.92,0A29.24,29.24,0,0,0,458.73,780.14Z"/><path class="cls-6" d="M1706.38,315.23s-18.28-32.48,0-39.09,26.55-.51,27.42,6.89-7,36.56-7,36.56Z"/><path class="cls-13" d="M1721,523a591.86,591.86,0,0,1-91.62,9.41,511.63,511.63,0,0,1-70.42-3.17q-8.31-1-16-2.13c-54-8.18-83.75-22.69-83.75-22.69s49.3-103.2,89.12-99.23c46.73,4.65,125.9,46.58,133.77,34.82,8.86-13.25,16.28-126.86,16.28-126.86,20.71-14.19,33.08.76,33.08.76S1772,513.78,1721,523Z"/><path class="cls-12" d="M1721,523a591.86,591.86,0,0,1-91.62,9.41,511.63,511.63,0,0,1-70.42-3.17c-12.43-39.54-21.37-79.92,3.63-55.57C1606.72,516.59,1721,523,1721,523Z"/><path class="cls-23" d="M1455.53,1356.19s-3.55,41,5.13,45.3l111-.23s0-12.81-17.83-15.65-49.14-13.29-54.44-36.53S1455.53,1356.19,1455.53,1356.19Z"/><path class="cls-26" d="M1537,859.67c-.55,26.83-1.84,54.5-4.36,79.37-12,118-16.2,260.57-17.92,288.06-3,47.72-12.42,124-12.42,124s-18.69,17.75-55.14,9.28c0,0-30.19-109.8-36.94-225.41-.1-1.89-.21-3.8-.3-5.71-.79-15.28-1.6-32.76-2.44-51.6-5.55-126.23-11.58-313.75-11.58-313.75l139.26-32.7S1538.38,792.8,1537,859.67Z"/><path class="cls-23" d="M1537,859.67c-35.3,60.89-102.57,173.08-129.52,217.94-5.55-126.23-11.58-313.75-11.58-313.75l139.26-32.7S1538.38,792.8,1537,859.67Z"/><path class="cls-6" d="M1184.38,741.71s-22.66,26.65-24.7,34-5.67,34-3.72,42,17-22.3,22.49-25.54-4.12,12-2.24,14.61,12.69-8.93,16.91-12.81,3.8-24.79,8.87-37.15S1184.38,741.71,1184.38,741.71Z"/><path class="cls-23" d="M1179.06,1309.57s-19.75,18-15.89,30.84,21.68,21.34,24.08,37,12,24.19,20.72,24.19h41.35s6.38-11-9-14.34-21.23-21.71-20.26-38.79-1.45-39.85-1.45-39.85l-32.76-7.59Z"/><path class="cls-26" d="M1513.23,766.72s-130.37,278.94-199.75,401.33-91.06,156.55-91.06,156.55-39.74-15.66-43.36-26.33c0,0,26.53-236.28,73-293.88,26.26-32.55,57.09-130.22,58.54-164.38s31.9-115.67,31.9-115.67Z"/><path class="cls-13" d="M1551.34,779.88s-51.84,34.66-125.22,31.44c-32.2-1.41-96.08-10.54-106.39-36.15-2.42-6-.64-13.64,3-25.36,9.42-30.44,31.39-88.4,24.76-216.93a210.28,210.28,0,0,1,.86-33.73c6.91-63.31,43.19-100.8,78.26-113,85.52-29.89,114,11.52,114,11.52s37.8,29.95,43.5,92.45C1595.52,615.1,1551.34,779.88,1551.34,779.88Z"/><path class="cls-6" d="M1451.66,378.92s39.24,23.87,81.8,17.12c0,0,8.41-2.14,4.28-12a127.94,127.94,0,0,0,3.78-13.18,199,199,0,0,0,4.87-21.5L1522.24,324l-22.88-24.26C1493,357.68,1451.66,378.92,1451.66,378.92Z"/><path class="cls-28" d="M1495.69,321.68s13.15,35.14,45.83,49.16c3.73-13.63,6.16-27.9,6.16-27.9l-25.44-19Z"/><path class="cls-6" d="M1573.49,348.11s-74.91,9.37-80.16-36.66-18.47-75.82,29.13-83.75,58.92,8.62,64.47,23.57S1592.84,344.49,1573.49,348.11Z"/><path class="cls-29" d="M1469.68,220.22c-.65-.8-2.18-1.48-5.64-1.81a14.17,14.17,0,0,1,6.55-1.58c.9-4.79,3.79-13.23,12.17-15a10.42,10.42,0,0,0-5.33,7.31c10-9.51,30.87-15.92,87.75-9.26,75,8.78,48.36,56,38.41,61.35s-33.86-11.28-52-10.53-22.63,26.83-28.91,30.19-3.63-2.9-11.82-7-9.49,9.69-7.43,18.75-9.82,20.45-9.82,20.45l-11.08-12.88c-11.09-12.89-20-66-14.31-77.06Z"/><polygon class="cls-26" points="1698.44 293.69 1571.27 294.82 1570.41 275.69 1697.17 265.87 1698.44 293.69"/><polygon class="cls-26" points="1794.42 296.88 1655.98 298.88 1654.4 264.1 1792.45 253.41 1794.42 296.88"/><polygon class="cls-23" points="1887.78 299.61 1771.03 299.76 1768.9 252.8 1885.17 242.22 1887.78 299.61"/><path class="cls-23" d="M1889.45,307.54h0a6.53,6.53,0,0,0,6.22-6.82l-2.74-60.32a6.52,6.52,0,0,0-6.82-6.22h0a6.52,6.52,0,0,0-6.22,6.82l2.74,60.31A6.53,6.53,0,0,0,1889.45,307.54Z"/><path class="cls-26" d="M1570.88,298.9h0a5.8,5.8,0,0,1-6.06-5.53l-.71-15.65a5.8,5.8,0,0,1,5.53-6.06h0a5.8,5.8,0,0,1,6.06,5.53l.71,15.65A5.8,5.8,0,0,1,1570.88,298.9Z"/><path class="cls-12" d="M1322.72,749.81c9.42-30.44,31.39-88.4,24.76-216.93a210.28,210.28,0,0,1,.86-33.73h0c28.14-2.42,71.16,28,71.16,28S1393,688.69,1322.72,749.81Z"/><path class="cls-13" d="M1451.66,378.92s-72.17,12.4-109.81,58.36S1243.66,548,1229.35,570.71s-54.06,177.09-54.06,177.09,2.62,5,13.59,7.86a25.84,25.84,0,0,0,18.1-1.53S1259.63,664,1279.44,619c8.24-18.7,150.62-92.77,204.15-85.1C1504.62,536.93,1451.66,378.92,1451.66,378.92Z"/><path class="cls-6" d="M1697.68,260.39s15.52,9.49,24.81,5.48,8.46-7.7,8.46-7.7S1702.9,250.39,1697.68,260.39Z"/><path class="cls-21" d="M1521.69,429.26s-31.68,200-256.39,258.17l-24.47,48.29,43,7.28s255.82-74.11,252.38-317.28Z"/><polygon class="cls-20" points="1516.78 397.34 1506.4 398.36 1506.4 413.37 1521.69 429.26 1536.22 425.72 1536.22 404.89 1525.77 397.34 1516.78 397.34"/><path class="cls-12" d="M1476.08,357.58s-10,2.27-33,21.34c0,0,22.83,48.45,71,54.26,0,0-.78-22.49,2.71-35.84C1516.78,397.34,1478.6,383.68,1476.08,357.58Z"/><path class="cls-12" d="M1516.78,397.34s23.5,12.48,25.24,31.92c0,0,9-14.23,6.38-24.09S1537.74,384,1537.74,384,1538.54,395.89,1516.78,397.34Z"/></g></g></svg>