<svg xmlns="http://www.w3.org/2000/svg" viewBox="0 0 589.98 426.42"><defs><style>.cls-1{fill:#ffb8b8;}.cls-2{fill:#ff8585;}.cls-3{fill:#fff;}.cls-4{fill:#963257;}.cls-10,.cls-16,.cls-18,.cls-24,.cls-26,.cls-28,.cls-29,.cls-30,.cls-31,.cls-34,.cls-35,.cls-37,.cls-45,.cls-47,.cls-49,.cls-5,.cls-51,.cls-8,.cls-9{fill:none;stroke-miterlimit:10;}.cls-5{stroke:#e84e86;}.cls-24,.cls-26,.cls-5,.cls-8{stroke-width:0.52px;}.cls-6{fill:#2a3a70;}.cls-7{fill:#e84e86;}.cls-8{stroke:#963257;}.cls-9{stroke:#b34848;}.cls-29,.cls-30,.cls-31,.cls-34,.cls-37,.cls-51,.cls-9{stroke-width:0.49px;}.cls-10{stroke:#fcc;stroke-width:0.51px;}.cls-11{fill:#e05353;}.cls-12{fill:#fcc;}.cls-13{fill:#ff8d6e;}.cls-14{fill:#d9785e;}.cls-15{fill:#6b3c2f;}.cls-16{stroke:#ab533c;stroke-width:0.52px;}.cls-17{fill:#e086a7;}.cls-18{stroke:#fff;stroke-width:0.25px;}.cls-19{fill:#e04848;}.cls-20{fill:#b85c5c;}.cls-21{fill:#700808;}.cls-22{fill:#ff8080;}.cls-23{fill:#1c191a;}.cls-24{stroke:#783c3c;}.cls-25{fill:#914949;}.cls-26{stroke:#cc4576;}.cls-27{fill:#ffddd6;}.cls-28{stroke:#733a3a;stroke-width:0.55px;}.cls-29{stroke:#914949;}.cls-30{stroke:#e086a7;}.cls-31{stroke:#e05353;}.cls-32{fill:#ed3939;}.cls-33{fill:#fff7f5;}.cls-34{stroke:#700808;}.cls-35{stroke:#b6d5d6;stroke-width:0.75px;}.cls-36{fill:#f29b1f;}.cls-37{stroke:#f29b1f;}.cls-38{fill:#b6d5d6;}.cls-39{fill:#e6b793;}.cls-40{fill:#d69e74;}.cls-41{fill:#c8eaeb;}.cls-42{fill:#c23c3c;}.cls-43{fill:#662020;}.cls-44{fill:#568a6f;}.cls-45{stroke:#72b894;stroke-width:0.46px;}.cls-46{fill:#33634b;}.cls-47{stroke:#000;}.cls-48{fill:#ff4f4f;}.cls-49{stroke:#2a3a70;}.cls-50{fill:#ff6b6b;}.cls-51{stroke:#b3634d;}</style></defs><title>Asset 3</title><g id="Layer_2" data-name="Layer 2"><g id="OBJECTS"><ellipse class="cls-1" cx="294.99" cy="404.96" rx="294.99" ry="21.46"/><path class="cls-2" d="M119.53,329.46s-2,38.25-1.77,46.4,2.12,13.1-.89,19.48-11,12.75-15.4,13.63-3.54-13.1,0-20a57.77,57.77,0,0,0,4.26-10.8c1-4.16-.19-7.79-1.61-17.18s-6.29-31.52-6.29-31.52Z"/><path class="cls-3" d="M118.08,381h0c-.84,7.6-9,15.16-13.69,14.1s-2.92-6.11-2.92-6.11c-3.54,6.91-4.43,20.9,0,20s12.39-7.26,15.4-13.63C119.2,390.41,118.57,386.33,118.08,381Z"/><path class="cls-2" d="M123.7,329.46s1.94,38.25,1.77,46.4-2.13,13.1.88,19.48,11,12.75,15.41,13.63,3.54-13.1,0-20a58.23,58.23,0,0,1-4.27-10.8c-1-4.16.2-7.79,1.61-17.18s6.29-31.52,6.29-31.52Z"/><path class="cls-3" d="M125.15,381h0c.84,7.6,9,15.16,13.69,14.1s2.92-6.11,2.92-6.11c3.54,6.91,4.43,20.9,0,20s-12.4-7.26-15.41-13.63C124,390.41,124.66,386.33,125.15,381Z"/><path class="cls-4" d="M148.57,128H94.65C59.49,198.56,51.58,319.56,51.58,319.56c19.24,10.09,44.4,14.05,70,14.05s50.79-4,70-14.05C191.65,319.56,183.74,198.56,148.57,128Z"/><line class="cls-5" x1="121.61" y1="126.34" x2="121.61" y2="327.75"/><path class="cls-5" d="M93.78,324.32s4.35-116.24,17.61-198.79"/><path class="cls-5" d="M70.91,319s3-107.08,31.37-192.64"/><path class="cls-5" d="M149.45,324.32s-4.35-116.24-17.62-198.79"/><path class="cls-5" d="M172.31,319s-3.05-107.08-31.37-192.64"/><path class="cls-3" d="M73,75.57l-6.9,5.51s-.64,4.58,5.36,7.22,6.79,5.36,9.79,10.15,6.36,4.78,8.15,6.79,3,4.85,7.21,6-4-24.94-4-24.94Z"/><path class="cls-3" d="M170.2,75.57l6.89,5.51s.65,4.58-5.36,7.22S165,93.66,162,98.45s-6.36,4.78-8.15,6.79-3,4.85-7.22,6,4-24.94,4-24.94Z"/><path class="cls-6" d="M116.36,15s9.44-2.9,14.79,1.87,3.2,14.56,6.23,20.74,13.29,7.14,11.43,28.16l-54.17,2.4a107.11,107.11,0,0,1,2.92-18.55c2.41-9.26,7.53-12.66,6.89-17.47S103,11.53,116.36,15Z"/><path class="cls-7" d="M161.11,68.34a27.35,27.35,0,0,0-10.51-5.16L134.84,59.3,121.61,97.63,108.39,59.3,92.63,63.18a27.28,27.28,0,0,0-10.51,5.16L73,75.57c1.71,6.71,9.75,7.8,9.75,7.8A9.57,9.57,0,0,0,87.5,88.8c0,14.72,6.86,21.29,6.86,21.29l2.28,10.72h49.94l2.29-10.72s6.86-6.57,6.86-21.29a9.57,9.57,0,0,0,4.71-5.43s8-1.09,9.76-7.8Z"/><line class="cls-8" x1="121.33" y1="100.66" x2="121.33" y2="122.1"/><path class="cls-2" d="M121.61,97.63,134.84,59.3l-3.73-1.2a2.9,2.9,0,0,1-1.91-2.45l-1.35-10.88-6.24,1.07-6.23-1.07L114,55.65a2.93,2.93,0,0,1-1.91,2.45l-3.73,1.2Z"/><path class="cls-8" d="M87.5,88.8a38.13,38.13,0,0,1,2.62-14.67"/><path class="cls-8" d="M155.73,88.8a38.13,38.13,0,0,0-2.62-14.67"/><path class="cls-2" d="M132.86,186.17l-1.18-3.12,1.81-1.73s-2.85-9.09-4.51-10.89-5.94-3.12-5.94-3.12L88.81,126.72l3.32-18.15c-1.06-1.11-1.81-2.33-2.7-3.33-1.79-2-5.15-2-8.15-6.79-2.74-4.38-3.65-7-8.35-9.46-1.41,6.43-5.14,23.72-6.82,33.64C64,135,72.79,141.57,81.46,148s36.42,25.53,36.42,25.53l3.4,10.27,6.87,7.63,7.28-.49Z"/><line class="cls-9" x1="127.08" y1="175.4" x2="131.68" y2="183.05"/><polyline class="cls-9" points="127.08 179.23 129.38 185.74 133.03 191.05"/><polyline class="cls-9" points="124.6 179.23 126.9 185.74 130.55 191.05"/><polyline class="cls-9" points="122.27 179.84 124.18 185.84 125.97 188.95"/><path class="cls-2" d="M222,122.49l-31.08-2.61L172.43,88c-.22.11-.45.23-.7.34-6,2.64-6.78,5.36-9.78,10.15s-6.36,4.78-8.15,6.79c-.27.3-.53.62-.79,1l17.79,23.15a23,23,0,0,0,19.77,9l32-2.06Z"/><polygon class="cls-3" points="148.85 129.53 94.38 129.53 96.27 119.03 146.96 119.03 148.85 129.53"/><circle class="cls-10" cx="125.13" cy="103.38" r="1.52"/><circle class="cls-10" cx="125.13" cy="111.27" r="1.52"/><ellipse class="cls-2" cx="108.9" cy="37.69" rx="3.14" ry="3.98" transform="translate(5.11 87.76) rotate(-44.85)"/><path class="cls-11" d="M128.31,48.5l-.46-3.73-6.24,1.07-6.23-1.07-1,8.23C120,59.26,125.18,53.33,128.31,48.5Z"/><path class="cls-2" d="M116.07,20.51s-1.82,7.75-6.71,11.44c.45,2.31,1.25,6.19,2.33,10.13,1.69,6.19,8,7.72,11.28,7.28s9-3.57,9-10c0-2-.05-3.89-.12-5.62a5.52,5.52,0,0,0-4.32-5.12C119.32,26.77,116.82,22.55,116.07,20.51Z"/><path d="M111.72,31.39a2.48,2.48,0,0,1,1.45-1.31,5.06,5.06,0,0,1,1.88-.25,6.66,6.66,0,0,1,1.79.32,9.23,9.23,0,0,1,1.64.71l-.21.48-.81-.22-.82-.19a8.87,8.87,0,0,0-1.61-.16,5.16,5.16,0,0,0-2.86.9Z"/><path d="M129.1,29.06a2.48,2.48,0,0,0-1.74-.88,5.07,5.07,0,0,0-1.87.25,6.61,6.61,0,0,0-1.65.79,9.4,9.4,0,0,0-1.39,1.11l.32.41.73-.43.73-.39a8.32,8.32,0,0,1,1.52-.58,5.18,5.18,0,0,1,3,.11Z"/><polyline class="cls-9" points="121.22 32.19 121.23 34.71 122.79 38 121.23 38.75"/><path class="cls-3" d="M119,40.1l5.45-.73s-.2,5-2.08,5.21S119,40.1,119,40.1Z"/><path class="cls-9" d="M113.14,34.36c1.19-1.72,3.08-2.09,5-.37"/><path class="cls-9" d="M128.5,32.31c-1.6-1.35-3.53-1.21-4.9.94"/><path class="cls-3" d="M110.35,33.32c.44-.31,1.05-.91.61-1.61-.3-.5-.85-.47-1.66-.4.59-.55,1-.94.81-1.5-.25-.79-1.1-.73-1.62-.6a.63.63,0,0,1-.66-.25c-.3-.44-.9-1.05-1.6-.62-.5.31-.47.86-.4,1.66-.55-.58-.94-1-1.5-.8-.79.24-.73,1.09-.6,1.61a.63.63,0,0,1-.25.66c-.44.31-1,.9-.62,1.61.31.5.86.46,1.66.39-.58.56-1,1-.8,1.51.24.79,1.09.72,1.61.6a.61.61,0,0,1,.66.25c.31.44.9,1.05,1.61.62.5-.31.46-.86.39-1.66.55.58,1,1,1.51.8.79-.25.72-1.09.6-1.62A.59.59,0,0,1,110.35,33.32Z"/><circle class="cls-12" cx="106.91" cy="32.39" r="1.16"/><path class="cls-13" d="M237.25,65.72c3.92,1.92,19.81,20.38,19.81,20.38l-8.92,16.23-18.5-17.46Z"/><path class="cls-14" d="M229.27,237.54s-17.09,93.81-16,130.7c.2,6.9,4.53,19.87,4.53,19.87s10.67,13.12,9.09,15.61-13.68,1.1-17.63-3-7.52-11.07-7.52-11.07l-.37,11.52c-.94.54-3.6.17-3.7-1s.92-4.33-.2-9-.83-13.74,3.48-18.39c2.41-2.6.35-15-2-24.27s-6.78-40.24-4.89-55.38,6.33-28.14,6.79-37.84a86.7,86.7,0,0,0-1.37-18.71Z"/><path class="cls-4" d="M214.22,392.94c-4.72.12-13.51-11.5-13.3-20.17-4.31,4.65-4.59,13.71-3.48,18.39s.1,7.81.2,9,2.76,1.57,3.7,1l.37-11.52s3.57,7,7.52,11.07,16.06,5.45,17.63,3-9.09-15.61-9.09-15.61S221.34,392.77,214.22,392.94Z"/><path class="cls-13" d="M206.88,237.54s-17.1,93.81-16,130.7c.2,6.9,4.54,19.87,4.54,19.87s10.66,13.12,9.09,15.61-13.69,1.1-17.64-3-7.52-11.07-7.52-11.07l-.37,11.52c-.93.54-3.59.17-3.69-1s.91-4.33-.2-9-.84-13.74,3.48-18.39c2.4-2.6.34-15-2-24.27s-6.79-40.24-4.89-55.38S178,265,178.46,255.28a86.33,86.33,0,0,0-1.36-18.71Z"/><path class="cls-4" d="M191.82,392.94c-4.72.12-13.51-11.5-13.29-20.17-4.32,4.65-4.6,13.71-3.48,18.39s.09,7.81.2,9,2.76,1.57,3.69,1l.37-11.52s3.58,7,7.52,11.07,16.06,5.45,17.64,3-9.09-15.61-9.09-15.61S199,392.77,191.82,392.94Z"/><path class="cls-15" d="M235.69,22.27s5.27,3.6,5.31,9.12-5.35,8.13-11.46,7.91l-3.12,3.48s1.28,7.7-.42,13.82L186.32,45.21s.36-4.85,4.09-7.21,2.6-6.78,5-10.16,4.92-2.88,6.82-6,4.71-8.72,11.75-10.2C222.35,9.84,230.06,12.47,235.69,22.27Z"/><path class="cls-13" d="M175.89,66c4.64-2.28,16-6.61,21.54-8.71a8.24,8.24,0,0,0,4.65-4.4L208.2,39l11.27,7.2-2.72,10,20.5,9.47A5.09,5.09,0,0,1,240,71.86l-6.92,22.08-51.46,5.9-9.38,38.25-16-6.34a5.49,5.49,0,0,1-3.28-6.57c3.22-11.66,11.36-41.08,12.94-46.24C167.81,72.47,171.53,68.11,175.89,66Z"/><path class="cls-16" d="M207.24,80.23a129.41,129.41,0,0,1,7.32,12.63"/><line class="cls-16" x1="199.76" y1="60.54" x2="209.53" y2="63.56"/><path class="cls-14" d="M208.55,38s-1.24,16.78,5.73,21.39a1.2,1.2,0,0,0,1.82-.68l3.37-12.49Z"/><path class="cls-7" d="M181.6,99.84l9-23.76L212.77,90,224,76.08l10.38,13.68a14.22,14.22,0,0,1,2.08,13.35A33.38,33.38,0,0,1,230,114.19l-.35,12.18s27.42,32.45,31.89,112.88c0,0-56.5,6.84-114.72-3,0,0,9.85-79,40.79-114.61l-7.73-14.77Z"/><path class="cls-8" d="M214,91.55s9.12,18.14-4.55,24"/><path class="cls-8" d="M211.22,125.37s1.13,71.79-1.69,112.57"/><path class="cls-8" d="M201.38,125.34s-14,74-16.22,111.66"/><path class="cls-8" d="M192.38,125.34s-22.22,54.75-27.85,109.5"/><path class="cls-8" d="M219.94,126.56S234.85,187.59,232,237"/><path class="cls-8" d="M226.16,127.69s28.23,54.09,26.4,107.15"/><path class="cls-17" d="M193.9,58.59s1.92,21.5,1.92,24-3.65,5.27-6.18,1.4-12.81-18.51-12.81-18.51a3.94,3.94,0,0,1,2.89-2,5.55,5.55,0,0,1,5.49-2.39A3.89,3.89,0,0,1,189,59.59,3.63,3.63,0,0,1,193.9,58.59Z"/><line class="cls-18" x1="193.5" y1="81.84" x2="190.76" y2="61.52"/><line class="cls-18" x1="192.52" y1="82.62" x2="186.32" y2="62.51"/><line class="cls-18" x1="191.18" y1="82.62" x2="181.34" y2="64.62"/><path class="cls-17" d="M221.28,58.34s1.33,18.3,1.82,21.53,3,3.38,4.36,0,5.7-16.31,5.7-16.31-.29-1.39-2.53-1.36a3.66,3.66,0,0,0-3.57-1.83s-1.65-1.86-3.23-1.59A2.05,2.05,0,0,0,221.28,58.34Z"/><line class="cls-18" x1="223.6" y1="59.81" x2="223.99" y2="78.23"/><line class="cls-18" x1="226.78" y1="61.36" x2="225.21" y2="78.37"/><line class="cls-18" x1="229.99" y1="63.18" x2="226.48" y2="78.66"/><path class="cls-7" d="M208.46,26.77s11.34-14.21,27.23-4.5C229.31,11.11,211.78,11.2,208.46,26.77Z"/><path class="cls-13" d="M226.62,21.45s6.19,5.9,6.54,11.74l-3.87,8.58A8.32,8.32,0,0,1,227.11,47c-2.25,2.53-9.07,4.43-11.81,3.37S207.78,44,208.2,39c-5.14.31-8.89-6.86-5.35-10.4,2.42-2.42,7,.42,6.4,5.34,3.59,0,3.59-3.87,3.59-3.87S223.46,29.39,226.62,21.45Z"/><path class="cls-16" d="M218.51,32.67c1.65-.49,3.45.08,3.87,2"/><path class="cls-16" d="M226.42,36.65c1.65-.49,3.45.08,3.88,2"/><path class="cls-15" d="M219.38,29.16a4.52,4.52,0,0,1,1.64,0,4.32,4.32,0,0,1,1.52.54,4.77,4.77,0,0,1,1.24,1,6.73,6.73,0,0,1,.89,1.31l-.67.34a6.12,6.12,0,0,0-.78-1.15,4.13,4.13,0,0,0-1.05-.87,3.64,3.64,0,0,0-1.28-.46,3.71,3.71,0,0,0-1.33,0Z"/><path class="cls-15" d="M228,33.7a6.47,6.47,0,0,1,2.36.17,5.75,5.75,0,0,1,2.18,1.06l-.69.78a4.83,4.83,0,0,0-1.72-1.1,6,6,0,0,0-2.08-.39Z"/><path class="cls-19" d="M218.2,41s3.5-.33,3.78,1.5c1.15,0,1.41,1.59,1.41,1.59a3.14,3.14,0,0,1-3.23.23C218.62,43.38,218.2,41,218.2,41Z"/><path class="cls-16" d="M225.53,35.05l-1,2.61-.31,2.53a.86.86,0,0,1-1.09.73,5.75,5.75,0,0,1-1.86-.87"/><path class="cls-16" d="M217.05,39s1.27,4.12,7.28,5.23"/><line class="cls-16" x1="217.95" y1="38.63" x2="216.28" y2="39.47"/><circle class="cls-3" cx="204.75" cy="37.97" r="1.49"/><path class="cls-16" d="M207.75,34.65c0-2-1.37-5.45-3-5s-1.59,2.21-1.17,3.52"/><path class="cls-14" d="M240.26,94.89l7.88,7.44,8.92-16.23s-4.87-5.66-9.88-11C249.14,77.2,248,90.34,240.26,94.89Z"/><path class="cls-20" d="M435.56,69.51c-5.28,2.62-52,55.69-52,55.69l10.71,10.63L442,94Z"/><path class="cls-21" d="M388.22,13.12s6.19-.46,8.72,5.16-.19,11.18,1.41,15.15,5.81,4.28,6.09,9.43S404,49.78,409.13,54,416,66.28,416,71.44H351.19a21,21,0,0,1,1.5-10.22c2.25-5.63,7.69-6.47,9.28-12s3.38-10.37,6-12.56-.87-5.64-.87-5.64-8.1-2.43-10.72-7.4-.47-9.28,5.06-10,7.55-.93,11.51-4.4S385.32,6.56,388.22,13.12Z"/><path class="cls-22" d="M405.72,61.73c6.69,1,11.56,7.18,14.38,14.68s12.65,39,12.65,39l29.16,14-4.69,12.94-28.17-8.9a17.34,17.34,0,0,1-11-10.4L405.72,90.37Z"/><path class="cls-23" d="M472.44,20.91s4.85,2,5.49,4.35.78,4.81,2.78,5.65,4.64,4.27,2.43,7.41c.71,4.21-1.07,7.42-7.64,8s-9,.5-9,.5l-7.41.49s-3.85,3.29-10.38.79c-4.75,2.35-13.23,1.36-12.24-6.42-4-3.5-.92-6.52.86-8s.21-3.37.86-7.08,2-5.5,5.77-7.49,3.5-5.78,9.06-6.21a13.87,13.87,0,0,1,11.42,4.21A15.76,15.76,0,0,1,472.44,20.91Z"/><path class="cls-20" d="M506.29,70s24.27,35.81,29.4,44.51,3.71,19.18-10.84,26-28,12.53-28,12.53l-5.29-7.9,25.12-21.07L495.46,92Z"/><line class="cls-24" x1="517.45" y1="124.2" x2="525.05" y2="117.54"/><path class="cls-25" d="M503.72,76.8l-7.54,15.3,7.75,11.7a1.87,1.87,0,0,0,3.38-1.49C505.66,95.78,503.14,87.52,503.72,76.8Z"/><line class="cls-24" x1="471.79" y1="67.18" x2="479.02" y2="62.95"/><path class="cls-7" d="M481.1,59.6s15.52,5.44,26.07,9.91l-8,30.72-3.7,26.11.57,1.85s-41.52.43-47.51,0-1-6.94-1-6.94l-2-13.17s-9.6-5.57-6.32-23l-3.71-15.6,21-9.46Z"/><path class="cls-4" d="M446.71,127.73h50.76v9.88l12.13,30.24,1.57,92,5.13,9.9L521,356.88l-18.4-1L471.08,177.55l-3.85-.57,4.85,176.76-19.55,1.71-9.41-75.89,3.42-19.75s-13.55-51-15.26-90.53l15-31.53Z"/><path class="cls-26" d="M449.4,139.75s22.68,4,45.08,0"/><line class="cls-26" x1="469.23" y1="127.73" x2="468.58" y2="177.2"/><line class="cls-26" x1="450.96" y1="165.71" x2="486.2" y2="171.99"/><line class="cls-26" x1="454.2" y1="175.18" x2="481.97" y2="179.08"/><path class="cls-26" d="M477.4,127.73v25.82a10.73,10.73,0,0,1-3.45,7.88l-5.22,4.81"/><circle class="cls-27" cx="473.08" cy="134.28" r="1.71"/><circle class="cls-27" cx="473.08" cy="145.27" r="1.71"/><circle class="cls-27" cx="473.08" cy="154.5" r="1.71"/><line class="cls-26" x1="492.33" y1="140.11" x2="500.04" y2="166.24"/><line class="cls-26" x1="451.76" y1="140.11" x2="441.98" y2="166.24"/><line class="cls-26" x1="484.63" y1="141.03" x2="512.31" y2="351.89"/><line class="cls-26" x1="459.05" y1="349.89" x2="456.53" y2="141.03"/><line class="cls-8" x1="495.38" y1="99.66" x2="465.42" y2="120.2"/><line class="cls-8" x1="449.06" y1="107.84" x2="472.27" y2="106.6"/><path class="cls-20" d="M517.73,354.36l1.43,15.41,11,23.11,7,7a1.68,1.68,0,0,1-.69,2.79l-2.77.87a3.27,3.27,0,0,1-1.91,0l-8.91-2.76a8.87,8.87,0,0,1-4.56-3.23l-7-9.41v9.63a1.05,1.05,0,0,1-1.41,1l-.77-.27-.77-7.4-1.76-3.78a6,6,0,0,1-.47-3.62l2-11.24-4-18.07Z"/><path class="cls-3" d="M522.89,400.76l8.91,2.76a3.27,3.27,0,0,0,1.91,0l2.77-.87a1.68,1.68,0,0,0,.69-2.79l-7-7-3.36-7-2.34.28a11.24,11.24,0,0,1-9.4-3.32l-7.37-7.59-1.54,8.46a6,6,0,0,0,.47,3.62l1.76,3.78.77,7.4.77.27a1.05,1.05,0,0,0,1.41-1v-9.63l7,9.41A8.87,8.87,0,0,0,522.89,400.76Z"/><path class="cls-20" d="M455.58,354.36l1.91,15.41-9.28,23.11-6.45,7a1.75,1.75,0,0,0,.9,2.79l2.84.87a3.27,3.27,0,0,0,1.91,0l8.7-2.76a8.09,8.09,0,0,0,4.32-3.23l6.25-9.41.73,9.63a1.14,1.14,0,0,0,1.49,1l.74-.27.21-7.4,1.47-3.78a6,6,0,0,0,.2-3.62l-2.89-11.24.45-18.07Z"/><path class="cls-3" d="M456.11,400.76l-8.7,2.76a3.27,3.27,0,0,1-1.91,0l-2.84-.87a1.75,1.75,0,0,1-.9-2.79l6.45-7,2.83-7,2.35.28a10.53,10.53,0,0,0,9.16-3.32l6.79-7.59,2.18,8.46a6,6,0,0,1-.2,3.62l-1.47,3.78-.21,7.4-.74.27a1.14,1.14,0,0,1-1.49-1l-.73-9.63-6.25,9.41A8.09,8.09,0,0,1,456.11,400.76Z"/><path class="cls-3" d="M467.36,19a14.83,14.83,0,0,1,6.54,5.26A8.9,8.9,0,0,0,467.56,16,9,9,0,0,0,458.39,18,14.42,14.42,0,0,1,467.36,19Z"/><path class="cls-3" d="M458.39,18s-3.1-6.78,1.23-11.77c2.33,4.85-.33,10-.33,10s2.8-6,8.32-6.8A12.18,12.18,0,0,1,458.39,18Z"/><path class="cls-20" d="M471.86,41.94S473,53.66,476.7,56.46c1.89,1.43,4.4,3.14,4.4,3.14S478,79.77,470.7,91.06c-10.22-12.28-14.17-31-14.17-31l4.77-2.72-1.63-8.94Z"/><path class="cls-25" d="M471.86,41.94l-12.19,6.45.62,3.41a5.94,5.94,0,0,0,11.07,1.8l.12-.23a11.57,11.57,0,0,0,1-7.35C472,43.7,471.86,41.94,471.86,41.94Z"/><polygon class="cls-4" points="450.11 348.37 472.75 348.37 472.75 353.98 451.54 356.26 450.11 348.37"/><polygon class="cls-4" points="500.9 350.65 521.82 350.65 521.82 358.07 501.75 356.88 500.9 350.65"/><polygon class="cls-3" points="451.76 62.2 458.65 128.38 457.1 139.75 452.11 138.61 453.2 128.33 446.11 64.42 451.76 62.2"/><polygon class="cls-3" points="488.15 62.13 483.21 128.3 484.63 139.75 490.05 139.75 489.2 128.38 494.48 64.42 488.15 62.13"/><circle class="cls-26" cx="487.21" cy="134.2" r="1.63"/><path class="cls-20" d="M459,22.11c-.18,1.3-1.17,2-2.08,3-1.19,1.22-2.17,1.54-3.56,4.42a7.64,7.64,0,0,1-4.63,3.69L453,44.46a7.67,7.67,0,0,0,5,4.7l4.9,1.43a5.31,5.31,0,0,0,5.72-1.88l3.1-4.06A7.67,7.67,0,0,0,473,37.88l-2.25-8.15a2.08,2.08,0,0,0-1.82-1.5C462.66,27.62,459,22.11,459,22.11Z"/><path class="cls-23" d="M452,35.9a5.65,5.65,0,0,1,6.38-2.1A3.82,3.82,0,0,0,452,35.9Z"/><path class="cls-23" d="M468.73,30.39a5.63,5.63,0,0,0-6.38,2.09A3.82,3.82,0,0,1,468.73,30.39Z"/><polyline class="cls-28" points="460.12 35.27 461.14 38.36 461.13 40.74 463.35 39.76"/><path class="cls-28" d="M460,42.72a12.38,12.38,0,0,0,6.52-2.7"/><ellipse class="cls-23" cx="456.24" cy="36.76" rx="1.1" ry="1.65" transform="translate(11.32 144.23) rotate(-18.19)"/><path class="cls-28" d="M458.47,35.81c-1.31-.58-3.46-1-4.68,1.27"/><ellipse class="cls-23" cx="465.78" cy="33.63" rx="1.1" ry="1.65" transform="translate(12.77 147.05) rotate(-18.19)"/><path class="cls-28" d="M463.42,34.18c.71-1.24,2.18-2.88,4.53-1.76"/><ellipse class="cls-20" cx="450.3" cy="40.54" rx="2.74" ry="3.75" transform="translate(74.98 292.64) rotate(-39.03)"/><path class="cls-29" d="M448.38,40.74c-1.21-1.77,1.72-3.55,4.22-.56"/><ellipse class="cls-20" cx="472.81" cy="33.15" rx="3.75" ry="2.74" transform="translate(417.74 503.91) rotate(-87.34)"/><path class="cls-29" d="M474.19,32.78c.14-1.91-1.59-4.07-3,.34"/><path class="cls-22" d="M394.6,248.06S430,351,431.16,362s0,27.84,0,27.84-7,20-3.66,22.22,14.27-10.32,16.31-15.75c1.83-4.85,1.41-6.89,3.38-8.93s5.84-8.86,5.76-12.09-4.57-4.22-7.52-8.65-3.44-16.88-3.65-25.52-2.56-44.75-5.91-57.8c-2.7-10.51-15.61-29.33-16.59-32.2a21.7,21.7,0,0,1-.64-9.29Z"/><path class="cls-4" d="M445.43,366.61a9.2,9.2,0,0,1-.6-1.09h0c.08,5.81-2.89,16.5-4.95,23s-8.91,6.37-8.72,1.31c0,0-7,20-3.66,22.22s14.27-10.32,16.31-15.75c1.83-4.85,1.41-6.89,3.38-8.93s5.84-8.86,5.77-12.09S448.38,371,445.43,366.61Z"/><path class="cls-22" d="M349.18,243s-8.42,108.54-11.75,119-11.07,25.55-11.07,25.55S312,403.1,314.16,406.5s17.2-3.8,21.24-8c3.6-3.72,4-5.76,6.64-6.85s8.88-5.81,10.1-8.8-2.51-5.69-3.46-10.93,3.55-16.86,6.8-24.87S370.93,305,373,291.71c1.71-10.72-2.65-33.12-2.42-36.15a21.68,21.68,0,0,1,3.11-8.77Z"/><path class="cls-11" d="M418.64,241.8l-24,6.26s1.95,5.68,4.95,14.5c7.92-3.6,18.27-3.13,29,4.59-4.23-7.55-8.7-14.42-9.26-16.06A21.7,21.7,0,0,1,418.64,241.8Z"/><path class="cls-11" d="M373.73,246.79,349.18,243s-.5,6.49-1.31,16.43c6.16-2.1,15.3-.44,23.55,3.68a65.33,65.33,0,0,1-.8-7.52A21.68,21.68,0,0,1,373.73,246.79Z"/><path class="cls-4" d="M348.68,372a9.31,9.31,0,0,1-.12-1.24h0c-2.24,5.36-9.22,14-13.68,19.1s-10.71,2.31-8.52-2.26c0,0-14.4,15.53-12.2,18.93s17.2-3.8,21.24-8c3.6-3.72,4-5.76,6.64-6.85s8.88-5.81,10.1-8.8S349.63,377.2,348.68,372Z"/><path class="cls-7" d="M353.35,125.34l47.53,3.19s33.93,54.84,50.25,107.72c0,0-53.44,36.84-133,5.34C318.16,241.59,324.93,170.72,353.35,125.34Z"/><path class="cls-30" d="M391.5,129.37S417,215.89,423.78,248.29"/><line class="cls-30" x1="380.31" y1="129.37" x2="393.25" y2="253.9"/><path class="cls-30" d="M370.91,127.69s-7.94,97.38-8.72,123.64"/><path class="cls-30" d="M362.19,127.69S342.1,207,336,243"/><path class="cls-4" d="M398.63,114l2.25,14.53s-11.25,3.38-28.78,1.78-18.75-5-18.75-5l4.21-14.53Z"/><path class="cls-22" d="M389.81,39l1.71,16.54a5.74,5.74,0,0,0,5,5.11l9.19,1.13a7.37,7.37,0,0,1,6.45,7.76l-1.82,29.32L354,97.36,339.1,113l-9.45-20.26,23.58-26.48a19.33,19.33,0,0,1,12.93-6.41l9-.68,1.25-11Z"/><path class="cls-11" d="M375.31,57.55c9.54.62,13.75-8.32,15.15-12.34L389.81,39l-13.44,9.24Z"/><path class="cls-7" d="M395.71,77.69c.82,4.6,3.27,12.84,10.63,18.42a5,5,0,0,1,1.18,6.78l-8,12.16a4.05,4.05,0,0,1-2.94,1.81c-5.87.67-24.11,2.15-38.33-3.36a3,3,0,0,1-1.87-2.44l-.66-5.27s-6.31-10.43-5.3-16c1.23-6.9,8.51-12.94,12.61-15.86a2.3,2.3,0,0,1,3.58,1.33l3.14,13.16s8-8.1,22-13A3,3,0,0,1,395.71,77.69Z"/><path class="cls-31" d="M370.91,87.48s3-12.29,15.15-14.36"/><line class="cls-31" x1="382.38" y1="66.75" x2="394.07" y2="63.75"/><path class="cls-22" d="M384.19,23.55s-1.69,4.79,4.78,7c0,0,1.62-3.87,4.92-2.25s.35,11.32-4.08,10.68c0,0-3.37,11.89-15,12.8-2.27.18-3.52-2.6-3.52-2.6A14.79,14.79,0,0,1,367.74,39a38,38,0,0,1-1.31-9.52,2.94,2.94,0,0,1,2.14-2.77c2.89-.8,8.27-2.69,11.4-6.27C381.1,22.92,384.19,23.55,384.19,23.55Z"/><path class="cls-32" d="M373.54,41.56a1.33,1.33,0,0,1,1.9-.69,3.58,3.58,0,0,1,3.76-.16,3.92,3.92,0,0,1-3.17,2.1C373.85,43.16,373.54,41.56,373.54,41.56Z"/><ellipse class="cls-33" cx="391.62" cy="39.14" rx="1.71" ry="2.11"/><path class="cls-9" d="M389.91,34.36c.65-2.2,1-5,3.14-4.59s.28,3.84.28,3.84"/><polyline class="cls-9" points="374.03 32.33 375.01 35.85 373.75 38.43 376.49 38.77"/><path class="cls-34" d="M372.91,41.54a13.88,13.88,0,0,0,8.4-1.76"/><path class="cls-33" d="M377.11,33.94A3.77,3.77,0,0,1,380.67,31c3.05-.19,4,1.45,4,1.45a8,8,0,0,1-3.8,1.88A6.29,6.29,0,0,1,377.11,33.94Z"/><path class="cls-33" d="M367.94,34.34c1.42-1.3,4-1.19,5,.24C371.78,36.07,368.2,36.85,367.94,34.34Z"/><path class="cls-21" d="M376.06,30.43A7.59,7.59,0,0,1,384,29.26C381,26.56,377.33,27.61,376.06,30.43Z"/><path class="cls-21" d="M366.64,32.23s1.76-2.3,5.31-1C370.12,29.34,367.27,30,366.64,32.23Z"/><path class="cls-21" d="M382.38,32.59a2,2,0,0,0-.67-1.55,7.13,7.13,0,0,0-1,0,4.2,4.2,0,0,0-.75.12,2,2,0,0,0-.56,1.44,1.84,1.84,0,0,0,1.13,1.81l.42,0a6.11,6.11,0,0,0,.74-.17A2,2,0,0,0,382.38,32.59Z"/><path class="cls-21" d="M370.78,35.84a1.29,1.29,0,0,0,.87-1.58,1.59,1.59,0,0,0-.31-.71,3.85,3.85,0,0,0-1.69,0,1.51,1.51,0,0,0-.23,1.14A1.27,1.27,0,0,0,370.78,35.84Z"/><path class="cls-11" d="M342.8,78,329.65,92.76,339.1,113l8.13-8.53C342.21,99.27,336.91,84.61,342.8,78Z"/><path class="cls-3" d="M362.83,254.67c-14.13-75.85-44.67-113.58-44.67-113.58l-26.14.53-26.14-.53s-30.55,37.73-44.68,113.58c-8.74,47-25.77,145.41-25.77,145.41,3.62,4.33,16.93,9.14,27.44,6.85a88.13,88.13,0,0,0,38.66,3.44s16.7,5.32,30.49,5.32c15.44,0,30.48-5.32,30.48-5.32a88.18,88.18,0,0,0,38.67-3.44c10.5,2.29,23.81-2.52,27.43-6.85C388.6,400.08,371.57,301.62,362.83,254.67Z"/><path class="cls-35" d="M261.53,410.37s0-152.75,23.05-262.69"/><path class="cls-35" d="M222.87,406.93c18.51-138.36,23.31-201.22,51.28-262"/><path class="cls-35" d="M322.38,410.37s0-152.75-23.05-262.69"/><path class="cls-35" d="M361.05,406.93c-18.52-138.36-23.31-201.22-51.29-262"/><path class="cls-3" d="M301.42,21.73H282.61L269,58.22a6.63,6.63,0,0,1,5.41-.38c2.9,1.13,3.28.19,5.18-.18s3.92-.1,6.82,1a8.3,8.3,0,0,0,5.63,0,8.27,8.27,0,0,0,5.62,0c2.91-1.13,4.93-1.41,6.82-1s2.28,1.31,5.18.18a6.65,6.65,0,0,1,5.42.38Z"/><circle class="cls-6" cx="292.02" cy="8.98" r="8.98"/><path class="cls-3" d="M292,8.07a12,12,0,0,0-8.62,3.42,9,9,0,0,0,17.23,0A12,12,0,0,0,292,8.07Z"/><path class="cls-6" d="M305.8,33.75H278.23L278,25.06c-.26-8.4,6.11-15.36,14-15.36h0c7.94,0,14.3,7,14,15.36Z"/><path class="cls-2" d="M280.56,31.78s-2.71-3.44-4.75-2.18.28,9.49,4.57,9Z"/><ellipse class="cls-36" cx="278.11" cy="39.89" rx="0.86" ry="3.46"/><path class="cls-9" d="M276.53,32.78c-.51-1.82,1.08-3.31,3.71,1.59"/><path class="cls-2" d="M303.47,31.78s2.71-3.44,4.75-2.18-.28,9.49-4.57,9Z"/><ellipse class="cls-36" cx="305.92" cy="39.89" rx="0.86" ry="3.46"/><path class="cls-9" d="M307.5,32.78c.51-1.82-1.08-3.31-3.71,1.59"/><path class="cls-2" d="M353.56,137.39c-3.09-12.8-15.18-45.56-18.56-55.27-3.07-8.82-14.19-13.3-29.66-20A8.63,8.63,0,0,1,300.15,55l-.87-10.11H284.75L283.88,55a8.62,8.62,0,0,1-5.18,7.18c-15.47,6.67-26.6,11.15-29.67,20-3.37,9.71-15.47,42.47-18.56,55.27s9.7,17.3,15.75,14.63S258,146,258,146l-3.65-9.42L263,102.09h58.13l8.58,34.46L326,146s5.77,3.37,11.81,6.05S356.66,150.19,353.56,137.39Z"/><path class="cls-11" d="M230,141.44c3.76-5.64,10.89-12.07,10.89-12.07V115.19l-3.77.72c-2.89,8.49-5.46,16.5-6.66,21.48A15.73,15.73,0,0,0,230,141.44Z"/><line class="cls-31" x1="296.3" y1="67.08" x2="305.79" y2="66.73"/><path class="cls-11" d="M299.87,51.7l-.59-6.84H284.75l-.35,4.07C288.9,54.16,294.69,57.77,299.87,51.7Z"/><path class="cls-37" d="M280.27,60.47c2.74,9.21,11.75,14,11.75,14s9-4.78,11.74-14"/><path class="cls-3" d="M292,73.67c-4.23,5.34-3.23,8.65,0,8.65S296.24,79,292,73.67Z"/><ellipse class="cls-11" cx="292.02" cy="78.69" rx="0.75" ry="2"/><path class="cls-3" d="M292,88.87c-26.34-8.43-32.92,5.07-32.92,5.07l11.81,40.87h42.21l11.81-40.87S318.35,80.44,292,88.87Z"/><path class="cls-38" d="M314.38,130.44s-7.07,3.25-22.36,3.25-22.37-3.25-22.37-3.25l-3.77,10.65a51.05,51.05,0,0,0,52.28,0Z"/><path class="cls-39" d="M314.68,152.75,300.2,132l10.43-25.13H273.4L283.83,132l-14.48,20.75s-.45,4.14,4.79,4c.3,3.94,4.26,5.42,8.05,3.92,1.64,3.75,6.75,3.35,9.83,1.59,3.07,1.76,8.18,2.16,9.82-1.59,3.8,1.5,7.75,0,8.05-3.92C315.13,156.89,314.68,152.75,314.68,152.75Z"/><path class="cls-40" d="M300.2,132l7.85-18.9-31.69.89,7.47,18-6.77,9.7c6.43-9.2,29.49-.78,35,7.31h0Z"/><path class="cls-41" d="M249.11,129.47l40.15-12.66,2.9,8.25-36.37,24.47S244.58,142.31,249.11,129.47Z"/><path class="cls-41" d="M334.93,129.47l-40.16-12.66-2.9,8.25,36.37,24.47S339.45,142.31,334.93,129.47Z"/><path class="cls-42" d="M304.66,113.23c-.16-.07-.31-.15-.48-.21a1.5,1.5,0,0,1-.82-2c.08-.18.15-.36.21-.53a4,4,0,0,0-5.15-5.15l-.48.19a1.51,1.51,0,0,1-2-.83c-.07-.18-.15-.36-.23-.53a4,4,0,0,0-7.28,0q-.1.22-.21.48a1.49,1.49,0,0,1-2,.82q-.27-.12-.54-.21a4,4,0,0,0-5.15,5.15c.06.16.12.32.19.48a1.5,1.5,0,0,1-.83,2l-.53.23a4,4,0,0,0,0,7.28l.48.21a1.48,1.48,0,0,1,.82,2c-.07.18-.14.36-.2.54a4,4,0,0,0,5.14,5.14l.49-.18a1.49,1.49,0,0,1,2,.83c.07.18.15.35.23.52a4,4,0,0,0,7.28,0l.21-.47a1.51,1.51,0,0,1,2-.83l.53.21a4,4,0,0,0,5.15-5.14c-.06-.16-.12-.33-.19-.49a1.5,1.5,0,0,1,.83-2l.53-.23A4,4,0,0,0,304.66,113.23Z"/><circle class="cls-43" cx="292.02" cy="116.81" r="4.83"/><path class="cls-42" d="M290.68,94.15a6.77,6.77,0,0,0-1.5-.5,6.67,6.67,0,0,0,.72-1.44,2.85,2.85,0,0,0-3.64-3.65,6.43,6.43,0,0,0-1.41.71,6.24,6.24,0,0,0-.51-1.53,2.85,2.85,0,0,0-5.15,0,6.44,6.44,0,0,0-.5,1.5,6.3,6.3,0,0,0-1.44-.73,2.84,2.84,0,0,0-3.64,3.64,6.6,6.6,0,0,0,.7,1.41,6.7,6.7,0,0,0-1.53.51,2.85,2.85,0,0,0,0,5.15,6.44,6.44,0,0,0,1.5.5,6.3,6.3,0,0,0-.73,1.44,2.85,2.85,0,0,0,3.64,3.65,6.49,6.49,0,0,0,1.42-.71,6.25,6.25,0,0,0,.5,1.53,2.84,2.84,0,0,0,5.15,0,6.06,6.06,0,0,0,.5-1.49,6.73,6.73,0,0,0,1.45.72,2.84,2.84,0,0,0,3.64-3.64,6.43,6.43,0,0,0-.71-1.41,7,7,0,0,0,1.54-.51A2.85,2.85,0,0,0,290.68,94.15Z"/><circle class="cls-43" cx="281.73" cy="96.69" r="3.42"/><path class="cls-42" d="M311.25,94.15a6.51,6.51,0,0,0-1.49-.5,6.67,6.67,0,0,0,.72-1.44,2.85,2.85,0,0,0-3.64-3.65,6.43,6.43,0,0,0-1.41.71,6.7,6.7,0,0,0-.51-1.53,2.85,2.85,0,0,0-5.15,0,6.44,6.44,0,0,0-.5,1.5,6.3,6.3,0,0,0-1.44-.73,2.85,2.85,0,0,0-3.65,3.64,6.22,6.22,0,0,0,.71,1.41,6.7,6.7,0,0,0-1.53.51,2.84,2.84,0,0,0,0,5.15,6.44,6.44,0,0,0,1.5.5,6.3,6.3,0,0,0-.73,1.44,2.85,2.85,0,0,0,3.64,3.65,6.43,6.43,0,0,0,1.41-.71,6.7,6.7,0,0,0,.51,1.53,2.84,2.84,0,0,0,5.15,0,6.51,6.51,0,0,0,.5-1.49,6.67,6.67,0,0,0,1.44.72,2.85,2.85,0,0,0,3.65-3.64,6.43,6.43,0,0,0-.71-1.41,6.7,6.7,0,0,0,1.53-.51A2.84,2.84,0,0,0,311.25,94.15Z"/><circle class="cls-43" cx="302.31" cy="96.69" r="3.42"/><path class="cls-44" d="M295.3,87.14a3.29,3.29,0,0,0-6.57,0c-.63,2.6-3.59,3.87-3.59,7.38S292,102.7,292,102.7s6.87-4.66,6.87-8.18S295.93,89.74,295.3,87.14Z"/><line class="cls-45" x1="292.02" y1="100.99" x2="292.02" y2="85.66"/><path class="cls-46" d="M291.31,114s-.33,1.69-3.79,2.86c1.26,3.89-.61,7.27-5.3,7.69-2.91,3.84-4.78,3.89-7.55,4.27a4.28,4.28,0,0,0-3.52,2.16s-2.28-2.54-1.61-4.37,1.16-2.76.85-4.54-1.66-4.93,0-7a27.22,27.22,0,0,1,4.47-4.17l2.79-4.83L289,108.19Z"/><path class="cls-45" d="M287,109.27s-14.39,4.59-15.79,20.1"/><path class="cls-46" d="M292.72,114s.33,1.69,3.8,2.86c-1.27,3.89.61,7.27,5.29,7.69,2.91,3.84,4.78,3.89,7.55,4.27a4.26,4.26,0,0,1,3.52,2.16s2.28-2.54,1.61-4.37-1.16-2.76-.85-4.54,1.66-4.93,0-7a26.8,26.8,0,0,0-4.47-4.17L306.38,106,295,108.19Z"/><path class="cls-45" d="M297.08,109.27s14.39,4.59,15.8,20.1"/><path class="cls-44" d="M300.24,98.52a16.2,16.2,0,0,1,11.89.29c6,2.72,3.93,5,7.66,6.52s6.26,5.83,6.19,9c2.67,2.67,3.79,8.15,3.65,11-3.47-2.05-6.13-8-11.68-8.23s-9.9-6-9.9-6-8.35.77-10.41-3.16Z"/><path class="cls-45" d="M299.47,103.64c7.94-.91,25.26,6.27,28.41,18.84"/><path class="cls-44" d="M283.79,98.52a16.17,16.17,0,0,0-11.88.29c-6.05,2.72-3.94,5-7.67,6.52s-6.25,5.83-6.18,9c-2.68,2.67-3.8,8.15-3.66,11,3.47-2.05,6.14-8,11.68-8.23s9.91-6,9.91-6,8.35.77,10.4-3.16Z"/><path class="cls-45" d="M284.56,103.64c-7.94-.91-25.25,6.27-28.4,18.84"/><path class="cls-43" d="M319.9,95.86c1.69-.52.94-4.55-2.29-5.16-.85-3.09-2.31-3.92-4.44-3.55-.77-2.78-3.25-4.28-5.69-3.34-1.31-1.92-4.89-3.83-5.26-1.26s3.67,9.14,3.67,9.14Z"/><path class="cls-47" d="M308,92.76s-5,4.79-8.93,9.57"/><path class="cls-48" d="M305.53,95.72c-4.33-3-3.31-13.17-3.31-13.17a7.3,7.3,0,0,1,5.17,5.71c4.12-1.47,5.82.92,5.86,3.66,2.93.42,5.81,1.76,6.65,3.94C316,96.7,310,98.83,305.53,95.72Z"/><path class="cls-43" d="M264.13,95.86c-1.69-.52-.94-4.55,2.3-5.16.84-3.09,2.3-3.92,4.43-3.55.77-2.78,3.26-4.28,5.69-3.34,1.32-1.92,4.89-3.83,5.26-1.26s-3.66,9.14-3.66,9.14Z"/><path class="cls-47" d="M276,92.76a128.94,128.94,0,0,1,8.93,9.57"/><path class="cls-48" d="M278.5,95.72c4.33-3,3.31-13.17,3.31-13.17a7.28,7.28,0,0,0-5.16,5.71c-4.13-1.47-5.83.92-5.87,3.66-2.92.42-5.81,1.76-6.65,3.94C268,96.7,274,98.83,278.5,95.72Z"/><path class="cls-2" d="M300.63,18.75a7.77,7.77,0,0,1-5.76,1.55c-1.15,3-3.28,4.17-6.91,3-1.24,2.2-4.25,4.12-6.47,3.7a6.36,6.36,0,0,1-2.1,2.49l.32,7.26a12.42,12.42,0,0,0,3.8,8.43c2.65,2.53,6.19,4.23,8.49,4.23s5.84-1.7,8.48-4.23a12.38,12.38,0,0,0,3.81-8.43l.36-8C301.78,26.77,300.67,20.78,300.63,18.75Z"/><path class="cls-49" d="M282.6,29.86a5,5,0,0,1,7,.25"/><path class="cls-49" d="M301.43,29.86a5,5,0,0,0-7,.25"/><path class="cls-9" d="M283.47,32.85a3.7,3.7,0,0,1,5.1.21"/><path class="cls-9" d="M300.56,32.85a3.7,3.7,0,0,0-5.1.21"/><polyline class="cls-9" points="291.35 31.78 291.7 33.97 291.07 37.08 293.56 37.62"/><path class="cls-3" d="M287.58,39.38h8.87s-1.54,4-4.43,4S287.58,39.38,287.58,39.38Z"/><ellipse class="cls-50" cx="285.62" cy="37.69" rx="2.34" ry="1.5"/><ellipse class="cls-50" cx="298.41" cy="37.69" rx="2.34" ry="1.5"/><path class="cls-48" d="M306.58,109.48c.14-4.15-1.7-7.39-5.63-8.86.7-1.81,2.53-4.36.14-9.64-6.19.92-9.07,4.36-9.07,4.36S289.13,91.9,283,91c-2.39,5.28-.57,7.83.14,9.64-3.94,1.47-5.78,4.71-5.64,8.86,2.39.7,6.71,2.15,9.88-.31-.94,4.36,2.72,6,4.69,8.25,2-2.2,5.62-3.89,4.68-8.25C299.87,111.63,304.19,110.18,306.58,109.48Z"/><path class="cls-43" d="M292.34,99.67a3.59,3.59,0,0,0-.32.36,3.7,3.7,0,0,0-.33-.36c-1.16-1.16-2.7-1.5-3.45-.75s-.42,2.29.74,3.45c.12.12.25.23.37.33-.12.1-.25.2-.37.32-1.16,1.16-1.49,2.71-.74,3.46s2.29.41,3.45-.75a3.8,3.8,0,0,0,.33-.37,3.68,3.68,0,0,0,.32.37c1.16,1.16,2.71,1.49,3.45.75s.42-2.3-.74-3.46c-.12-.12-.25-.22-.37-.32a3.8,3.8,0,0,0,.37-.33c1.16-1.16,1.49-2.7.74-3.45S293.5,98.51,292.34,99.67Z"/><path class="cls-13" d="M152.91,125.18c-2.44,14,9.09,22.62,27.8,18.68s40.21-9.05,40.21-9.05,3.66,1,10-2.2l8.5-3.24-.49-2.32-6.19,2.32,7.48-4.57v-5l-9.65,2.25,8.08-4.64-.56-1.4-10.55,4.64-8.86,7s-37.61-2.46-46.33-2.82S152.91,125.18,152.91,125.18Z"/><line class="cls-51" x1="230.38" y1="125.65" x2="240.21" y2="122.2"/></g></g></svg>